/* XPM */
static char *_9a1e808e9cb42159f25624f330b97d0[] = {
/* columns rows colors chars-per-pixel */
"31 31 190 2 ",
"   c #1C3FBA",
".  c #0F48BC",
"X  c #1440B7",
"o  c #1640B9",
"O  c #1C45B8",
"+  c #104ABD",
"@  c #124ABC",
"#  c #2849BD",
"$  c #6F47AF",
"%  c #664AB2",
"&  c #6B4DB7",
"*  c #7746B7",
"=  c #6F55B6",
"-  c #7550B1",
";  c #7C59B5",
":  c #7C59B6",
">  c #745CB8",
",  c #765DB9",
"<  c #6F60BF",
"1  c #0D51C0",
"2  c #0E5EC9",
"3  c #1055C2",
"4  c #265CC2",
"5  c #2E58C1",
"6  c #3C5EC6",
"7  c #2066CB",
"8  c #3F74CE",
"9  c #2C7CD5",
"0  c #217BD8",
"q  c #546CCD",
"w  c #4774CF",
"e  c #4A71CF",
"r  c #5D75D4",
"t  c #5E76D4",
"y  c #537AD5",
"u  c #7163C0",
"i  c #7866C4",
"p  c #756EC9",
"a  c #6078D7",
"s  c #667ED7",
"d  c #6F78D4",
"f  c #627ADB",
"g  c #7179D7",
"h  c #737BD7",
"j  c #767DD7",
"k  c #767FD7",
"l  c #7A78D6",
"z  c #7F78D5",
"x  c #757DDA",
"c  c #A73FBF",
"v  c #B930B9",
"b  c #B932B9",
"n  c #BA32BA",
"m  c #BA33BB",
"M  c #B038BB",
"N  c #B038BC",
"B  c #B038BD",
"V  c #B039BD",
"C  c #C42CB7",
"Z  c #CE29B7",
"A  c #C42BB8",
"S  c #D026B7",
"D  c #CF34BB",
"F  c #CA30BE",
"G  c #8251B2",
"H  c #8557B6",
"J  c #8850B9",
"K  c #9253B8",
"L  c #B442BF",
"P  c #C742BF",
"I  c #C941BF",
"U  c #AB3FC2",
"Y  c #C23FC0",
"T  c #CA3BC0",
"R  c #864FC3",
"E  c #9D45C0",
"W  c #954BC5",
"Q  c #964CC7",
"!  c #8B51C5",
"~  c #815FC6",
"^  c #9650C6",
"/  c #9758C4",
"(  c #9B58C7",
")  c #9950CA",
"_  c #A741C1",
"`  c #A045C0",
"'  c #A045C3",
"]  c #A047C4",
"[  c #A940C2",
"{  c #A947C1",
"}  c #A148C6",
"|  c #A04CC4",
" . c #AE4FC4",
".. c #B74EC4",
"X. c #B94BC6",
"o. c #BB4EC5",
"O. c #BE4FC8",
"+. c #A156C4",
"@. c #A555C7",
"#. c #A859C7",
"$. c #A658C8",
"%. c #AA5ACC",
"&. c #B153C7",
"*. c #B054C8",
"=. c #B454CA",
"-. c #B555CB",
";. c #8774CF",
":. c #8572D2",
">. c #8772D4",
",. c #8873D3",
"<. c #827CD5",
"1. c #847FD5",
"2. c #8E79D3",
"3. c #8078D8",
"4. c #C547C5",
"5. c #C149C2",
"6. c #C148C3",
"7. c #388EDD",
"8. c #2D93E0",
"9. c #2D96E1",
"0. c #2E97E1",
"q. c #3198E0",
"w. c #3B9DE2",
"e. c #1DBCED",
"r. c #30A1E5",
"t. c #32A3E5",
"y. c #36A3E7",
"u. c #3BA7E7",
"i. c #34A5E9",
"p. c #36A9EB",
"a. c #33ADE8",
"s. c #34ADE9",
"d. c #32AEED",
"f. c #3FABE9",
"g. c #3EA9EA",
"h. c #29B0EB",
"j. c #2AB5EF",
"k. c #21B8ED",
"l. c #3DB2EA",
"z. c #35B8EC",
"x. c #37BFEE",
"c. c #37BFEF",
"v. c #3FB9EB",
"b. c #3CB8EC",
"n. c #3EB9EC",
"m. c #3EBBEF",
"M. c #28B7F1",
"N. c #22BDF4",
"B. c #2CBEF0",
"V. c #32B2F0",
"C. c #35BFF0",
"Z. c #4D8BDA",
"A. c #5887DA",
"S. c #5D84D9",
"D. c #5D8DDA",
"F. c #4E94DF",
"G. c #6C83D9",
"H. c #6E81DA",
"J. c #6F85DD",
"K. c #6588DD",
"L. c #6689DC",
"P. c #7981D8",
"I. c #7981DB",
"U. c #7982DA",
"Y. c #4598E1",
"T. c #4A9DE4",
"R. c #489EE4",
"E. c #4C9DE6",
"W. c #668BE0",
"Q. c #40A2E4",
"!. c #42A3E5",
"~. c #42A1E6",
"^. c #41A9E7",
"/. c #45A4E9",
"(. c #40ACEA",
"). c #40ACED",
"_. c #45B3EA",
"`. c #46B5EA",
"'. c #44B6ED",
"]. c #47B7EE",
"[. c #45B8EF",
"{. c #30C2E6",
"}. c #35C4EE",
"|. c #3BCBE9",
" X c #28C6F4",
".X c #33C6F0",
"XX c #8983D8",
"oX c #8A84D8",
"OX c #8C85DC",
"+X c None",
/* pixels */
"+X+X+X+X+X+X+X+X+X+X+X+X+X+X+X+X+X+X+X+X+X+X+X+X+X+X+X+X+X+X+X",
"+X+X+X+X+X+X+X+X+X+X+X+X+X+X+X+X+X+X+X+X+X+X+X+X+X+X+X+X+X+X+X",
"+X+X+X+X+X+X+X+X+X+X+X+X+X+X+X+X+X+X+X+X+X+X+X+X+X+X+X+X+X+X+X",
"+X+X+X+X+X+X+X+X+X+X+X+X+X+X+X+X+X+X+X+X+X+X+X+X+X+X+X+X+X+X+X",
"+X+X+X+X+X+X+X+X+X+X+X+X+X+X+X+X+X+X+X+X+X+X+X+X+X+X+X+X+X+X+X",
"+X+X+X+X+X+X+X+X+X+X+X+X+X+X+X+X+X+X+X+X+X+X+X+X+X+X+X+X+X+X+X",
"+X+X+X+X+X+X+X+X+X+X+X+X+X+X+X+X+X+X+X+X+X+X+X+X+X+X+X+X+X+X+X",
"+X+X+X+X+X+X+X+X+X+X+X+X+X+X+X+X+X+X+X+X+X+X+X+X+X+X+X+X+X+X+X",
"+X+X+X+X+X+X+X+X+X+X+X+X+X+X+X+X+X+X+X+X+X+X+X+X+X+X+X+X+X+X+X",
"+X+X+X+X+X+X+X+X+XK H ; , u p +X+X+X+X+X+X+X+X'.m.x.}.|.+X+X+X",
"+X+X+X+X+X+X+X+X+X+.G ; , < <.+X+X+X+X+X+X+Xg.].'.}..X{.+X+X+X",
"+X+X+X+X+X+X+X+X*.%.J - = i OXj +X+X+X+X+X+Xf.].m.c. X+X+X+X+X",
"+X+X+X+X+X+X+X+X=.#./ $ % ;.XXI.+X+X+X+X+XQ.f.`.b.B.e.+X+X+X+X",
"+X+X+X+X+X+X+X..=.$.( * & 2.XXI.H.+X+X+X+X!.)._.z.N.+X+X+X+X+X",
"+X+X+X+X+X+X+XO.*.@.^ R ~ :.XXk J.K.+X+XE./.^.l.j.k.+X+X+X+X+X",
"+X+X+X+X+X+X5.5. .| Q ! +X:.z k G.K.+X+XE.Q.u.s.M.+X+X+X+X+X+X",
"+X+X+X+X+X+X5.X.{ E ) +X+X:.z g f W.D.F.E.w.t.d.h.+X+X+X+X+X+X",
"+X+X+X+X+X4.4.L _ E W +X+X+Xz h t S.A.Z.Y.q.r.V.+X+X+X+X+X+X+X",
"+X+X+X+X+XI Y M U } +X+X+X+Xl j t y w 8 7.0.i.s.+X+X+X+X+X+X+X",
"+X+X+X+X+XT m N _ ` +X+X+X+X+Xh a e 5 4 9 0.p.+X+X+X+X+X+X+X+X",
"+X+X+X+XD F m N [ ` +X+X+X+X+X+Xf 6 O + 7 8.y.+X+X+X+X+X+X+X+X",
"+X+X+X+XZ A m N U +X+X+X+X+X+X+Xq # X . 3 0 +X+X+X+X+X+X+X+X+X",
"+X+X+X+XS C m M +X+X+X+X+X+X+X+X+X  o + 1 2 +X+X+X+X+X+X+X+X+X",
"+X+X+X+X+X+X+X+X+X+X+X+X+X+X+X+X+X+X+X+X+X+X+X+X+X+X+X+X+X+X+X",
"+X+X+X+X+X+X+X+X+X+X+X+X+X+X+X+X+X+X+X+X+X+X+X+X+X+X+X+X+X+X+X",
"+X+X+X+X+X+X+X+X+X+X+X+X+X+X+X+X+X+X+X+X+X+X+X+X+X+X+X+X+X+X+X",
"+X+X+X+X+X+X+X+X+X+X+X+X+X+X+X+X+X+X+X+X+X+X+X+X+X+X+X+X+X+X+X",
"+X+X+X+X+X+X+X+X+X+X+X+X+X+X+X+X+X+X+X+X+X+X+X+X+X+X+X+X+X+X+X",
"+X+X+X+X+X+X+X+X+X+X+X+X+X+X+X+X+X+X+X+X+X+X+X+X+X+X+X+X+X+X+X",
"+X+X+X+X+X+X+X+X+X+X+X+X+X+X+X+X+X+X+X+X+X+X+X+X+X+X+X+X+X+X+X",
"+X+X+X+X+X+X+X+X+X+X+X+X+X+X+X+X+X+X+X+X+X+X+X+X+X+X+X+X+X+X+X"
};
