/* XPM */
static char *navcoin16[] = {
/* columns rows colors chars-per-pixel */
"16 16 74 1 ",
"  c #125FFB",
". c #1171FC",
"X c #1970FB",
"o c #3668F7",
"O c #745DF0",
"+ c #497FF5",
"@ c #4B7EF4",
"# c #527EF2",
"$ c #5178F4",
"% c #517EF4",
"& c #5B7EF2",
"* c #6A6CEF",
"= c #7573EF",
"- c #7474EF",
"; c #6473F0",
": c #6C74F0",
"> c #6E76F0",
", c #BE2EBF",
"< c #AE3BBB",
"1 c #BD30B7",
"2 c #B735B8",
"3 c #B237BF",
"4 c #D41FBC",
"5 c #C72AB4",
"6 c #C02FB6",
"7 c #C42CB5",
"8 c #C928B4",
"9 c #CC24BF",
"0 c #A83EC4",
"q c #BF26DE",
"w c #A63ADE",
"e c #B232D3",
"r c #8D3FF4",
"t c #9F36F4",
"y c #AF30E2",
"u c #AC31E4",
"i c #AB32E8",
"p c #A038F1",
"a c #DF13CF",
"s c #D51AD2",
"d c #D518D9",
"f c #C525D4",
"g c #C522DE",
"h c #964DE7",
"j c #9243ED",
"k c #915BE4",
"l c #8766E7",
"z c #1188F8",
"x c #1188FC",
"c c #2684FA",
"v c #3B8BF6",
"b c #308EF8",
"n c #12A2F8",
"m c #12A0FB",
"M c #16B1FA",
"N c #11B7F9",
"B c #13B6FA",
"V c #15C3FB",
"C c #12C5FB",
"Z c #18C4FB",
"A c #16CBFC",
"S c #13CEFC",
"D c #13D1FC",
"F c #17D0FC",
"G c #12D6FC",
"H c #14D6FD",
"J c #18D4FD",
"K c #12DDFD",
"L c #12DFFD",
"P c #15DDFD",
"I c #18D8FC",
"U c #13E3FE",
"Y c #13E6FE",
"T c None",
/* pixels */
"TTTTTTTTTTTTTTTT",
"TTTTTTTTTTTTTTTT",
"TTTTTTTTTTTTTTTT",
"TTTTTTTTTTTTTTTT",
"TTTTitrOTTTIPUYT",
"TTTTupj*#TTJHLUT",
"TTTqywh;@TTFDKTT",
"TTTge0k:+vZASGTT",
"TTdf3<l=%bMVCTTT",
"TTs,2TT-&cmBNTTT",
"Ta961TT>$XxnTTTT",
"T4857TTTo .zTTTT",
"TTTTTTTTTTTTTTTT",
"TTTTTTTTTTTTTTTT",
"TTTTTTTTTTTTTTTT",
"TTTTTTTTTTTTTTTT"
};
