/* XPM */
static char *d775a2ecbebd480eb6c1dcbc49801175[] = {
/* columns rows colors chars-per-pixel */
"64 64 235 2 ",
"   c #173CB4",
".  c #1A39B2",
"X  c #223DB6",
"o  c #5734A6",
"O  c #5E34A5",
"+  c #5C39A9",
"@  c #663EA9",
"#  c #693CAE",
"$  c #0F4ABD",
"%  c #1640B7",
"&  c #1245BA",
"*  c #1C47BA",
"=  c #124ABD",
"-  c #2444B7",
";  c #2D4FBC",
":  c #2C52BD",
">  c #5D40AD",
",  c #6F45AB",
"<  c #6F4AAF",
"1  c #7546AB",
"2  c #7D47AF",
"3  c #7248AD",
"4  c #644AB3",
"5  c #794CB3",
"6  c #7D4BBD",
"7  c #6552B7",
"8  c #6D51B3",
"9  c #6A55B9",
"0  c #6C5CBB",
"q  c #7C54B2",
"w  c #775CB7",
"e  c #7D59B5",
"r  c #7950BF",
"t  c #755DB9",
"y  c #6D61BE",
"u  c #0C4EC0",
"i  c #0B52C2",
"p  c #0E5BC6",
"a  c #1051C0",
"s  c #2955C0",
"d  c #2259C2",
"f  c #285DC4",
"g  c #3953C3",
"h  c #365DC3",
"j  c #3A58C1",
"k  c #0E63CB",
"l  c #2463C7",
"z  c #2B64C8",
"x  c #216ECE",
"c  c #3B64C5",
"v  c #2A72CE",
"b  c #3F7CD2",
"n  c #7B5AC3",
"m  c #4067C5",
"M  c #4B67CB",
"N  c #436CCA",
"B  c #486BCC",
"V  c #4170CA",
"C  c #4B76D0",
"Z  c #4E7BD6",
"A  c #5676D4",
"S  c #5D73D3",
"D  c #537AD5",
"F  c #5878D4",
"G  c #6F65C3",
"H  c #7A64C2",
"J  c #706AC3",
"K  c #7D6BC9",
"L  c #7F73CD",
"P  c #6374D3",
"I  c #6877D3",
"U  c #627CD6",
"Y  c #6E7DD6",
"T  c #657BD9",
"R  c #6F7FD9",
"E  c #7077D4",
"W  c #7D77D3",
"Q  c #747CD5",
"!  c #7A7AD5",
"~  c #747ED8",
"^  c #7D7DDB",
"/  c #BF2EB8",
"(  c #AB3CBD",
")  c #B435BB",
"_  c #BA31B9",
"`  c #B238BC",
"'  c #CA25B5",
"]  c #C42AB6",
"[  c #C929B6",
"{  c #D623B5",
"}  c #D529BB",
"|  c #C336BA",
" . c #CE3FBF",
".. c #D336BD",
"X. c #D23BBD",
"o. c #8150AF",
"O. c #8D4FBA",
"+. c #904DB6",
"@. c #8756B3",
"#. c #8C54B3",
"$. c #8258B4",
"%. c #8B54BE",
"&. c #9252B4",
"*. c #A441BE",
"=. c #AC44BF",
"-. c #B344BF",
";. c #BB44BF",
":. c #C441BF",
">. c #AC3EC1",
",. c #D33EC2",
"<. c #8F4FC7",
"1. c #9D45C1",
"2. c #944BC4",
"3. c #9A49C3",
"4. c #964FCA",
"5. c #9E4BC9",
"6. c #8752C6",
"7. c #8E51C5",
"8. c #8B54CA",
"9. c #8B5DCB",
"0. c #9553C6",
"q. c #9D54C3",
"w. c #9B5BC6",
"e. c #9252CA",
"r. c #9D5ECA",
"t. c #A442C1",
"y. c #AA43C7",
"u. c #AC4FC5",
"i. c #B54EC4",
"p. c #BC4AC3",
"a. c #A352C4",
"s. c #AC55C6",
"d. c #A559C7",
"f. c #AD57C9",
"g. c #A45AC8",
"h. c #AF58CC",
"j. c #B251C6",
"k. c #B950C7",
"l. c #B356CB",
"z. c #BD51CB",
"x. c #8A68CD",
"c. c #8972CD",
"v. c #8B6ED1",
"b. c #8373D2",
"n. c #8A72D3",
"m. c #8279D5",
"M. c #8C7AD2",
"N. c #817AD9",
"B. c #907ED5",
"V. c #C445C1",
"C. c #CB42C2",
"Z. c #C049C4",
"A. c #C948C7",
"S. c #C54BC8",
"D. c #D142C4",
"F. c #2586DE",
"G. c #2B84D9",
"H. c #3285D9",
"J. c #398FDE",
"K. c #3390DE",
"L. c #3E97DF",
"P. c #2D95E0",
"I. c #2C9BE2",
"U. c #329DE3",
"Y. c #3998E1",
"T. c #1DBBED",
"R. c #1CBEF2",
"E. c #2FACE7",
"W. c #2FADE8",
"Q. c #35A4E5",
"!. c #3CA3E4",
"~. c #3AA8E7",
"^. c #37A7ED",
"/. c #3CA7E8",
"(. c #34ABE9",
"). c #3BABEB",
"_. c #24BDE4",
"`. c #25B4EB",
"'. c #2BB3EC",
"]. c #24BBEE",
"[. c #33B2ED",
"{. c #3BB3EA",
"}. c #37BFEF",
"|. c #3CBBEC",
" X c #2EB5F0",
".X c #22BCF2",
"XX c #4B81D6",
"oX c #5080D6",
"OX c #5B83D9",
"+X c #5C8DDC",
"@X c #4596DF",
"#X c #4F90DE",
"$X c #5293DE",
"%X c #6982D6",
"&X c #6585D8",
"*X c #6B83D9",
"=X c #6389DB",
"-X c #6C88DF",
";X c #7B81D7",
":X c #7483DE",
">X c #7980DD",
",X c #449EE2",
"<X c #4A9BE2",
"1X c #4F9FE8",
"2X c #5096E0",
"3X c #5F92E3",
"4X c #5199E3",
"5X c #638EE0",
"6X c #42A2E5",
"7X c #42ABE7",
"8X c #45A6EC",
"9X c #4BA0E9",
"0X c #43ACE8",
"qX c #45B4EA",
"wX c #49B3E9",
"eX c #41B8EB",
"rX c #47B7F0",
"tX c #47B8F0",
"yX c #2AC1DF",
"uX c #3FC8DF",
"iX c #1CC3F5",
"pX c #28C1E4",
"aX c #22C2EC",
"sX c #2FC2EF",
"dX c #3BC6E3",
"fX c #3CC8E7",
"gX c #33C3EE",
"hX c #38C5E9",
"jX c #37CAED",
"kX c #41CAE6",
"lX c #8484D7",
"zX c #8C82D7",
"xX c #8A84D9",
"cX c #9380D7",
"vX c None",
/* pixels */
"vXvXvXvXvXvXvXvXvXvXvXvXvXvXvXvXvXvXvXvXvXvXvXvXvXvXvXvXvXvXvXvXvXvXvXvXvXvXvXvXvXvXvXvXvXvXvXvXvXvXvXvXvXvXvXvXvXvXvXvXvXvXvXvX",
"vXvXvXvXvXvXvXvXvXvXvXvXvXvXvXvXvXvXvXvXvXvXvXvXvXvXvXvXvXvXvXvXvXvXvXvXvXvXvXvXvXvXvXvXvXvXvXvXvXvXvXvXvXvXvXvXvXvXvXvXvXvXvXvX",
"vXvXvXvXvXvXvXvXvXvXvXvXvXvXvXvXvXvXvXvXvXvXvXvXvXvXvXvXvXvXvXvXvXvXvXvXvXvXvXvXvXvXvXvXvXvXvXvXvXvXvXvXvXvXvXvXvXvXvXvXvXvXvXvX",
"vXvXvXvXvXvXvXvXvXvXvXvXvXvXvXvXvXvXvXvXvXvXvXvXvXvXvXvXvXvXvXvXvXvXvXvXvXvXvXvXvXvXvXvXvXvXvXvXvXvXvXvXvXvXvXvXvXvXvXvXvXvXvXvX",
"vXvXvXvXvXvXvXvXvXvXvXvXvXvXvXvXvXvXvXvXvXvXvXvXvXvXvXvXvXvXvXvXvXvXvXvXvXvXvXvXvXvXvXvXvXvXvXvXvXvXvXvXvXvXvXvXvXvXvXvXvXvXvXvX",
"vXvXvXvXvXvXvXvXvXvXvXvXvXvXvXvXvXvXvXvXvXvXvXvXvXvXvXvXvXvXvXvXvXvXvXvXvXvXvXvXvXvXvXvXvXvXvXvXvXvXvXvXvXvXvXvXvXvXvXvXvXvXvXvX",
"vXvXvXvXvXvXvXvXvXvXvXvXvXvXvXvXvXvXvXvXvXvXvXvXvXvXvXvXvXvXvXvXvXvXvXvXvXvXvXvXvXvXvXvXvXvXvXvXvXvXvXvXvXvXvXvXvXvXvXvXvXvXvXvX",
"vXvXvXvXvXvXvXvXvXvXvXvXvXvXvXvXvXvXvXvXvXvXvXvXvXvXvXvXvXvXvXvXvXvXvXvXvXvXvXvXvXvXvXvXvXvXvXvXvXvXvXvXvXvXvXvXvXvXvXvXvXvXvXvX",
"vXvXvXvXvXvXvXvXvXvXvXvXvXvXvXvXvXvXvXvXvXvXvXvXvXvXvXvXvXvXvXvXvXvXvXvXvXvXvXvXvXvXvXvXvXvXvXvXvXvXvXvXvXvXvXvXvXvXvXvXvXvXvXvX",
"vXvXvXvXvXvXvXvXvXvXvXvXvXvXvXvXvXvXvXvXvXvXvXvXvXvXvXvXvXvXvXvXvXvXvXvXvXvXvXvXvXvXvXvXvXvXvXvXvXvXvXvXvXvXvXvXvXvXvXvXvXvXvXvX",
"vXvXvXvXvXvXvXvXvXvXvXvXvXvXvXvXvXvXvXvXvXvXvXvXvXvXvXvXvXvXvXvXvXvXvXvXvXvXvXvXvXvXvXvXvXvXvXvXvXvXvXvXvXvXvXvXvXvXvXvXvXvXvXvX",
"vXvXvXvXvXvXvXvXvXvXvXvXvXvXvXvXvXvXvXvXvXvXvXvXvXvXvXvXvXvXvXvXvXvXvXvXvXvXvXvXvXvXvXvXvXvXvXvXvXvXvXvXvXvXvXvXvXvXvXvXvXvXvXvX",
"vXvXvXvXvXvXvXvXvXvXvXvXvXvXvXvXvXvXvXvXvXvXvXvXvXvXvXvXvXvXvXvXvXvXvXvXvXvXvXvXvXvXvXvXvXvXvXvXvXvXvXvXvXvXvXvXvXvXvXvXvXvXvXvX",
"vXvXvXvXvXvXvXvXvXvXvXvXvXvXvXvXvXvXvXvXvXvXvXvXvXvXvXvXvXvXvXvXvXvXvXvXvXvXvXvXvXvXvXvXvXvXvXvXvXvXvXvXvXvXvXvXvXvXvXvXvXvXvXvX",
"vXvXvXvXvXvXvXvXvXvXvXvXvXvXvXvXvXvXvXvXvXvXvXvXvXvXvXvXvXvXvXvXvXvXvXvXvXvXvXvXvXvXvXvXvXvXvXvXvXvXvXvXvXvXvXvXvXvXvXvXvXvXvXvX",
"vXvXvXvXvXvXvXvXvXvXvXvXvXvXvXvXvXvXvXvXvXvXvXvXvXvXvXvXvXvXvXvXvXvXvXvXvXvXvXvXvXvXvXvXvXvXvXvXvXvXvXvXvXvXvXvXvXvXvXvXvXvXvXvX",
"vXvXvXvXvXvXvXvXvXvXvXvXvXvXvXvXvXvXvXvXvXvXvXvXvXvXvXvXvXvXvXvXvXvXvXvXvXvXvXvXvXvXvXvXvXvXvXvXvXvXvXvXvXvXvXvXvXvXvXvXvXvXvXvX",
"vXvXvXvXvXvXvXvXvXvXvXvXvXvXvXvXvXvXvXvXvXvXvXvXvXvXvXvXvXvXvXvXvXvXvXvXvXvXvXvXvXvXvXvXvXvXvXvXvXvXvXvXvXvXvXvXvXvXvXvXvXvXvXvX",
"vXvXvXvXvXvXvXvXvXvXvXvXvXvXvXvXvXvX&.#.@.$.e e w w t y G J vXvXvXvXvXvXvXvXvXvXvXvXvXvXvXvXvXqXtXeX|.|.}.gXgXhXfXkXuXvXvXvXvXvX",
"vXvXvXvXvXvXvXvXvXvXvXvXvXvXvXvXvXvXa.#.@.$.e e w w y y G W vXvXvXvXvXvXvXvXvXvXvXvXvXvXvXvXvXrXqXeX|.|.gXgXgXhXfXdXvXvXvXvXvXvX",
"vXvXvXvXvXvXvXvXvXvXvXvXvXvXvXvXvXf.h.+.o.$.e e w t 0 0 G xX! vXvXvXvXvXvXvXvXvXvXvXvXvXvXvX).qXqXeX|.|.gXgXgXhXjXyXvXvXvXvXvXvX",
"vXvXvXvXvXvXvXvXvXvXvXvXvXvXvXvXvXs.h.q.2 o.e e w w 0 7 b.zX^ vXvXvXvXvXvXvXvXvXvXvXvXvXvXvX).qXqXeX|.|.}.gXgXhXpXvXvXvXvXvXvXvX",
"vXvXvXvXvXvXvXvXvXvXvXvXvXvXvXvXvXl.s.d.O.1 q e w t 7 0 zXzX;XQ vXvXvXvXvXvXvXvXvXvXvXvXvX/.).wXqXeX|.|.}.gXsXaX_.vXvXvXvXvXvXvX",
"vXvXvXvXvXvXvXvXvXvXvXvXvXvXvXvXi.l.s.d.w.2 3 w w 8 4 K zXlX^ >XvXvXvXvXvXvXvXvXvXvXvXvXvX/.7XqXqXeX|.|.}.sX.XaXvXvXvXvXvXvXvXvX",
"vXvXvXvXvXvXvXvXvXvXvXvXvXvXvXvXf.j.d.d.r.%., < 8 4 9 M.zXzX;XQ R vXvXvXvXvXvXvXvXvXvXvX6X)./.wXqXeX|.}.}.aXiX_.vXvXvXvXvXvXvXvX",
"vXvXvXvXvXvXvXvXvXvXvXvXvXvXvXi.z.s.s.d.g.r.5 , o 4 H cXzXzXlXQ :XvXvXvXvXvXvXvXvXvXvXvX6X/.7XwXqXeX|.|.].T.R.vXvXvXvXvXvXvXvXvX",
"vXvXvXvXvXvXvXvXvXvXvXvXvXvXvXi.i.s.d.d.r.r.6.O o + c.cXzXzXlXQ :X*XvXvXvXvXvXvXvXvXvX6X8X!.7XqXwXeX|.'.T.iXT.vXvXvXvXvXvXvXvXvX",
"vXvXvXvXvXvXvXvXvXvXvXvXvXvXp.z.j.j.f.d.g.w.7.# o 4 c.B.zXzXlXQ R :X%XvXvXvXvXvXvXvXvX9X/.!.7XwXqXeX[.`.T.R.vXvXvXvXvXvXvXvXvXvX",
"vXvXvXvXvXvXvXvXvXvXvXvXvXvXp.k.j.f.s.d.r.0.<.6 + n v.b.zXzXlX;X:X*X*XvXvXvXvXvXvXvX<X8X6X!.0XwXqX{.`.`.R.T.vXvXvXvXvXvXvXvXvXvX",
"vXvXvXvXvXvXvXvXvXvXvXvXvXvXz.i.j.j.s.d.q.2.7.6.n x.v.b.m.xXlX! Y *X-X&XvXvXvXvXvXvX<X6X!.!.0XwX{.W.`.`..XvXvXvXvXvXvXvXvXvXvXvX",
"vXvXvXvXvXvXvXvXvXvXvXvXvXp.Z.i.j.j.d.q.2.2.<.8.9.v.v.v.b.m.lX;XY *X*X5XvXvXvXvXvX<X9X,X,X!.0XqXE.'.`.].`.vXvXvXvXvXvXvXvXvXvXvX",
"vXvXvXvXvXvXvXvXvXvXvXvXvXZ.p.i.j.s.a.1.2.2.<.8.vXv.n.n.b.W ;X;XR *X*X=X=XvXvXvXvX<X,X,X!.!.0X~.E.'.'.].vXvXvXvXvXvXvXvXvXvXvXvX",
"vXvXvXvXvXvXvXvXvXvXvXvXZ.S.;.i.j.j.1.1.2.2.e.8.vXvXn.n.W W ! ! Q *X*X=X5XvXvXvX4X1X<X,X!.!.~.(.E.'.`.`.vXvXvXvXvXvXvXvXvXvXvXvX",
"vXvXvXvXvXvXvXvXvXvXvXvX:.p.i.i.u.t.1.1.2.2.e.vXvXvXvXn.L W ! E I *X*X=X5X+XvXvX4X4X<X,XY.I.Q.(.E.W.].vXvXvXvXvXvXvXvXvXvXvXvXvX",
"vXvXvXvXvXvXvXvXvXvXvXA.A.:.p.i.=.t.1.1.2.4.7.vXvXvXvXb.b.W W E P I %X&X=X3XvXvX4X<X<X,XU.I.Q.(.E. X'.vXvXvXvXvXvXvXvXvXvXvXvXvX",
"vXvXvXvXvXvXvXvXvXvXvX:.S.p.p.-.( ( 1.1.3.4.vXvXvXvXvXvXb.W E Q P S F =X+X3X+X$X4X@X,XY.P.I.Q.(.W. XvXvXvXvXvXvXvXvXvXvXvXvXvXvX",
"vXvXvXvXvXvXvXvXvXvXvXA.:.;.;.( *.t.1.1.3.<.vXvXvXvXvXvXb.N.! Q P S F OX=X+XoXXX$X<XL.K.P.I.~.(.[.W.vXvXvXvXvXvXvXvXvXvXvXvXvXvX",
"vXvXvXvXvXvXvXvXvXvX:.C.:.;.` ( ( t.1.1.5.vXvXvXvXvXvXvXvXN.! Q I S F D OXOXV V #X@XK.P.I.I.~.(.[.vXvXvXvXvXvXvXvXvXvXvXvXvXvXvX",
"vXvXvXvXvXvXvXvXvXvXD.:.;.) ) ` ( >.1.1.4.vXvXvXvXvXvXvXvXW ^ Q I S A D Z C m V b J.K.P.P.I.^.(.W.vXvXvXvXvXvXvXvXvXvXvXvXvXvXvX",
"vXvXvXvXvXvXvXvXvX,.D.:._ ) ) ( ( >.1.5.3.vXvXvXvXvXvXvXvXvX! ~ I S A D Z h c c z H.K.P.I.I./.[.vXvXvXvXvXvXvXvXvXvXvXvXvXvXvXvX",
"vXvXvXvXvXvXvXvXvX,.C._ _ ) ` ( *.1.1.5.vXvXvXvXvXvXvXvXvXvX! >XY S A D N : s s f v K.P.P.U.^.(.vXvXvXvXvXvXvXvXvXvXvXvXvXvXvXvX",
"vXvXvXvXvXvXvXvXvX,.| ] _ ) ` ` ( >.t.1.vXvXvXvXvXvXvXvXvXvXvX~ R P A D h : * $ d l H.K.P.Q.{.vXvXvXvXvXvXvXvXvXvXvXvXvXvXvXvXvX",
"vXvXvXvXvXvXvXvXX...] / _ _ ` ( *.>.5.vXvXvXvXvXvXvXvXvXvXvXvXvX:XS A B : * & & u d v P.P.Q./.vXvXvXvXvXvXvXvXvXvXvXvXvXvXvXvXvX",
"vXvXvXvXvXvXvXvX..[ ] / _ _ ` ( ( 1.1.vXvXvXvXvXvXvXvXvXvXvXvXvXR P A j -   & & $ u l G.I.^.vXvXvXvXvXvXvXvXvXvXvXvXvXvXvXvXvXvX",
"vXvXvXvXvXvXvX..} ' ] / _ _ ` ` ( y.vXvXvXvXvXvXvXvXvXvXvXvXvXvXvXT M -   % % = $ u i x I.Q.vXvXvXvXvXvXvXvXvXvXvXvXvXvXvXvXvXvX",
"vXvXvXvXvXvXvX{ ' ' ] / _ _ ` ( >.t.vXvXvXvXvXvXvXvXvXvXvXvXvXvXvXP g .   % & & $ u i p F.vXvXvXvXvXvXvXvXvXvXvXvXvXvXvXvXvXvXvX",
"vXvXvXvXvXvX{ { ' ' ] / _ ) ` ( >.*.vXvXvXvXvXvXvXvXvXvXvXvXvXvXvXvXX .   % & = $ u i i k vXvXvXvXvXvXvXvXvXvXvXvXvXvXvXvXvXvXvX",
"vXvXvXvXvXvXvXvXvXvXvXvXvXvXvXvXvXvXvXvXvXvXvXvXvXvXvXvXvXvXvXvXvXvXvXvXvXvXvXvXvXvXvXvXvXvXvXvXvXvXvXvXvXvXvXvXvXvXvXvXvXvXvXvX",
"vXvXvXvXvXvXvXvXvXvXvXvXvXvXvXvXvXvXvXvXvXvXvXvXvXvXvXvXvXvXvXvXvXvXvXvXvXvXvXvXvXvXvXvXvXvXvXvXvXvXvXvXvXvXvXvXvXvXvXvXvXvXvXvX",
"vXvXvXvXvXvXvXvXvXvXvXvXvXvXvXvXvXvXvXvXvXvXvXvXvXvXvXvXvXvXvXvXvXvXvXvXvXvXvXvXvXvXvXvXvXvXvXvXvXvXvXvXvXvXvXvXvXvXvXvXvXvXvXvX",
"vXvXvXvXvXvXvXvXvXvXvXvXvXvXvXvXvXvXvXvXvXvXvXvXvXvXvXvXvXvXvXvXvXvXvXvXvXvXvXvXvXvXvXvXvXvXvXvXvXvXvXvXvXvXvXvXvXvXvXvXvXvXvXvX",
"vXvXvXvXvXvXvXvXvXvXvXvXvXvXvXvXvXvXvXvXvXvXvXvXvXvXvXvXvXvXvXvXvXvXvXvXvXvXvXvXvXvXvXvXvXvXvXvXvXvXvXvXvXvXvXvXvXvXvXvXvXvXvXvX",
"vXvXvXvXvXvXvXvXvXvXvXvXvXvXvXvXvXvXvXvXvXvXvXvXvXvXvXvXvXvXvXvXvXvXvXvXvXvXvXvXvXvXvXvXvXvXvXvXvXvXvXvXvXvXvXvXvXvXvXvXvXvXvXvX",
"vXvXvXvXvXvXvXvXvXvXvXvXvXvXvXvXvXvXvXvXvXvXvXvXvXvXvXvXvXvXvXvXvXvXvXvXvXvXvXvXvXvXvXvXvXvXvXvXvXvXvXvXvXvXvXvXvXvXvXvXvXvXvXvX",
"vXvXvXvXvXvXvXvXvXvXvXvXvXvXvXvXvXvXvXvXvXvXvXvXvXvXvXvXvXvXvXvXvXvXvXvXvXvXvXvXvXvXvXvXvXvXvXvXvXvXvXvXvXvXvXvXvXvXvXvXvXvXvXvX",
"vXvXvXvXvXvXvXvXvXvXvXvXvXvXvXvXvXvXvXvXvXvXvXvXvXvXvXvXvXvXvXvXvXvXvXvXvXvXvXvXvXvXvXvXvXvXvXvXvXvXvXvXvXvXvXvXvXvXvXvXvXvXvXvX",
"vXvXvXvXvXvXvXvXvXvXvXvXvXvXvXvXvXvXvXvXvXvXvXvXvXvXvXvXvXvXvXvXvXvXvXvXvXvXvXvXvXvXvXvXvXvXvXvXvXvXvXvXvXvXvXvXvXvXvXvXvXvXvXvX",
"vXvXvXvXvXvXvXvXvXvXvXvXvXvXvXvXvXvXvXvXvXvXvXvXvXvXvXvXvXvXvXvXvXvXvXvXvXvXvXvXvXvXvXvXvXvXvXvXvXvXvXvXvXvXvXvXvXvXvXvXvXvXvXvX",
"vXvXvXvXvXvXvXvXvXvXvXvXvXvXvXvXvXvXvXvXvXvXvXvXvXvXvXvXvXvXvXvXvXvXvXvXvXvXvXvXvXvXvXvXvXvXvXvXvXvXvXvXvXvXvXvXvXvXvXvXvXvXvXvX",
"vXvXvXvXvXvXvXvXvXvXvXvXvXvXvXvXvXvXvXvXvXvXvXvXvXvXvXvXvXvXvXvXvXvXvXvXvXvXvXvXvXvXvXvXvXvXvXvXvXvXvXvXvXvXvXvXvXvXvXvXvXvXvXvX",
"vXvXvXvXvXvXvXvXvXvXvXvXvXvXvXvXvXvXvXvXvXvXvXvXvXvXvXvXvXvXvXvXvXvXvXvXvXvXvXvXvXvXvXvXvXvXvXvXvXvXvXvXvXvXvXvXvXvXvXvXvXvXvXvX",
"vXvXvXvXvXvXvXvXvXvXvXvXvXvXvXvXvXvXvXvXvXvXvXvXvXvXvXvXvXvXvXvXvXvXvXvXvXvXvXvXvXvXvXvXvXvXvXvXvXvXvXvXvXvXvXvXvXvXvXvXvXvXvXvX",
"vXvXvXvXvXvXvXvXvXvXvXvXvXvXvXvXvXvXvXvXvXvXvXvXvXvXvXvXvXvXvXvXvXvXvXvXvXvXvXvXvXvXvXvXvXvXvXvXvXvXvXvXvXvXvXvXvXvXvXvXvXvXvXvX",
"vXvXvXvXvXvXvXvXvXvXvXvXvXvXvXvXvXvXvXvXvXvXvXvXvXvXvXvXvXvXvXvXvXvXvXvXvXvXvXvXvXvXvXvXvXvXvXvXvXvXvXvXvXvXvXvXvXvXvXvXvXvXvXvX"
};
