/* XPM */
static char *navcoin64[] = {
/* columns rows colors chars-per-pixel */
"64 64 183 2 ",
"   c #1457FA",
".  c #1B57F9",
"X  c #135CFB",
"o  c #185AFA",
"O  c #1364FB",
"+  c #1D60F9",
"@  c #126CFB",
"#  c #1969FA",
"$  c #0F73FC",
"%  c #0F7FFD",
"&  c #1273FC",
"*  c #117BFC",
"=  c #1E7DFB",
"-  c #2460F8",
";  c #2D62F8",
":  c #326FF7",
">  c #3C6EF6",
",  c #2974F8",
"<  c #7E57EC",
"1  c #775FEC",
"2  c #7D5DEC",
"3  c #7E46F5",
"4  c #754DF5",
"5  c #7A4AF5",
"6  c #5E7CEE",
"7  c #447EF5",
"8  c #4C7CF4",
"9  c #4871F4",
"0  c #5B77F2",
"q  c #537CF2",
"w  c #5C7BF2",
"e  c #6B6EEF",
"r  c #7266ED",
"t  c #746BEE",
"y  c #7C6FED",
"u  c #6375EF",
"i  c #6C75EF",
"p  c #7474EF",
"a  c #7872EE",
"s  c #7178EF",
"d  c #6A6FF0",
"f  c #6374F0",
"g  c #6C74F0",
"h  c #637AF1",
"j  c #6C78F1",
"k  c #7175F0",
"l  c #7078F0",
"z  c #BF2FB6",
"x  c #A73FBD",
"c  c #AC3CBC",
"v  c #BD30B7",
"b  c #B536BA",
"n  c #BA33B8",
"m  c #B138BB",
"M  c #D71CBD",
"N  c #D81CBD",
"B  c #CD26B3",
"V  c #C42CB5",
"C  c #C928B3",
"Z  c #CB25BF",
"A  c #C32BBC",
"S  c #D320BA",
"D  c #A540BE",
"F  c #A83DC5",
"G  c #AD38CA",
"H  c #A63FC4",
"J  c #B632C6",
"K  c #BB2CD3",
"L  c #BE26DF",
"P  c #B52CDF",
"I  c #BA2ADD",
"U  c #A03ED5",
"Y  c #AC34DE",
"T  c #AD3CDD",
"R  c #A83BD5",
"E  c #B130DD",
"W  c #9C3EE6",
"Q  c #983FE8",
"!  c #8E3EF6",
"~  c #9E37F5",
"^  c #933CF4",
"/  c #993AF5",
"(  c #AF2FE3",
")  c #BC27E0",
"_  c #B32DE2",
"`  c #B929E0",
"'  c #A536E5",
"]  c #AB32E3",
"[  c #A33AE5",
"{  c #AC3BE3",
"}  c #A635EB",
"|  c #AB32ED",
" . c #A23AEA",
".. c #AE2EF2",
"X. c #A434F4",
"o. c #AA31F3",
"O. c #A238F2",
"+. c #D81AC6",
"@. c #DD16C9",
"#. c #CC1DDB",
"$. c #DC14D5",
"%. c #D41AD4",
"&. c #D717D9",
"*. c #D916D8",
"=. c #D319DA",
"-. c #E411CC",
";. c #E50ED3",
":. c #E111D4",
">. c #C02BC6",
",. c #CD21CD",
"<. c #C626CA",
"1. c #D120C3",
"2. c #C425D7",
"3. c #C323DE",
"4. c #C920DB",
"5. c #9C50CF",
"6. c #A441C2",
"7. c #A640CD",
"8. c #A347D7",
"9. c #8C44ED",
"0. c #864FE9",
"q. c #8C4BE9",
"w. c #9442E7",
"e. c #9A43E6",
"r. c #9F4CE6",
"t. c #9741E8",
"y. c #8156EB",
"u. c #9654E7",
"i. c #945AE9",
"p. c #8443F6",
"a. c #8A42F5",
"s. c #9240F3",
"d. c #A840E3",
"f. c #8767EB",
"g. c #8C63EA",
"h. c #826AEC",
"j. c #0F8EFD",
"k. c #1185F5",
"l. c #118CF5",
"z. c #1083FD",
"x. c #118AFC",
"c. c #0F93F6",
"v. c #0F99F7",
"b. c #0F93FD",
"n. c #1193F6",
"m. c #119CF7",
"M. c #1194FB",
"N. c #129CFA",
"B. c #1F9BFA",
"V. c #2688FA",
"C. c #3E85F7",
"Z. c #3B89F7",
"A. c #3787F8",
"S. c #318CF8",
"D. c #2C9CF4",
"F. c #0FA1F7",
"G. c #0FA7F8",
"H. c #12A3F6",
"J. c #11A9F7",
"K. c #13A3F9",
"L. c #13ACF9",
"P. c #12B3F7",
"I. c #13BBF7",
"U. c #14B4FA",
"Y. c #14BBFA",
"T. c #18BFFB",
"R. c #19B4F8",
"E. c #4382F5",
"W. c #4A81F4",
"Q. c #4189F3",
"!. c #5282F3",
"~. c #5A81F3",
"^. c #14C4FB",
"/. c #19C3FA",
"(. c #14CCFC",
"). c #1ACCFC",
"_. c #14D4FD",
"`. c #19D3FD",
"'. c #14DCFD",
"]. c #18DAFD",
"[. c #13E4FE",
"{. c #13E8FE",
"}. c None",
/* pixels */
"}.}.}.}.}.}.}.}.}.}.}.}.}.}.}.}.}.}.}.}.}.}.}.}.}.}.}.}.}.}.}.}.}.}.}.}.}.}.}.}.}.}.}.}.}.}.}.}.}.}.}.}.}.}.}.}.}.}.}.}.}.}.}.}.",
"}.}.}.}.}.}.}.}.}.}.}.}.}.}.}.}.}.}.}.}.}.}.}.}.}.}.}.}.}.}.}.}.}.}.}.}.}.}.}.}.}.}.}.}.}.}.}.}.}.}.}.}.}.}.}.}.}.}.}.}.}.}.}.}.",
"}.}.}.}.}.}.}.}.}.}.}.}.}.}.}.}.}.}.}.}.}.}.}.}.}.}.}.}.}.}.}.}.}.}.}.}.}.}.}.}.}.}.}.}.}.}.}.}.}.}.}.}.}.}.}.}.}.}.}.}.}.}.}.}.",
"}.}.}.}.}.}.}.}.}.}.}.}.}.}.}.}.}.}.}.}.}.}.}.}.}.}.}.}.}.}.}.}.}.}.}.}.}.}.}.}.}.}.}.}.}.}.}.}.}.}.}.}.}.}.}.}.}.}.}.}.}.}.}.}.",
"}.}.}.}.}.}.}.}.}.}.}.}.}.}.}.}.}.}.}.}.}.}.}.}.}.}.}.}.}.}.}.}.}.}.}.}.}.}.}.}.}.}.}.}.}.}.}.}.}.}.}.}.}.}.}.}.}.}.}.}.}.}.}.}.",
"}.}.}.}.}.}.}.}.}.}.}.}.}.}.}.}.}.}.}.}.}.}.}.}.}.}.}.}.}.}.}.}.}.}.}.}.}.}.}.}.}.}.}.}.}.}.}.}.}.}.}.}.}.}.}.}.}.}.}.}.}.}.}.}.",
"}.}.}.}.}.}.}.}.}.}.}.}.}.}.}.}.}.}.}.}.}.}.}.}.}.}.}.}.}.}.}.}.}.}.}.}.}.}.}.}.}.}.}.}.}.}.}.}.}.}.}.}.}.}.}.}.}.}.}.}.}.}.}.}.",
"}.}.}.}.}.}.}.}.}.}.}.}.}.}.}.}.}.}.}.}.}.}.}.}.}.}.}.}.}.}.}.}.}.}.}.}.}.}.}.}.}.}.}.}.}.}.}.}.}.}.}.}.}.}.}.}.}.}.}.}.}.}.}.}.",
"}.}.}.}.}.}.}.}.}.}.}.}.}.}.}.}.}.}.}.}.}.}.}.}.}.}.}.}.}.}.}.}.}.}.}.}.}.}.}.}.}.}.}.}.}.}.}.}.}.}.}.}.}.}.}.}.}.}.}.}.}.}.}.}.",
"}.}.}.}.}.}.}.}.}.}.}.}.}.}.}.}.}.}.}.}.}.}.}.}.}.}.}.}.}.}.}.}.}.}.}.}.}.}.}.}.}.}.}.}.}.}.}.}.}.}.}.}.}.}.}.}.}.}.}.}.}.}.}.}.",
"}.}.}.}.}.}.}.}.}.}.}.}.}.}.}.}.}.}.}.}.}.}.}.}.}.}.}.}.}.}.}.}.}.}.}.}.}.}.}.}.}.}.}.}.}.}.}.}.}.}.}.}.}.}.}.}.}.}.}.}.}.}.}.}.",
"}.}.}.}.}.}.}.}.}.}.}.}.}.}.}.}.}.}.}.}.}.}.}.}.}.}.}.}.}.}.}.}.}.}.}.}.}.}.}.}.}.}.}.}.}.}.}.}.}.}.}.}.}.}.}.}.}.}.}.}.}.}.}.}.",
"}.}.}.}.}.}.}.}.}.}.}.}.}.}.}.}.}.}.}.}.}.}.}.}.}.}.}.}.}.}.}.}.}.}.}.}.}.}.}.}.}.}.}.}.}.}.}.}.}.}.}.}.}.}.}.}.}.}.}.}.}.}.}.}.",
"}.}.}.}.}.}.}.}.}.}.}.}.}.}.}.}.}.}.}.}.}.}.}.}.}.}.}.}.}.}.}.}.}.}.}.}.}.}.}.}.}.}.}.}.}.}.}.}.}.}.}.}.}.}.}.}.}.}.}.}.}.}.}.}.",
"}.}.}.}.}.}.}.}.}.}.}.}.}.}.}.}.}.}.| o.O.O./ / s.a.a.p.5 4 4 }.}.}.}.}.}.}.}.}.}.}.}.}.}.}.}.}.].].].[.].{.[.[.{.[.{.{.{.}.}.}.",
"}.}.}.}.}.}.}.}.}.}.}.}.}.}.}.}.}.{ ..o.X.X.~ / ^ a.a.p.3 5 5 e }.}.}.}.}.}.}.}.}.}.}.}.}.}.}.].].[.].[.[.[.{.{.{.{.{.{.{.}.}.}.",
"}.}.}.}.}.}.}.}.}.}.}.}.}.}.}.}.}.] | o.o.X.~ / ^ ! ! 3 3 3 < u h }.}.}.}.}.}.}.}.}.}.}.}.}.].].[.[.[.[.[.[.[.[.{.{.{.{.{.}.}.}.",
"}.}.}.}.}.}.}.}.}.}.}.}.}.}.}.}.Y ] | ..X.X.~ / ^ ! ! 3 3 9.r 6 6 }.}.}.}.}.}.}.}.}.}.}.}.}.].'.].].[.].[.[.[.[.[.[.{.{.}.}.}.}.",
"}.}.}.}.}.}.}.}.}.}.}.}.}.}.}.}.] ] ' | X.X.~ / ^ ! ! 3 9.0.u 0 w }.}.}.}.}.}.}.}.}.}.}.}.}.].].].[.].[.[.[.[.[.[.{.{.{.}.}.}.}.",
"}.}.}.}.}.}.}.}.}.}.}.}.}.}.}.E _ ] ' } X.~ ~ / ^ ! p.9.w.1 0 u w q }.}.}.}.}.}.}.}.}.}.}.`.`.].].].].].'.'.[.[.[.[.[.}.}.}.}.}.",
"}.}.}.}.}.}.}.}.}.}.}.}.}.}.}._ ( ( ' ' o.X.~ / ^ ! 9.w.w.e u 0 q !.}.}.}.}.}.}.}.}.}.}.}.].].`.].].'.'.'.'.'.[.[.[.[.}.}.}.}.}.",
"}.}.}.}.}.}.}.}.}.}.}.}.}.}.I _ ( ( ' ' } X./ / ^ ! Q Q y.u u u q q !.}.}.}.}.}.}.}.}.}.`.`.`._.`.`._.'.'.'.'.[.[.[.}.}.}.}.}.}.",
"}.}.}.}.}.}.}.}.}.}.}.}.}.}.I ` _ ( ] [  .O.~ / ^ e.e.w.r u f 0 q 8 W.}.}.}.}.}.}.}.}.}.`.`.`.`._._._.'.'.'.[.[.[.[.}.}.}.}.}.}.",
"}.}.}.}.}.}.}.}.}.}.}.}.}.}.) ` _ ( ] ' [ ~ X.~  .W W q.e u u 0 q q W.W.}.}.}.}.}.}.}.).`.`.`._._._._._.'.'.[.[.[.[.}.}.}.}.}.}.",
"}.}.}.}.}.}.}.}.}.}.}.}.}.3.) ) _ ( ( ' [ W X. .{ [ e.2 d f f 0 q 8 W.W.}.}.}.}.}.}.}.).].`.`.(.(._._._.'.'.'.[.[.}.}.}.}.}.}.}.",
"}.}.}.}.}.}.}.}.}.}.}.}.}.3.L ) ` ( ( ' ' W ' { { { e.t d f f 0 8 8 W.E.}.}.}.}.}.}.}.).`.`.].(.(.(.(._.'.[.'.[.'.}.}.}.}.}.}.}.",
"}.}.}.}.}.}.}.}.}.}.}.}.3.3.L ) ` ( ( '  .U 7.{ { { u.t d f f 0 q 8 W.E.Q.}.}.}.}.}.).).).`._.(.(.(.(.'.'.'.[.[.}.}.}.}.}.}.}.}.",
"}.}.}.}.}.}.}.}.}.}.}.}.4.3.3.) ` ( ( ( U 6.6.T { d.g.h.p f f 0 8 8 W.E.E.}.}.}.}.}.).).`._.`.^.(.(.(.'.'.'.[.'.}.}.}.}.}.}.}.}.",
"}.}.}.}.}.}.}.}.}.}.}.}.#.3.3.) ` _ ( Y H x H G { d.f.h.a g 0 0 8 8 E.E.E.Q.}.}.}./.).).(._._.^.^.(.'._.'.'.'._.}.}.}.}.}.}.}.}.",
"}.}.}.}.}.}.}.}.}.}.}.#.#.3.3.L ` _ ( F x x x F d.i.f.h.y k f 0 8 8 7 E.C.C.}.}.}.T./.).(.(._.^.^.(._._._.'.'.}.}.}.}.}.}.}.}.}.",
"}.}.}.}.}.}.}.}.}.}.}.#.#.4.3.L ` _ G c x x x x 8.g.f.h.y a g 0 8 8 E.E.C.Z.}.}.}.T./.^.(.(._.^.(.(.(._._._._.}.}.}.}.}.}.}.}.}.",
"}.}.}.}.}.}.}.}.}.}.=.=.#.4.3.L ` J c c c x c x 5.g.f.h.y a p j 8 7 E.Q.C.Z.Z.}.R.T.^.^.(.(.(.^.^.(.(.(._._.}.}.}.}.}.}.}.}.}.}.",
"}.}.}.}.}.}.}.}.}.}.=.=.#.4.3.2.K b b D b D b D }.g.h.h.h.a p l q 7 7 C.C.A.A.D.R.R.R.^.^.^.(.^.^.^.(.(._.(.}.}.}.}.}.}.}.}.}.}.",
"}.}.}.}.}.}.}.}.}.*.=.=.#.4.3.2.J b D b D b D }.}.}.f.h.a a p l h 8 7 C.C.C.A.B.L.R.R.T.T.).(.^.^.^.^.(.(.}.}.}.}.}.}.}.}.}.}.}.",
"}.}.}.}.}.}.}.}.}.*.&.=.=.#.<.J D b b D b b D }.}.}.h.h.h.p a l h w E.C.Z.Z.S.N.K.R.U.T.T.^.(.Y.Y.^.^.^.^.}.}.}.}.}.}.}.}.}.}.}.",
"}.}.}.}.}.}.}.}.}.:.&.=.#.4.>.D b b b b D b D }.}.}.h.h.h.p a l h w ~.E.Z.Z.V.b.N.L.L.U.T.^.^.Y.Y.^.^.^.^.}.}.}.}.}.}.}.}.}.}.}.",
"}.}.}.}.}.}.}.}.*.*.&.=.#.>.b n b b D V b b }.}.}.}.}.h.y k l l j ~.~.!.E.A.x.M.M.K.L.U.Y.Y.^.Y.Y.Y.Y.^.}.}.}.}.}.}.}.}.}.}.}.}.",
"}.}.}.}.}.}.}.}.:.*.*.=.<.b n b n b V D n D }.}.}.}.}.h.y a a l h ~.~.!.W.V.z.x.M.N.L.R.Y.Y.Y.U.P.P.Y.Y.}.}.}.}.}.}.}.}.}.}.}.}.",
"}.}.}.}.}.}.}.:.:.*.*.,.b V n n n n n b b }.}.}.}.}.}.}.y a l l h ~.~.~.W., * z.x.M.L.L.U.Y.Y.J.P.P.Y.}.}.}.}.}.}.}.}.}.}.}.}.}.",
"}.}.}.}.}.}.}.:.:.:.%.A n V n b n n n n b }.}.}.}.}.}.}.y a l l j ~.~.~.E.& * z.x.M.N.L.L.U.U.J.P.P.P.}.}.}.}.}.}.}.}.}.}.}.}.}.",
"}.}.}.}.}.}.:.:.:.%.A V V b b V n n n n n }.}.}.}.}.}.}.}.p k j h w ~.~., & & * z.x.N.K.L.L.L.L.J.L.}.}.}.}.}.}.}.}.}.}.}.}.}.}.",
"}.}.}.}.}.}.:.;.:.Z V V V V V b n V n n }.}.}.}.}.}.}.}.}.p g j h ~.~.7 # @ & * * z.x.N.K.L.G.F.G.J.}.}.}.}.}.}.}.}.}.}.}.}.}.}.",
"}.}.}.}.}.}.:.;.1.V V V V b V V V n n n }.}.}.}.}.}.}.}.}.p g j w w ~.: O O @ $ * z.z.M.N.H.H.m.F.H.}.}.}.}.}.}.}.}.}.}.}.}.}.}.",
"}.}.}.}.}.;.;.1.C V V V V V V V V V V }.}.}.}.}.}.}.}.}.}.}.i f h w q + X O @ $ & * * x.n.N.m.v.v.}.}.}.}.}.}.}.}.}.}.}.}.}.}.}.",
"}.}.}.}.}.;.-.B C C V V C V V V V V V }.}.}.}.}.}.}.}.}.}.}.i h w ~.>   X O O O @ & % % x.n.n.c.m.}.}.}.}.}.}.}.}.}.}.}.}.}.}.}.",
"}.}.}.}.;.-.B C C C C C C V V V V V }.}.}.}.}.}.}.}.}.}.}.}.}.g h q -     X O O @ @ & $ z.n.n.n.}.}.}.}.}.}.}.}.}.}.}.}.}.}.}.}.",
"}.}.}.}.-.S B B C B C C C V V C V V }.}.}.}.}.}.}.}.}.}.}.}.}.h w 9     X X O X O @ $ $ * k.l.l.}.}.}.}.}.}.}.}.}.}.}.}.}.}.}.}.",
"}.}.}.-.S B B B B B B C C C C C V V }.}.}.}.}.}.}.}.}.}.}.}.}.}.w ;       X O O O O @ $ & % k.}.}.}.}.}.}.}.}.}.}.}.}.}.}.}.}.}.",
"}.}.}.N B B B B B B B B B B B B C }.}.}.}.}.}.}.}.}.}.}.}.}.}.}.9 .   o X X X O O @ @ @ $ * k.}.}.}.}.}.}.}.}.}.}.}.}.}.}.}.}.}.",
"}.}.}.S B B B B B B B S B B B B }.}.}.}.}.}.}.}.}.}.}.}.}.}.}.}.}.. o o o o O O O @ @ @ @ & }.}.}.}.}.}.}.}.}.}.}.}.}.}.}.}.}.}.",
"}.}.}.}.}.}.}.}.}.}.}.}.}.}.}.}.}.}.}.}.}.}.}.}.}.}.}.}.}.}.}.}.}.}.}.}.}.}.}.}.}.}.}.}.}.}.}.}.}.}.}.}.}.}.}.}.}.}.}.}.}.}.}.}.",
"}.}.}.}.}.}.}.}.}.}.}.}.}.}.}.}.}.}.}.}.}.}.}.}.}.}.}.}.}.}.}.}.}.}.}.}.}.}.}.}.}.}.}.}.}.}.}.}.}.}.}.}.}.}.}.}.}.}.}.}.}.}.}.}.",
"}.}.}.}.}.}.}.}.}.}.}.}.}.}.}.}.}.}.}.}.}.}.}.}.}.}.}.}.}.}.}.}.}.}.}.}.}.}.}.}.}.}.}.}.}.}.}.}.}.}.}.}.}.}.}.}.}.}.}.}.}.}.}.}.",
"}.}.}.}.}.}.}.}.}.}.}.}.}.}.}.}.}.}.}.}.}.}.}.}.}.}.}.}.}.}.}.}.}.}.}.}.}.}.}.}.}.}.}.}.}.}.}.}.}.}.}.}.}.}.}.}.}.}.}.}.}.}.}.}.",
"}.}.}.}.}.}.}.}.}.}.}.}.}.}.}.}.}.}.}.}.}.}.}.}.}.}.}.}.}.}.}.}.}.}.}.}.}.}.}.}.}.}.}.}.}.}.}.}.}.}.}.}.}.}.}.}.}.}.}.}.}.}.}.}.",
"}.}.}.}.}.}.}.}.}.}.}.}.}.}.}.}.}.}.}.}.}.}.}.}.}.}.}.}.}.}.}.}.}.}.}.}.}.}.}.}.}.}.}.}.}.}.}.}.}.}.}.}.}.}.}.}.}.}.}.}.}.}.}.}.",
"}.}.}.}.}.}.}.}.}.}.}.}.}.}.}.}.}.}.}.}.}.}.}.}.}.}.}.}.}.}.}.}.}.}.}.}.}.}.}.}.}.}.}.}.}.}.}.}.}.}.}.}.}.}.}.}.}.}.}.}.}.}.}.}.",
"}.}.}.}.}.}.}.}.}.}.}.}.}.}.}.}.}.}.}.}.}.}.}.}.}.}.}.}.}.}.}.}.}.}.}.}.}.}.}.}.}.}.}.}.}.}.}.}.}.}.}.}.}.}.}.}.}.}.}.}.}.}.}.}.",
"}.}.}.}.}.}.}.}.}.}.}.}.}.}.}.}.}.}.}.}.}.}.}.}.}.}.}.}.}.}.}.}.}.}.}.}.}.}.}.}.}.}.}.}.}.}.}.}.}.}.}.}.}.}.}.}.}.}.}.}.}.}.}.}.",
"}.}.}.}.}.}.}.}.}.}.}.}.}.}.}.}.}.}.}.}.}.}.}.}.}.}.}.}.}.}.}.}.}.}.}.}.}.}.}.}.}.}.}.}.}.}.}.}.}.}.}.}.}.}.}.}.}.}.}.}.}.}.}.}.",
"}.}.}.}.}.}.}.}.}.}.}.}.}.}.}.}.}.}.}.}.}.}.}.}.}.}.}.}.}.}.}.}.}.}.}.}.}.}.}.}.}.}.}.}.}.}.}.}.}.}.}.}.}.}.}.}.}.}.}.}.}.}.}.}.",
"}.}.}.}.}.}.}.}.}.}.}.}.}.}.}.}.}.}.}.}.}.}.}.}.}.}.}.}.}.}.}.}.}.}.}.}.}.}.}.}.}.}.}.}.}.}.}.}.}.}.}.}.}.}.}.}.}.}.}.}.}.}.}.}.",
"}.}.}.}.}.}.}.}.}.}.}.}.}.}.}.}.}.}.}.}.}.}.}.}.}.}.}.}.}.}.}.}.}.}.}.}.}.}.}.}.}.}.}.}.}.}.}.}.}.}.}.}.}.}.}.}.}.}.}.}.}.}.}.}.",
"}.}.}.}.}.}.}.}.}.}.}.}.}.}.}.}.}.}.}.}.}.}.}.}.}.}.}.}.}.}.}.}.}.}.}.}.}.}.}.}.}.}.}.}.}.}.}.}.}.}.}.}.}.}.}.}.}.}.}.}.}.}.}.}."
};
