/* XPM */
static char *_d058484da2f4c3ec2b8b4c158b79101[] = {
/* columns rows colors chars-per-pixel */
"15 15 45 1 ",
"  c #284CBF",
". c #7F53B9",
"X c #7464BF",
"o c #1652C5",
"O c #1C70D1",
"+ c #2D6BCF",
"@ c #4769CE",
"# c #7A68C6",
"$ c #6B7BD8",
"% c #717DDC",
"& c #B836BF",
"* c #C92CB9",
"= c #C735BD",
"- c #8450BD",
"; c #835CBA",
": c #BB3BC3",
"> c #9253C7",
", c #9F54C0",
"< c #A841C3",
"1 c #A648C5",
"2 c #A94FC8",
"3 c #BC44C5",
"4 c #B94DC5",
"5 c #AA58CA",
"6 c #836DCE",
"7 c #856ECF",
"8 c #2F92DF",
"9 c #38A1E9",
"0 c #31ADEB",
"q c #35B2EE",
"w c #2CBDF0",
"e c #3DBAF3",
"r c #4789D8",
"t c #5E80D9",
"y c #6D86DC",
"u c #7C81D9",
"i c #7981DE",
"p c #44A8E7",
"a c #42A8ED",
"s c #42BAEC",
"d c #43BBF2",
"f c #3DC8E7",
"g c #34C1F0",
"h c #39C4F2",
"j c None",
/* pixels */
"jjjjjjjjjjjjjjj",
"jjjjjjjjjjjjjjj",
"jjjjjjjjjjjjjjj",
"jjjjjjjjjjjjjjj",
"jjjjj;Xjjjjshfj",
"jjjj,.#jjjjdgjj",
"jjjj5-6ujjpewjj",
"jjj42>7iyjaqjjj",
"jjj31jj%tr90jjj",
"jj=:<jj$@+8jjjj",
"jj*&jjjj oOjjjj",
"jjjjjjjjjjjjjjj",
"jjjjjjjjjjjjjjj",
"jjjjjjjjjjjjjjj",
"jjjjjjjjjjjjjjj"
};
