<?xml version="1.0" encoding="UTF-8"?>
<svg width="1000px" height="640px" viewBox="0 0 1000 640" version="1.1" xmlns="http://www.w3.org/2000/svg" xmlns:xlink="http://www.w3.org/1999/xlink" xmlns:sketch="http://www.bohemiancoding.com/sketch/ns">
    <!-- Generator: Sketch 3.3 (11970) - http://www.bohemiancoding.com/sketch -->
    <title>background</title>
    <desc>Created with Sketch.</desc>
    <defs>
        <linearGradient x1="29.52%" y1="0%" x2="70.48%" y2="100%" id="linearGradient-1">
            <stop stop-color="#EFEFEF" offset="0%"></stop>
            <stop stop-color="#EFEFEF" offset="33%"></stop>
            <stop stop-color="#CDCDCD" offset="80%"></stop>
            <stop stop-color="#CCCCCC" offset="100%"></stop>
        </linearGradient>
    </defs>
    <g id="Page-1" stroke="none" stroke-width="1" fill="none" fill-rule="evenodd" sketch:type="MSPage">
        <g id="background" sketch:type="MSLayerGroup">
            <rect id="Rectangle-path" fill="url(#linearGradient-1)" sketch:type="MSShapeGroup" x="0" y="0" width="1000" height="640"></rect>
            <g id="Group" transform="translate(255.000000, 29.000000)" font-weight="686" font-family="Arial Black" fill="#000000" sketch:alignment="middle" font-size="72" sketch:type="MSTextLayer">
                <text id="NAVCOIN-4.0">
                    <tspan x="0.0703125" y="79">NAVCOIN 4.0</tspan>
                    <tspan x="135.9375" y="180" font-size="24">DRAG TO INSTALL</tspan>
                </text>
            </g>
            <g id="Group" transform="translate(497.000000, 317.000000) scale(1, -1) translate(-497.000000, -317.000000) translate(430.000000, 267.000000)" fill="#000000" sketch:type="MSShapeGroup">
                <path d="M69.5,97.5 C67.1,95.2 67,94.6 67,81 L67,67 L36.4,67 L5.8,67 L2.9,64.1 C0,61.2 0,61 0,50 C0,39 0,38.8 2.9,35.9 L5.8,33 L36.4,33 L67,33 L67,19 C67,5.4 67.1,4.8 69.5,2.5 C71.1,0.8 73,0 75.2,0 C78.1,0 82.4,3.2 105.8,22.6 C123.8,37.5 133.2,45.9 133.6,47.6 C134.9,52.9 133.4,54.6 105.8,77.5 C82.3,96.9 78.1,100 75.2,100 C73,100 71.1,99.2 69.5,97.5 L69.5,97.5 Z" id="Shape"></path>
            </g>
        </g>
    </g>
</svg>