<svg version="1.1" viewBox="0 0 256 256" xmlns="http://www.w3.org/2000/svg">
 <title>about</title>
 <path d="M127.93,11.14A117.35,117.35,0,1,0,245.29,128.48,117.35,117.35,0,0,0,127.93,11.14ZM92.81,139.21c-1.44,3-2.92,5.93-4.32,8.92a1.77,1.77,0,0,1-1.86,1.15q-7.09-.06-14.19,0a1.76,1.76,0,0,1-1.78-1.09Q64.5,137,58.29,125.92c-.18-.31-.23-.87-.68-.82s-.41.6-.55.94q-4.7,10.9-9.34,21.83a1.89,1.89,0,0,1-2,1.38c-5.1-.06-10.22,0-15.32-.05V149c.18-.33.37-.66.52-1q5.88-13.61,11.72-27.23c1.86-4.34,3.68-8.7,5.52-13H65c.14.31.27.63.44.93q6.46,11.67,13,23.35c.17.32.22.86.68.82s.48-.54.64-.88q3.11-6.42,6.22-12.84c1.85-3.81,3.72-7.59,5.58-11.38H108.1Zm71.59,10c-4.81,0-9.62,0-14.42,0a1.76,1.76,0,0,1-1.69-1.12q-3.73-6.78-7.47-13.53-2.43-4.38-4.87-8.77c-.14-.26-.23-.65-.6-.62s-.46.46-.59.77q-4.57,10.65-9.13,21.31c-1,2.33-.65,1.94-2.89,1.95-4.38,0-8.77,0-13.15,0-1.56,0-1.59,0-1-1.42q6.14-14.31,12.3-28.61,2.49-5.76,5-11.54H142.7a40.43,40.43,0,0,0,2.79,5.29q7.78,14.07,15.64,28.11L165,148C165.59,149.08,165.53,149.23,164.4,149.23Zm42.71-3.58c-1.73,3.58-1.67,3.61-5.62,3.61s-7.76,0-11.64,0a1.72,1.72,0,0,1-1.74-1c-3.63-6.56-7.28-13.09-10.92-19.65q-5.82-10.47-11.65-20.95h16.85a9.92,9.92,0,0,0,1.34,2.66q6,10.81,12,21.57c.17.32.27.84.68.83s.49-.53.65-.86q4.53-9.28,9-18.57c.9-1.85,1.76-3.75,2.62-5.63h16.85Q216.32,126.67,207.11,145.65Z"/>
</svg>
