<svg version="1.1" viewBox="0 0 256 256" xmlns="http://www.w3.org/2000/svg">
 <title>add</title>
 <path d="M128.79,10.15A117.63,117.63,0,1,0,246.27,128,117.38,117.38,0,0,0,128.79,10.15Zm62.46,130c-2.07,3.06-4.92,4.95-8.07,4.95H146.69v36.49a8.65,8.65,0,0,1-2,5.44c-2.86,3.55-8.44,6-14.86,6-6.13,0-11.49-2.2-14.45-5.49a8.8,8.8,0,0,1-2.45-5.92V145.1H76.4a9.26,9.26,0,0,1-6.83-3.36c-2.78-3.08-4.58-8-4.58-13.54,0-9.34,5.11-16.9,11.41-16.9h36.49V74.81c0-6.31,7.57-11.41,16.9-11.41a21.61,21.61,0,0,1,12,3.34c3.06,2.07,4.95,4.92,4.95,8.07V111.3h36.49c6.31,0,11.41,7.57,11.41,16.9A21.58,21.58,0,0,1,191.25,140.15Z"/>
</svg>
