<svg version="1.1" viewBox="0 0 256 256" xmlns="http://www.w3.org/2000/svg">
 <title>address-book</title>
 <path d="M239,135.86q0,41.14,0,82.28c0,16.82-10.83,27.7-27.54,27.7H81.19c-16.71,0-27.5-10.88-27.54-27.7,0-3.43.13-6.86,0-10.29-.13-2.81.88-4,3.77-4.45,8.5-1.31,14-6.28,16.1-14.65A19.06,19.06,0,0,0,57.73,165.2c-3-.41-4.17-1.34-4.16-4.44s1.15-4,4.14-4.45a19.73,19.73,0,0,0,16.48-19.14,19.52,19.52,0,0,0-16.5-19.09c-2.93-.49-4.14-1.42-4.12-4.52s1.1-4.13,4.19-4.34a17.86,17.86,0,0,0-.09-35.61c-2.81-.21-4.14-1-4.08-4,0-2.79.46-4.32,3.84-4.68,9.63-1,16.14-8,16.72-17.32.52-8.45-5.17-15.93-14.31-18.14-3.63-.88-4-2.57-3.14-5.71,2.31-8,9.75-13.39,19.53-13.49,13-.13,25.9,0,38.86-.05,23.74,0,47.49.08,71.23,0,10.52-.05,18.91,3.42,23.78,13.24,1.15,2.33,3.23,2.25,5.17,2.46a26,26,0,0,1,18.9,10.86A25.68,25.68,0,0,1,239,52.43Q239,94.14,239,135.86Zm-13.15.4q0-38.64,0-77.29c0-7-2.46-12.61-8.19-16.7-1.11-.79-2.38-1.93-3.77-1.27s-.75,2.28-.78,3.47c-.31,13.7-.13,27.4-.63,41.1-.73,19.9-.66,39.83-1,59.75q-.36,23.77-.8,47.56a25.59,25.59,0,0,1-4.25,14C201.71,214,194.77,217,186.32,217q-57.1-.06-114.22,0c-4.81,0-5.43,1-3.32,5.38,3.93,8.1,11.08,10.26,19.28,10.27q58.63,0,117.28,0c13.28,0,20.52-7.38,20.52-20.57Q225.89,174.16,225.87,136.26Z"/>
 <path d="M35.81,74.43c-5.39-.62-10.45-2.26-14.39-6.31-7-7.19-5.48-22,2.66-27.83a13.89,13.89,0,0,1,8.18-2.65c6.72,0,13.44-.1,20.15,0,6.12.09,10.09,3.68,10.55,9.26.54,6.53-2.29,10.38-8.74,11.66a34.4,34.4,0,0,1-5.66.46c-4.3.09-8.63-.16-12.91.21-5,.44-6.79,4.06-4.18,8.36a54.42,54.42,0,0,0,4.71,5.86Z"/>
 <path d="M35.8,117.86c-5.36-.62-10.42-2.25-14.36-6.28-7-7.18-5.52-22,2.61-27.84a13.89,13.89,0,0,1,8.18-2.67c6.71,0,13.43-.09,20.15,0,6.13.09,10.11,3.65,10.58,9.23.55,6.52-2.27,10.39-8.7,11.69a30,30,0,0,1-5.28.45c-4.06.08-8.11,0-12.17.08-2.49,0-4.92.61-6.1,3.09s.07,4.72,1.53,6.68c1.2,1.6,2.66,3,4,4.51Z"/>
 <path d="M35.81,165.85c-5.4-.6-10.47-2.25-14.4-6.31-7-7.21-5.46-22,2.69-27.83a13.88,13.88,0,0,1,8.18-2.64c6.72,0,13.44-.09,20.15,0,6.11.1,10.08,3.69,10.53,9.28.53,6.53-2.3,10.37-8.76,11.65a33.33,33.33,0,0,1-5.66.45c-4.3.1-8.64-.16-12.91.22-5,.44-6.77,4.07-4.15,8.37a54.32,54.32,0,0,0,4.71,5.85Z"/>
 <path d="M36.38,209.3a24.5,24.5,0,0,1-13.6-5.05c-5.43-4.3-7.33-13.42-4.53-21.38,2.32-6.6,7.74-10.33,15.19-10.38,6.21,0,12.42-.07,18.63,0,6.42.08,10.44,3.57,10.89,9.31.53,6.65-2.41,10.5-9.14,11.73-4.4.8-8.85.21-13.28.37a42.63,42.63,0,0,0-5.31.22c-4.59.75-6.15,4-3.95,8.05a25.55,25.55,0,0,0,2.48,3.34C34.52,206.5,35.76,207.09,36.38,209.3Z"/>
</svg>
