<svg version="1.1" viewBox="0 0 256 256" xmlns="http://www.w3.org/2000/svg">
 <title>clock5</title>
 <path d="m128 11.05a117.37 117.37 0 1 0 117 117.37 117.14 117.14 0 0 0-117-117.37zm-4.31 23c0.09-2 0-3.95 0-5.93v-4.07c0-4.28 1.91-5.62 6-4.49 1.59 0.44 1.76 1.55 1.76 2.82v11.85c0 3-1.93 2.92-4 3s-3.93-0.33-3.81-3.16zm-91.36 41.49c1.13-1.49 1.3-3.83 3.59-4.39 1.06 0.57 2 1.07 3 1.63 2.57 1.48 5.12 3 7.68 4.49 3.78 2.22 3.86 2.77 1.46 6.5-0.89 1.39-1.83 1.93-3.34 1.07-3.87-2.2-7.73-4.41-11.61-6.58-1.22-0.68-1.61-1.63-0.78-2.72zm-10.63 56.8c-2.91 0.08-3.08-1.71-3.06-3.88s0-4.08 3-4c2 0.08 3.95 0 5.93 0h4.43c4.13 0.05 4.59 0.66 4.41 4.8-0.1 2.23-1.06 3.08-3.2 3-3.86 0.02-7.69-0.02-11.51 0.08zm26.77 46.15c-3.64 2.12-7.3 4.18-11 6.26-0.43 0.24-0.9 0.41-1.49 0.68-2.31-0.64-2.7-3-3.78-4.63-0.9-1.41 0.37-2 1.33-2.51 3.64-2.11 7.35-4.12 10.93-6.33 2.44-1.51 3.11 0.36 3.79 1.87s2.96 3.06 0.22 4.66zm34.69 34.51c-1.76 3.13-3.71 6.16-5.36 9.35-1.17 2.26-2.53 2-4.14 0.74-1.45-1.13-4.53-1.29-2.61-4.48 2.18-3.6 4.24-7.28 6.35-10.93 0.44-0.75 0.83-1.58 2-1.35 3.78 0.19 5.6 3.36 3.76 6.67zm-1.59-163.29c-1.57 1.29-3.02 1.48-4.19-0.71-1.72-3.14-3.6-6.19-5.38-9.29a4.47 4.47 0 0 1 3.65-6.89c1.23-0.18 1.55 0.73 2 1.45 2.11 3.63 4.08 7.35 6.33 10.89 1.96 3.16-0.98 3.41-2.41 4.55zm45.92 187.63c-2.2 0-4-0.2-3.85-3.09 0.1-2 0-3.95 0-5.93v-4.07c0-4.4 0.67-4.91 4.93-4.64 2 0.13 2.92 0.95 2.9 2.95 0 3.95-0.07 7.9 0 11.85 0.08 2.99-1.91 2.89-3.98 2.93zm38.39-61.08c-3.74 3-7.56 4.82-10.19 4.82a3.38 3.38 0 0 1-2.42-0.82l-11.66-11.19-22.24-21.35-6.45-6.19a3.15 3.15 0 0 1-0.85-2.33h-0.07v-63.59c0-4.54 4.55-8.38 10.78-9.55a21.14 21.14 0 0 1 4-0.38 19.11 19.11 0 0 1 10.48 2.9c2.68 1.81 4.34 4.28 4.34 7v51.42a4.24 4.24 0 0 0 1.3 3l31.3 30c2.19 2.1 0 7.65-4.84 12.86a8.41 8.41 0 0 1-3.48 3.4zm14.12 47.59c-1.37 0.8-2-0.44-2.52-1.41-2.11-3.65-4.12-7.36-6.34-10.94-1.32-2.13 0-3 1.53-3.63s3.22-3.27 5-0.36c2.25 3.7 4.36 7.5 6.53 11.26 0.24 0.42 0.42 0.89 0.69 1.49-0.95 2.1-3.17 2.57-4.89 3.59zm4.21-185.85c-2.23 3.84-4.39 7.74-6.76 11.49-1.84 2.91-3.64 0.33-5.36-0.35-1.88-0.75-2.22-2-1.09-3.81 2.22-3.57 4.28-7.23 6.42-10.84 0.56-0.94 1.09-2.23 2.49-1.5 1.8 0.93 3.79 1.67 5 3.39a16.63 16.63 0 0 1-0.7 1.62zm22.34 40.5c3.73-2.18 7.43-4.42 11.23-6.47 3.34-1.8 3.39 1.71 4.65 3.15s0.69 2.55-1 3.45c-3.47 1.89-6.86 3.93-10.28 5.9-0.64 0.36-1.3 0.69-2.12 1.12-2.07-0.72-2.41-2.9-3.48-4.43-0.8-1.22-0.08-2.1 1-2.72zm13.61 106.5c-1.19 1.09-2.33-0.12-3.33-0.68-3.24-1.79-6.34-3.82-9.63-5.52s-1.53-3.49-0.57-5.47 2.15-2.72 4.32-1.32c3.42 2.21 7 4.16 10.5 6.23 0.72 0.43 1.6 0.73 1.76 1.83a13.22 13.22 0 0 1-3.05 4.93zm13.22-52.63c-2-0.1-3.95 0-5.93 0h-4.07c-4.37 0-4.89-0.69-4.61-5 0.13-2 1-2.89 3-2.87 3.95 0 7.9 0.06 11.85 0 3 0 2.85 2 2.9 4 0.03 2.25-0.28 3.99-3.14 3.84z"/>
</svg>
