<svg version="1.1" viewBox="0 0 256 256" xmlns="http://www.w3.org/2000/svg">
 <title>clock1</title>
 <path d="M129.22,10.2C65.1,10,12,62.86,12.22,126.75c.22,64.52,52,116.62,116.4,116.67,63.93.63,116.71-52.47,116.87-116.25C245.65,63.2,193,10.41,129.22,10.2Zm98.4,128.92a107.63,107.63,0,0,1-8.33,29.31c-1.38,3.22-2.94,4.39-6,2.11a10.18,10.18,0,0,0-2.34-1.15,3.6,3.6,0,0,0-4.59,1.4,4,4,0,0,0,.11,4.87,7.8,7.8,0,0,0,1.33,1.3c5.08,4.21,5.07,4.2,1.06,9.61a99.31,99.31,0,0,1-23.55,22.64c-2.21,1.53-3.47,1.44-4.53-1a15.93,15.93,0,0,0-1.27-2.28c-1.43-2.19-3.42-3-5.76-1.71s-2.62,3.33-1.52,5.75c2.62,5.73,2.61,5.81-3.31,8.39a98.61,98.61,0,0,1-31,7.75c-3.31.3-5-.73-4.6-4.29a7.57,7.57,0,0,0-.38-2.94,3.89,3.89,0,0,0-4.21-3,3.79,3.79,0,0,0-3.54,3.32,12.39,12.39,0,0,0-.19,3.33c.21,2.85-1.16,3.73-3.81,3.56a97.31,97.31,0,0,1-28.6-6.57c-.81-.31-1.61-.65-2.42-1-6.56-2.66-6.58-2.67-4-9.06.85-2.14.61-4-1.39-5.2s-3.81-.8-5.41.83c-.17.17-.33.37-.49.56-4.41,5.17-4.4,5.15-9.87,1.08a99.26,99.26,0,0,1-22.59-23.59c-1.44-2.09-1.3-3.3,1-4.27.11,0,.21-.12.32-.18,4.22-2.46,5.42-4.64,3.72-7.12-2.45-3.57-5.22-1.73-7.76-.11-2,1.29-3.37,1.64-4.65-1a99.21,99.21,0,0,1-9.4-34.71c-.28-3.18.78-4.74,4.14-4.39a7.77,7.77,0,0,0,2.58-.23c2.18-.52,3.58-1.92,3.49-4.2s-1.67-3.46-3.88-3.83c-7.07-1.19-6.92-1.17-5.92-8.54a110.45,110.45,0,0,1,8.53-29.63C39.83,82,41.28,81,44.09,83a11.65,11.65,0,0,0,2.67,1.32,3.55,3.55,0,0,0,4.35-1.14,3.91,3.91,0,0,0,.27-4.85,6.82,6.82,0,0,0-1.53-1.6c-5-4.16-5-4.15-1.23-9.33A99.56,99.56,0,0,1,72.39,44.5c2.26-1.56,3.49-1.33,4.53,1.09a16.49,16.49,0,0,0,1.27,2.28c1.42,2.23,3.44,2.94,5.75,1.66s2.64-3.34,1.45-5.75c-2.74-5.6-2.73-5.67,3-8.24A95.54,95.54,0,0,1,119,27.73c4.85-.43,5-.15,5.29,4.62,0,.25,0,.5,0,.74.22,2.65,1.38,4.74,4.24,4.75s4.19-2.16,4-4.8c-.37-5.64.68-5.78,6.13-5.25a102.82,102.82,0,0,1,32.21,8.88c2.78,1.25,3.67,2.65,1.81,5.31a12.92,12.92,0,0,0-1.47,3,3.51,3.51,0,0,0,1.36,4.29,3.92,3.92,0,0,0,4.86,0A7.79,7.79,0,0,0,179,47.68c3.85-4.94,3.85-5,8.84-1.33A98.42,98.42,0,0,1,211.3,70.61c1.47,2.13,1.18,3.28-1.05,4.27A18.8,18.8,0,0,0,208,76.14c-2.38,1.49-3.13,3.6-1.76,6s3.51,2.33,5.81,1.18c5.43-2.72,5.51-2.73,8,2.91,4.49,10.08,7,20.67,8.18,33,.35,1.85-.92,3.36-4.26,3a8.34,8.34,0,0,0-2.59.22c-2.18.52-3.6,1.9-3.53,4.19s1.66,3.42,3.85,3.87c2,.4,4.68-1,5.88,1.17S227.92,136.66,227.62,139.12Z"/>
 <path d="m167 167.21-0.44 0.44c-4.38 4.2-9.24 6.74-12.37 6.74a3.41 3.41 0 0 1-2.42-0.81l-11.66-11.2-23-22.12-5.65-5.42a3.1 3.1 0 0 1-0.85-2.32h-0.09v-63.6c0-4.87 5.24-8.93 12.15-9.77a23.35 23.35 0 0 1 2.67-0.16 19 19 0 0 1 10.48 2.91c2.69 1.8 4.35 4.27 4.35 7v51.43a4.24 4.24 0 0 0 1.3 3.05l31.3 30c2.23 2.3-0.32 8.39-5.77 13.83z"/>
</svg>
