<svg version="1.1" viewBox="0 0 256 256" xmlns="http://www.w3.org/2000/svg">
 <title>clock4</title>
 <path d="M128.17,11.05A118,118,0,0,0,10,128.79C9.64,193.61,63.36,247.34,128.09,247a118,118,0,0,0,.08-236ZM123.41,129.7c-27.93-1-55.87-.5-83.8-.69-2.76,0-4.56-.36-4.3-3.9a101.18,101.18,0,0,1,7.12-31.77c0-.07.06-.13.08-.19a83,83,0,0,1,7-13.28c.18-.28.37-.56.56-.84.33-.51.68-1,1-1.51.54-.78,1.08-1.54,1.62-2.29.41-.57.83-1.13,1.25-1.68a92.37,92.37,0,0,1,72.83-36.36c1.08.87,1.08,2.85,1.08,6.86V83.32c0,14-.1,27.94.06,41.91C128,128.74,126.85,129.81,123.41,129.7Z"/>
 <path d="m49.55 79.87a83 83 0 0 0-7 13.28 92.08 92.08 0 0 1 7.56-14.15c-0.19 0.31-0.38 0.59-0.56 0.87z"/>
</svg>
