<svg version="1.1" viewBox="0 0 256 256" xmlns="http://www.w3.org/2000/svg">
 <title>configure</title>
 <path d="M184.59,148.35a68.22,68.22,0,0,1-26.78-2.19c-2.27-.66-3.94-.59-5.54.31L57.78,241c-7.61,7.61-22.18,5.37-32.55-5l-5.72-5.72c-10.37-10.37-12.6-24.93-5-32.54l20.63-20.62L110.19,102a9,9,0,0,0-.37-3.89c-11.57-41.18,17.12-82.82,59.81-87,2.27-.22,4.57,0,6.86,0a57.17,57.17,0,0,1,18.83,2.41c4.57,1.28,4.62,1.49,1.32,4.77Q175.34,39.58,154,60.81c-5.4,5.39-5.4,5.39,0,10.73,11.06,11,22.19,22,33.13,33.13,2.32,2.36,3.61,2.51,6,.07,14.9-15.09,30-30,45-45,3.35-3.34,3.51-3.3,4.83,1.18C254.91,101.38,226.55,143.72,184.59,148.35Z"/>
</svg>
