<svg version="1.1" viewBox="0 0 256 256" xmlns="http://www.w3.org/2000/svg">
 <title>connect1</title>
 <path d="m105.54 110.51h-27c-1.72 0-2.93 1.39-4.22 2.4-22.32 17.58-55.27 4.09-58.58-23.71-1.74-14.58 8.7-30.82 23.89-35.87 16-5.32 32.44-0.06 42.08 13.76a7.75 7.75 0 0 0 7.45 3.8c5.88-0.21 11.78-0.13 17.67 0 2.5 0.05 3.9-0.83 5-3.23 7.17-15.66 19.67-23.37 36.67-23.92 6.16-0.2 12.33-0.13 18.49 0a7.07 7.07 0 0 0 6.3-3c9.6-12.17 24.37-17.09 39.28-12.53s23.45 15 25.51 30.54c2 14.83-9.62 31.23-25.22 35.73-13.69 4-25.73 0.75-36.19-8.61a9.44 9.44 0 0 0-7-2.68q-8.43 0.19-16.85 0c-2.88-0.06-4.34 0.87-4.26 4 0.13 4.79 0.11 9.58 0 14.38-0.05 2.34 1.16 3.72 2.76 5.17 11.41 10.34 14.18 21.56 8.76 35.88-0.87 2.32-0.34 2.94 1.95 2.92q9.45-0.09 18.9 0c2.14 0 3.48-1 4.8-2.57 9.37-11.4 23.38-15.53 36.88-11a33.94 33.94 0 0 1 23 31.05c0.51 12.5-7.65 25.52-19.44 31a33 33 0 0 1-36.69-5.65 11.48 11.48 0 0 0-8.77-3.35c-9.72 0.15-19.45 0.12-29.17 0-3 0-4.6 0.85-5.6 4-5.62 17.55-20.09 28-38.66 28.09-9.58 0.07-19.17 0.08-28.76 0a10.14 10.14 0 0 0-7 2.59c-14.52 12.04-32.52 12.99-46.52 2.37-11.09-8.4-16.07-19.64-13.54-33.47 2.58-14.14 11.42-23.16 25-27.22 15.24-4.56 29.91 0.53 39.74 13.32a6.55 6.55 0 0 0 5.8 2.93c7.12-0.12 14.24-0.14 21.36 0 3.23 0.07 4.47-1.2 4.31-4.35-0.15-2.87-0.07-5.75 0-8.63 0.11-6.67-0.33-12.63-4.61-18.81-7.9-11.36-5.85-23.38 2.48-35.33zm-53.8 2.23c15.58 0 27.8-11.59 27.8-26.34 0-15.57-11.87-27.07-27.93-27.05-15.72 0.01-27.87 11.65-27.85 26.76s12.24 26.64 27.98 26.63zm22.1 82.35c1.55-17.11-14.15-27.53-26.78-27.32-15.82 0.27-28.15 11.53-28.23 26.47-0.08 15.18 12 26.61 27.62 27.1 13.48 0.43 29.08-11.02 27.39-26.25zm163.6-31.09c0.05-14.56-10.83-25.65-25.23-25.7-14.55 0-25.64 10.83-25.69 25.23s10.83 25.64 25.22 25.69c14.56 0.02 25.65-10.87 25.7-25.22zm-140.44 21.23h-12.31c-2.1 0-3.17 0.71-2.56 2.94 1.53 5.64 0.49 11.16-0.87 16.62-0.79 3.17 0.17 4.21 3.34 4.17 8.21-0.12 16.42 0 24.63-0.06a29.91 29.91 0 0 0 29.37-23c1.92-7.54 0.69-15.26 0.89-22.9 0.06-2.13-1.32-2.27-3.09-2-5.9 0.77-11.77 0.64-17.38-1.6-2.47-1-3.19-0.21-3.15 2.24 0.08 4.93 0.06 9.86 0 14.78-0.07 6.42-2.32 8.71-8.61 8.8-3.43 0.05-6.85 0.01-10.26 0.01zm66.7-8.38h12.69c2.08 0 3.17-0.59 2.42-2.9a31 31 0 0 1-0.36-17.76c0.6-2.29-0.44-3-2.49-3-7.24 0-14.48-0.2-21.7 0.13-3.26 0.15-6.14 1.91-6.28 5.75-0.19 4.77 0 9.55-0.07 14.33 0 2.44 1.13 3.45 3.5 3.42 4.08-0.01 8.17 0.03 12.27 0.03zm-55.35-86.67h0.19c0-2.74-0.13-5.49 0-8.22 0.12-1.9-0.44-2.87-2.42-2.87h-16c-1.72 0-3.09 0.57-2.7 2.65 1.18 6.26-0.16 12.26-2.27 18.11-0.68 1.86-0.55 2.88 1.74 2.87h18.49c2.06 0 3-1.05 3-3.05q-0.03-4.76-0.03-9.49z"/>
</svg>
