<svg version="1.1" viewBox="0 0 256 256" xmlns="http://www.w3.org/2000/svg">
 <title>connect3</title>
 <path d="m102.7 110.13h-26.07c-2.15 0-3.64 1.3-5.17 2.51-22.87 18.08-56.53 4.19-59.94-24.06-1.79-14.93 8.77-31.52 24.29-36.74 16.3-5.48 33.18-0.12 43 14 2 2.87 4.11 4.08 7.57 4 6.71-0.22 13.44-0.16 20.15 0 2.85 0.06 4.62-0.76 5.93-3.48 7.19-14.86 19.47-21.51 35.54-21.84q10.06-0.21 20.15 0a8.49 8.49 0 0 0 7.49-3.43c13.39-16 35.68-17.3 50-2.9 9 9.09 11.79 20 7.41 32-4.63 12.67-14.27 19.85-27.7 21.27-10.28 1.09-19.39-1.92-26.79-9.38a6.78 6.78 0 0 0-5.17-2.27c-8.12 0.06-16.24 0.09-24.36 0-3 0-4.31 1.16-4.24 4.21 0.11 5 0.06 10.08 0 15.12a5.67 5.67 0 0 0 2.69 5.28c12.82 8.51 18.18 24.81 11.55 38.7-1.19 2.51 0 2.89 2.1 2.88q9.66-0.06 19.32 0a5.62 5.62 0 0 0 4.61-2.37c9.86-11.77 23.53-16 37.17-11.71a34.18 34.18 0 0 1-3.79 66.22c-11.54 2.19-21.59-1-30.12-9a8.89 8.89 0 0 0-6.26-2.78c-12-0.23-24.06 0.74-36.07-0.57-2.11-0.23-3 0.94-3.5 2.79-4.26 17.08-19.85 28.59-39.45 28.09-9.79-0.25-19.59 0.06-29.39-0.1a12.3 12.3 0 0 0-9 3.37c-17.42 15.45-46.6 6.91-53.2-15.41-5.5-18.64 9.09-38.9 28.7-40.06 13-0.77 23.21 4 30.79 14.45a5.08 5.08 0 0 0 4.56 2.34c9.52 0 19-0.07 28.55 0 2.93 0 4-1.3 3.94-4.08-0.07-6.43 0-12.87 0-19.31a5.57 5.57 0 0 0-1.8-4.51c-11.9-10.57-13.63-28.41-4-41.5a8.7 8.7 0 0 0 0.51-1.73zm135.3 54.87c0.09-14.9-11-26.32-25.61-26.41-14.9-0.09-26.32 11-26.41 25.61-0.1 14.9 11 26.32 25.6 26.41 14.89 0.07 26.31-11 26.42-25.61zm-75.9 13c4.47 0 8.94-0.05 13.41 0 2.48 0 3.28-0.86 2.48-3.3a30.33 30.33 0 0 1-0.36-17.35c0.72-2.71-0.26-3.57-2.84-3.54h-18.86c-8.14 0-12 3.81-12 11.76 0 2.51 0.11 5 0 7.54-0.17 3.45 1.53 4.82 4.79 4.8 4.43 0.01 8.9 0.03 13.37 0.03z"/>
</svg>
