<svg version="1.1" viewBox="0 0 256 256" xmlns="http://www.w3.org/2000/svg">
 <title>connect2</title>
 <path d="M103,110.2c-9.34,0-18,0-26.6,0-2,0-3.34,1.31-4.75,2.43-22.83,18.1-56.38,4.2-59.8-23.89C10,73.27,21.38,56.21,37.62,51.58s32,.89,41.59,14.68c1.81,2.58,3.7,3.74,6.86,3.66,7-.18,14-.15,20.92,0a5.28,5.28,0,0,0,5.53-3.41c7.22-14.89,19.59-21.51,35.74-21.75q10.25-.15,20.51,0a7.32,7.32,0,0,0,6.37-3.06c13.44-16.26,35.75-17.71,50.1-3.29,9,9,11.79,20,7.44,31.92C228.09,83,218.49,90.18,205.1,91.62c-10.23,1.1-19.35-1.87-26.71-9.32a7.21,7.21,0,0,0-5.57-2.3c-8,.07-15.91.09-23.86,0-3,0-4.37,1-4.3,4.13.12,5.16.07,10.33.05,15.49a5.34,5.34,0,0,0,2.62,4.87c13,8.67,18.06,25,11.59,38.57-1.14,2.38-.24,2.95,2,2.93q9.62-.07,19.25,0a5.64,5.64,0,0,0,4.63-2.31c9.92-11.79,23.44-16,37-11.75a34.08,34.08,0,0,1-3.66,66c-11.49,2.19-21.57-1-30-8.93a9.66,9.66,0,0,0-7.07-2.81c-11.71-.2-23.44.74-35.13-.56-2.08-.23-3.08.86-3.53,2.72-4.16,17-19.72,28.66-39.71,28.08-9.9-.29-19.81,0-29.72-.1a10.63,10.63,0,0,0-7.83,3c-17.46,15.72-46.7,7.45-53.4-15-5.58-18.71,9.22-39,29-40,12.77-.64,22.85,4.12,30.3,14.39A5.41,5.41,0,0,0,76,181.13c9.21,0,18.42-.11,27.62,0,3.27,0,4.57-1.22,4.43-4.44s-.16-6.42,0-9.62c.35-6.92-.66-12.67-5.77-18.58-7.73-8.95-8.39-20.07-3.16-31.06C100.14,115.22,101.45,113.09,103,110.2Zm-54.37,2.34c15.83,0,28.22-11.88,28.18-27,0-15.79-12.2-27.46-28.58-27.41-16,0-28.29,12-28.23,27.39C20.08,100.81,32.58,112.59,48.66,112.54Zm189,52c0-14.81-11.09-26-25.84-26s-26,11.1-26,25.84,11.09,26,25.84,26S237.64,179.31,237.66,164.56Zm-75.9,13.22v.08c4.46,0,8.92-.08,13.37,0,2.66.06,3.54-.78,2.67-3.47a29.39,29.39,0,0,1-.36-16.9c.75-2.85-.15-3.81-3-3.77-6.12.09-12.25,0-18.38,0-8.51,0-12.21,3.64-12.21,11.92,0,2.5.09,5,0,7.52-.13,3.22,1.47,4.58,4.53,4.57Zm-67-75.45c3.33,0,6.67-.1,10,0,2.82.11,4-1,4-3.87-.06-5.83,0-11.67.14-17.51,0-1.74-.5-2.69-2.28-2.69-6.53,0-13.06,0-19.6,0-1.73,0-2.52,1-2.2,2.77,1.22,6.38-.17,12.45-2.36,18.36-.93,2.51.16,2.92,2.26,2.89C88.11,102.3,91.45,102.34,94.79,102.33Z"/>
</svg>
