<svg version="1.1" viewBox="0 0 256 256" xmlns="http://www.w3.org/2000/svg">
 <title>connect0</title>
 <path d="M105.33,110.38c-9.3,0-17.82,0-26.33,0-1.94,0-3.29,1.29-4.68,2.4-22.52,17.83-55.59,4.12-59-23.57C13.49,74,24.72,57.13,40.73,52.56s31.54.87,41,14.45c1.77,2.54,3.62,3.73,6.74,3.63,6.19-.19,12.38-.11,18.58,0a4.51,4.51,0,0,0,4.71-3.07c7.33-16.06,20.13-23.79,37.56-24.17,6.06-.13,12.11-.11,18.16,0a6.9,6.9,0,0,0,6-2.83c10.37-12.62,23.67-17.29,39.39-12.74,14.88,4.3,23.44,14.65,25.72,30.1,2.24,15.21-9.45,32-25.48,36.55-13.79,3.91-25.83.55-36.3-8.87a9,9,0,0,0-6.65-2.53c-5.5.11-11,.23-16.51,0-3.93-.19-5.22,1.46-4.87,5.1a21.43,21.43,0,0,1,0,4.53c-.86,7.35,1.22,12.88,6.83,18.5,8.42,8.43,9.72,19.47,5.13,30.66-1.37,3.35-.67,4.14,2.64,3.88a47.35,47.35,0,0,1,6.19,0c8.15.46,14.89-.36,21.6-7.2,9.77-9.94,22.87-10.93,35.63-4.9s19.31,16.57,19.29,30.3c0,14.09-6.91,24.86-20,30.68-13.23,5.88-25.61,3.53-36.39-6a11.56,11.56,0,0,0-8.47-3.2c-9.9.14-19.81.11-29.72,0-2.87,0-4.37.87-5.33,3.83-5.76,17.9-20.22,28.3-39.12,28.4-9.09.05-18.17.13-27.25,0a13.31,13.31,0,0,0-9.34,3.26C56.32,232.35,38.27,233,24.43,222.37c-11.11-8.5-16-19.83-13.39-33.7s11.46-23,24.89-27.08c15.26-4.64,30.27.48,40,13.2a6.89,6.89,0,0,0,6.22,3.09c7-.14,14-.17,21.05,0,3.46.09,4.62-1.29,4.53-4.62-.17-5.92-.06-11.83,0-17.75a7.49,7.49,0,0,0-1.59-5c-9.79-12.48-10.41-24.14-2.12-37.75C104.29,112.25,104.6,111.67,105.33,110.38Zm-53.85,2.3c15.65,0,27.94-11.63,27.94-26.44,0-15.64-11.91-27.2-28-27.19-15.8,0-28,11.73-28,26.87S35.65,112.69,51.48,112.68ZM73.7,195.47c1.57-17.29-14.26-27.69-26.86-27.5-16.09.25-28.42,11.66-28.41,27,0,14.94,12.17,26.35,27.7,26.85C59.78,222.23,75.38,210.66,73.7,195.47ZM202.5,87.91c15.82,0,28.09-11.66,28.11-26.74s-12.18-26.87-28-26.89c-15.54,0-27.17,10.81-27.23,25.45C175.37,72.62,185.3,88.85,202.5,87.91ZM238,164.3c.09-14.65-10.79-25.88-25.18-26-14.65-.1-25.88,10.79-26,25.18-.1,14.65,10.79,25.88,25.18,26C226.72,189.57,238,178.68,238,164.3Zm-140.16,45c3.71,0,7.43,0,11.14,0,14.73-.15,26.43-9.36,29.84-23.68,1.75-7.32.56-14.79.79-22.19.06-2-1-2.56-2.92-2.29-6.07.85-12.09.66-17.87-1.64-2.27-.9-3-.14-3,2.11.06,4.54,0,9.08,0,13.62,0,8.37-1.88,10.27-10.1,10.28-6.87,0-13.74,0-20.62,0-1.81,0-4-.18-3.21,2.72,1.55,6,.41,11.75-1,17.52-.62,2.61.3,3.57,2.84,3.54C88.53,209.26,93.21,209.3,97.88,209.3Zm18.9-121.37c0,4.32.06,7.35,0,10.37-.07,2.55.71,3.61,3.41,2.66a32.94,32.94,0,0,1,16.71-1.11c2.91.5,3.72-.66,3.68-3.26q-.09-6.41,0-12.8c.1-5.9,2.44-8.29,8.28-8.37s11.56,0,17.34,0c2.18,0,3-.65,2.24-3C166.52,66.75,165.5,61,167,55c.68-2.65-.47-3.44-3-3.4-6.47.09-13-.24-19.4.16-8.84.54-15.94,4.76-21.45,11.65C117.09,71,116.37,80,116.78,87.93ZM164,177.11c4.11,0,8.23-.07,12.34,0,2.47.05,3.64-.56,2.73-3.34a29.49,29.49,0,0,1-.33-17c.72-2.72-.4-3.44-2.85-3.42-7,0-14-.09-21,.07-4.24.11-6.72,2.88-6.77,7.1s.08,8.5,0,12.75c-.07,2.85,1.2,3.93,4,3.87C156,177,160,177.1,164,177.11ZM108.53,90.63c0-2.89-.15-5.79,0-8.66.16-2.12-.44-3.12-2.63-3.11-5.23,0-10.46,0-15.69,0-2.24,0-3.37.88-2.83,3.3.74,3.29,0,6.55-.19,9.83-.16,3.61-4.22,7.79-1.55,10.06,2.19,1.86,7.11.54,10.83.54C108.38,102.64,108.38,102.62,108.53,90.63Z"/>
</svg>
