<svg id="SVGRoot" width="256px" height="256px" version="1.1" viewBox="0 0 256 256" xmlns="http://www.w3.org/2000/svg">
 <g stroke-width=".36013821">
  <path d="m79.110647 243.54452c-.476095-.24468-1.205374-.90228-1.620621-1.46133-.739277-.9953-.757073-1.38658-.8548-18.79708l-.09981-17.78062-2.241091-1.34808c-14.42284-8.67572-23.660359-22.25557-27.584133-40.55074-.781079-3.64191-1.797334-11.43389-1.938507-14.86323l-.08895-2.16083-1.260484.0746c-9.414026.55727-12.516429.52102-15.923046-.18604-12.801711-2.65706-18.856895-12.17748-17.243551-27.11165.810163-7.49945 2.710718-12.0675 6.666582-16.02336 5.57219-5.5722 13.411839-7.18807 17.07954-3.52036 1.039919 1.03991 1.190202 1.39496.997756 2.35719-.296825 1.48413-1.844898 3.48538-3.047059 3.93906-3.849763 1.45285-7.338306 4.59372-8.906307 8.01869-1.351866 2.95286-2.038432 6.74972-1.874648 10.3672.117026 2.58476.326747 3.48755 1.213096 5.22201 2.017242 3.94745 6.235518 5.88966 12.740088 5.86587 3.669856-.0134 8.757148-.76332 9.530066-1.40478.258137-.21423.578939-1.45925.712892-2.76671.320974-3.13289 2.386049-11.12583 3.781384-14.63597 9.922681-24.9617 33.440592-40.51404 67.201196-44.44001 4.06496-.4727 8.12087-.62255 16.38628-.60539 15.65891.0325 27.8863 1.17021 40.5777 3.7756l5.46422 1.12174 3.53924-2.96647c9.34882-7.83587 21.06289-13.896373 30.64555-15.855083 2.05281-.419598 2.32134-.40286 2.97114.185201 1.08649.983265.88593 2.004691-1.21997 6.213032-5.49361 10.97819-8.36406 21.74715-6.61364 24.8122.24467.42844 1.94757 2.0245 3.78421 3.54681 3.74666 3.10544 6.49719 6.08157 9.50119 10.28046 2.24751 3.1415 5.53537 9.36309 6.79297 12.8543l.81081 2.25086h6.14046c7.07192 0 8.55239.4151 10.04571 2.81662l.82389 1.32498v28.99113c0 28.34342-.0161 29.01845-.72028 30.21396-.39615.67256-1.17742 1.5639-1.73616 1.98076-.95772.71452-1.52488.76435-9.9038.87007l-8.88792.11214-1.86494 3.1291c-3.79227 6.36286-8.92207 11.7585-14.87035 15.64099l-2.71217 1.77025-.18007 18.06861c-.16926 16.98454-.22109 18.12913-.86379 19.07739-1.39402 2.05677-1.35584 2.05239-17.8634 2.05239-16.73887 0-16.67276.008-17.91078-2.25696-.56622-1.03607-.64824-2.50869-.74438-13.3655l-.10805-12.20115-1.51799.20806c-7.25839.99488-10.75401 1.14261-25.99656 1.09871-11.45689-.033-17.63102-.20079-21.06809-.57252-2.67402-.28921-4.98341-.46122-5.13196-.38224-.14857.079-.27011 5.57117-.27011 12.20486 0 10.07656-.0899 12.2351-.54631 13.1177-1.10719 2.14107-1.17795 2.14955-17.892889 2.14373-11.373821-.004-15.453057-.11803-16.099354-.45017zm110.8978-115.23893c.65829-.44567 1.58758-1.53959 2.06509-2.43093.74813-1.39649.84657-1.98027.71182-4.2212-.26177-4.35338-2.39529-6.58294-6.29938-6.58294-3.52121 0-5.9411 2.86043-5.9411 7.02269 0 2.71857 1.04489 4.92576 2.93436 6.19845 1.70126 1.14592 4.84729 1.15263 6.52921.0139z"/>
  <path d="m97.762802 56.548184c-2.05315-1.115867-2.16277-3.540638-.464029-10.26407 3.189027-12.62184 10.065217-21.615935 19.583247-25.61499 4.89712-2.057545 8.1837-2.628321 15.13423-2.628321 5.32681 0 6.80081.124776 9.52203.806032 13.18093 3.299856 21.92712 13.305103 25.40124 29.057901.39316 1.782685.71833 4.104538.72262 5.159675.007 1.645667-.14188 2.068102-1.04492 2.971138l-1.05271 1.052712-33.43052-.0144c-28.17252-.01214-33.578474-.094831-34.371188-.525661z"/>
 </g>
</svg>
