<svg id="SVGRoot" width="256px" height="256px" version="1.1" viewBox="0 0 256 256" xmlns="http://www.w3.org/2000/svg">
 <g stroke-width=".36014">
  <path d="m79.111 243.54c-0.4761-0.24468-1.2054-0.90228-1.6206-1.4613-0.73928-0.9953-0.75707-1.3866-0.8548-18.797l-0.09981-17.781-2.2411-1.3481c-14.423-8.6757-23.66-22.256-27.584-40.551-0.78108-3.6419-1.7973-11.434-1.9385-14.863l-0.08895-2.1608-1.2605 0.0746c-9.414 0.55727-12.516 0.52102-15.923-0.18604-12.802-2.6571-18.857-12.177-17.244-27.112 0.81016-7.4994 2.7107-12.068 6.6666-16.023 5.5722-5.5722 13.412-7.1881 17.08-3.5204 1.0399 1.0399 1.1902 1.395 0.99776 2.3572-0.29682 1.4841-1.8449 3.4854-3.0471 3.9391-3.8498 1.4528-7.3383 4.5937-8.9063 8.0187-1.3519 2.9529-2.0384 6.7497-1.8746 10.367 0.11703 2.5848 0.32675 3.4876 1.2131 5.222 2.0172 3.9474 6.2355 5.8897 12.74 5.8659 3.6699-0.0134 8.7571-0.76332 9.5301-1.4048 0.25814-0.21423 0.57894-1.4592 0.71289-2.7667 0.32097-3.1329 2.386-11.126 3.7814-14.636 9.9227-24.962 33.441-40.514 67.201-44.44 4.065-0.4727 8.1209-0.62255 16.386-0.60539 15.659 0.0325 27.886 1.1702 40.578 3.7756l5.4642 1.1217 3.5392-2.9665c9.3488-7.8359 21.063-13.896 30.646-15.855 2.0528-0.4196 2.3213-0.40286 2.9711 0.1852 1.0865 0.98326 0.88593 2.0047-1.22 6.213-5.4936 10.978-8.3641 21.747-6.6136 24.812 0.24467 0.42844 1.9476 2.0245 3.7842 3.5468 3.7467 3.1054 6.4972 6.0816 9.5012 10.28 2.2475 3.1415 5.5354 9.3631 6.793 12.854l0.81081 2.2509h6.1405c7.0719 0 8.5524 0.4151 10.046 2.8166l0.82389 1.325v28.991c0 28.343-0.0161 29.018-0.72028 30.214-0.39615 0.67256-1.1774 1.5639-1.7362 1.9808-0.95772 0.71452-1.5249 0.76435-9.9038 0.87007l-8.8879 0.11214-1.8649 3.1291c-3.7923 6.3629-8.9221 11.758-14.87 15.641l-2.7122 1.7702-0.18007 18.069c-0.16926 16.985-0.22109 18.129-0.86379 19.077-1.394 2.0568-1.3558 2.0524-17.863 2.0524-16.739 0-16.673 8e-3 -17.911-2.257-0.56622-1.0361-0.64824-2.5087-0.74438-13.366l-0.10805-12.201-1.518 0.20806c-7.2584 0.99488-10.754 1.1426-25.997 1.0987-11.457-0.033-17.631-0.20079-21.068-0.57252-2.674-0.28921-4.9834-0.46122-5.132-0.38224-0.14857 0.079-0.27011 5.5712-0.27011 12.205 0 10.077-0.0899 12.235-0.54631 13.118-1.1072 2.1411-1.178 2.1496-17.893 2.1437-11.374-4e-3 -15.453-0.11803-16.099-0.45017zm110.9-115.24c0.65829-0.44567 1.5876-1.5396 2.0651-2.4309 0.74813-1.3965 0.84657-1.9803 0.71182-4.2212-0.26177-4.3534-2.3953-6.5829-6.2994-6.5829-3.5212 0-5.9411 2.8604-5.9411 7.0227 0 2.7186 1.0449 4.9258 2.9344 6.1984 1.7013 1.1459 4.8473 1.1526 6.5292 0.0139z"/>
  <path d="m97.763 56.548c-2.0532-1.1159-2.1628-3.5406-0.46403-10.264 3.189-12.622 10.065-21.616 19.583-25.615 4.8971-2.0575 8.1837-2.6283 15.134-2.6283 5.3268 0 6.8008 0.12478 9.522 0.80603 13.181 3.2999 21.927 13.305 25.401 29.058 0.39316 1.7827 0.71833 4.1045 0.72262 5.1597 7e-3 1.6457-0.14188 2.0681-1.0449 2.9711l-1.0527 1.0527-33.431-0.0144c-28.173-0.01214-33.578-0.094831-34.371-0.52566z"/>
 </g>
</svg>
