<svg version="1.1" viewBox="0 0 256 256" xmlns="http://www.w3.org/2000/svg">
 <title>editcopy</title>
 <path d="m171.7 208.82v22.84c0 9.56-4.83 14.32-14.47 14.33h-132.73q-14.5 0.01-14.5-14.32 0-66.36 0-132.67c0-9.29 4.89-14.11 14.26-14.13h24 42.59q33.08 0 66.14 0c9.95 0 14.7 4.7 14.7 14.54q0.03 54.67 0.01 109.41z"/>
 <path d="M246,91.34q0,33,0,65.94c0,9.91-4.72,14.63-14.6,14.65-10.63,0-21.26-.06-31.89,0V95.1a37.34,37.34,0,0,0-37.37-37.25H84.31q0-16.53,0-33.06c0-9.08,4.89-14,13.92-14q67,0,134,0c8.75,0,13.71,5,13.73,13.78Q246,57.94,246,91.34Z"/>
</svg>
