<svg version="1.1" viewBox="0 0 256 256" xmlns="http://www.w3.org/2000/svg">
 <title>editpaste</title>
 <path d="M200.41,10.65H55.59A32.61,32.61,0,0,0,22.94,43.22V212.77a32.62,32.62,0,0,0,32.65,32.58H200.41a32.62,32.62,0,0,0,32.65-32.58V43.22A32.61,32.61,0,0,0,200.41,10.65ZM161.77,44V54.15a5,5,0,0,1-5,5H101.9a5,5,0,0,1-5-5V44Zm37.79,143.16a30.24,30.24,0,0,1-30.25,30.23H86.69a30.24,30.24,0,0,1-30.25-30.23V74.26A30.25,30.25,0,0,1,78.88,45.05v9.1a23,23,0,0,0,23,23h54.85a23,23,0,0,0,23-23V45.89a30.25,30.25,0,0,1,19.79,28.37Z"/>
 <path d="m79.94 120.06c0-5.88 3.37-10.64 7.5-10.64h81.12c4.14 0 7.5 4.76 7.5 10.64s-3.36 10.66-7.5 10.66h-81.12c-4.13 0-7.5-4.72-7.5-10.66z"/>
 <path d="m79.94 148.76c0-5.87 3.37-10.64 7.5-10.64h81.12c4.14 0 7.5 4.77 7.5 10.64s-3.36 10.66-7.5 10.66h-81.12c-4.13 0-7.5-4.77-7.5-10.66z"/>
 <path d="m79.94 177.46c0-5.87 3.37-10.64 7.5-10.64h81.12c4.14 0 7.5 4.77 7.5 10.64s-3.36 10.66-7.5 10.66h-81.12c-4.13 0-7.5-4.77-7.5-10.66z"/>
</svg>
