<svg version="1.1" viewBox="0 0 256 256" xmlns="http://www.w3.org/2000/svg">
 <title>eye</title>
 <path d="m244.38 124.76c-15.93-23.76-35.38-44.04-60.56-58.06-33.89-18.85-68.77-20.61-103.95-4-29.15 13.85-50.87 36.14-68.65 62.61-1.47 2.2-1 3.84 0.3 5.84 12.64 19 27.79 35.6 46.3 49 21 15.24 44.18 24.1 71.28 24.47a112.24 112.24 0 0 0 45.57-10.62c29.79-14.06 52.12-36.38 70.17-63.45 1.53-2.25 0.82-3.87-0.46-5.79zm-116.38 55.13a50.68 50.68 0 1 1 50.68-50.68 50.68 50.68 0 0 1-50.68 50.68z"/>
 <circle cx="128" cy="128" r="22.7"/>
</svg>
