<svg version="1.1" viewBox="0 0 256 256" xmlns="http://www.w3.org/2000/svg">
 <title>fontsmaller</title>
 <path d="M128.06,10.86A118.07,118.07,0,1,1,9.86,128.42C10,63.37,62.78,10.83,128.06,10.86ZM94.32,71.74c-3,0-6,.19-9,0C82,71.42,80.5,72.8,79.52,76c-4.68,15-9.59,29.94-14.42,44.9-5.91,18.28-11.78,36.58-17.78,54.83-.92,2.79-.58,3.84,2.6,3.74,5.86-.18,11.73-.16,17.59,0,2.62.07,3.81-1,4.44-3.42,1.25-4.83,2.78-9.59,4.06-14.41.61-2.3,1.84-3.24,4.25-3.22,9.23.09,18.47.11,27.7,0,2.6,0,3.81,1,4.46,3.42,1.31,4.94,2.9,9.81,4.28,14.74.55,2,1.55,2.9,3.69,2.87q9.36-.14,18.72,0c2.55,0,3-.89,2.21-3.17-1.94-5.67-3.73-11.38-5.58-17.08q-13.59-42-27.13-84.06c-.76-2.37-2-3.51-4.55-3.39C100.81,71.87,97.56,71.75,94.32,71.74Zm87.73,40.45c-8.11,0-16.22.06-24.34,0-2.6,0-3.94.67-3.87,3.57.14,5.86.1,11.73,0,17.6,0,2.35.84,3.38,3.28,3.38q24.71-.08,49.42,0c2.43,0,3.32-1,3.29-3.37-.08-5.61-.16-11.24,0-16.85.12-3.22-.91-4.44-4.25-4.36C197.78,112.32,189.91,112.19,182.05,112.19Z"/>
 <path d="M93.7,101.53q3.24,10.48,6.49,21c1.14,3.69,2.26,7.39,3.4,11.08.65,2.1.3,3.36-2.29,3.33-5.48-.07-11,0-16.45,0-1.48,0-3-.21-2.41-2.25,3.28-11.06,6.65-22.1,10-33.14Z"/>
</svg>
