<svg version="1.1" viewBox="0 0 256 256" xmlns="http://www.w3.org/2000/svg">
 <title>fontbigger</title>
 <path d="M128.64,10.84a117.58,117.58,0,1,1-117.8,117C11,63,63.59,10.78,128.64,10.84Zm.28,165.63v0h9.69c2.2,0,2.91-1,2.22-3.07-.82-2.48-1.55-5-2.36-7.46q-15-45.88-29.95-91.78c-1-3.11-2.52-4.38-5.83-4.25-6,.23-11.94.25-17.89,0C81.42,69.74,80,71.13,79,74.2c-4.5,14.34-9.18,28.63-13.82,42.93q-9,27.84-18.13,55.64c-.95,2.87-.23,3.8,2.75,3.73,5.71-.14,11.44-.15,17.15,0,2.75.07,4-1.11,4.7-3.65,1.24-4.68,2.76-9.29,4-14,.61-2.28,1.79-3.31,4.19-3.29q14,.1,28,0c2.41,0,3.56,1,4.16,3.3,1.13,4.33,2.67,8.55,3.71,12.89.82,3.42,2.36,5.21,6.14,4.73A59.5,59.5,0,0,1,128.92,176.47Zm60.9-21.12h0c0-3.6.14-7.21,0-10.8-.15-3.14,1.2-4.14,4.19-4.06,5.46.15,10.93-.08,16.38.08,3,.09,4.31-.86,4.17-4-.2-4.46-.19-8.94,0-13.4.13-3.17-1.2-4.11-4.18-4-5.33.16-10.68-.1-16,.09-3.32.12-4.68-.95-4.57-4.45.21-6.82,0-13.65.09-20.48,0-2.56-1-3.58-3.52-3.53-5,.1-9.93.13-14.89,0-2.9-.08-4,1.07-3.93,3.94.12,6.45,0,12.91,0,19.36,0,4.95-.16,5.09-4.94,5.11-5.59,0-11.17.08-16.76,0-2.53,0-3.6.91-3.53,3.49.12,4.34.25,8.7,0,13-.25,3.75,1.54,4.84,4.82,4.83,5.34,0,10.68.19,16,0,3.5-.14,4.56,1.27,4.49,4.58-.15,6.95,0,13.9-.07,20.85,0,2.62.8,3.9,3.63,3.82,5.09-.13,10.18-.12,15.27,0,2.63.06,3.51-1.07,3.44-3.57C189.74,162.55,189.82,159,189.82,155.35Z"/>
 <path d="m94.5 98.17c2.75 9.24 5.53 18.46 8.23 27.72 1.76 6 1.71 6-4.57 6h-11.9c-1.89 0-2.85-0.66-2.25-2.7q4.47-15.15 8.95-30.3a4.39 4.39 0 0 1 0.55-0.92z"/>
</svg>
