<svg version="1.1" viewBox="0 0 256 256" xmlns="http://www.w3.org/2000/svg">
 <title>ghost</title>
 <path d="m210.41 213.51c-7-48.29-14.31-96.55-21.26-144.86-2.44-17-8.12-32.24-21.69-43.35-18.46-15.13-39.29-19.39-61.77-10.5-23.87 9.43-35.64 28.2-39.13 53-3.06 21.76-6.44 43.48-9.64 65.2-4.49 30.5-9 61-13.3 90.66-0.28 5.74 0.81 9 3.62 11.84 10.18 10.24 28.36 13.5 41.2 6.7 8.64-4.55 16.64-4.86 25.11 0.19 9.37 5.59 19 5.39 28.52 0 4.55-2.56 9.22-4.56 14.62-3.88 4.94 0.62 9.12 3.17 13.49 5.28 14.07 6.8 25.75-0.33 36.73-7.4 8.76-5.61 4.66-14.92 3.5-22.88zm-86.33-129.51h-0.19c0 3.42 0.46 6.91-0.09 10.24-1.07 6.46-5.48 10.22-11.79 10.44-6.79 0.23-11.71-3.67-12.59-10.43a86.57 86.57 0 0 1-0.12-19.64c0.72-7.19 5.26-11.35 12.75-11.07s11.42 4.56 12 11.9c0.22 2.85 0.03 5.72 0.03 8.56zm32.31 9.43c-0.93 6.84-5.24 11.07-12 11.23-7.14 0.16-12-4-12.72-11.28a116.28 116.28 0 0 1-0.17-17.11c0.36-8 4.83-12.57 12-12.79 7.47-0.22 12.36 4.56 13 12.84 0.18 2.56 0 5.14 0 7.71h-0.11c0.07 3.15 0.42 6.34 0 9.42z"/>
 <path d="M177,96c.06,4.29-.13,7.35-3.76,8s-5-2-5.57-5c-1.17-6.73-2.29-13.48-3.25-20.25-1.32-9.31-2.09-18.72-7.35-27-1.63-2.57-2.26-5.57.93-7.48s5.31.48,7.06,2.82a31.39,31.39,0,0,1,6,13.12C173.25,72.48,175.15,84.87,177,96Z"/>
 <path d="m76.82 175.49c-2.22 15-4.29 29.34-6.53 43.66-0.49 3.12-1.58 6.66-5.65 6.18s-4.24-3.91-3.76-7.25c2.06-14.34 4-28.7 6.22-43 0.47-3.1 1.59-6.65 5.67-6.16s4.23 3.89 4.05 6.57z"/>
</svg>
