<svg id="SVGRoot" width="256px" height="256px" version="1.1" viewBox="0 0 256 256" xmlns="http://www.w3.org/2000/svg">
 <g stroke-width=".60837">
  <path d="m38.457 232.89c-0.91954-1.0161-1.0068-5.4126-1.0068-50.708 0-33.207 0.21201-50.204 0.64161-51.436 0.49034-1.4066 10.893-10.07 44.122-36.745 36.216-29.072 43.833-34.936 45.589-35.093 1.982-0.17721 4.4488 1.754 41.201 32.255 21.501 17.844 40.411 33.512 42.021 34.818 1.6106 1.3061 3.3216 3.1353 3.8023 4.0647 0.73889 1.4289 0.8739 9.4414 0.8739 51.867 0 44.804-0.10236 50.279-0.95601 51.133-0.8602 0.86021-9.6911 0.95601-88.119 0.95601-83.669 0-87.203-0.0446-88.17-1.1125zm86.598-36.91v-16.122h-31.635v13.71c0 19.283-0.81785 18.474 18.707 18.51l12.928 0.0238zm34.268 15.292c3.8681-1.6162 4.0592-2.4496 4.0592-17.704v-13.71h-31.635v32.243h12.795c9.4283 0 13.318-0.21829 14.781-0.82955zm-34.268-51.49v-15.818h-27.498l-4.1369 4.1369v27.498h31.635zm38.327 2.0684v-13.749l-2.0685-2.0684-2.0684-2.0684h-27.498v31.635h31.635z"/>
  <path d="m14.855 128.66c-6.6034-3.8291-6.4396-14.731 0.3047-20.277 1.3855-1.1394 21.819-17.593 45.409-36.563 23.589-18.97 45.15-36.384 47.913-38.698 2.7626-2.3135 6.8482-5.0604 9.0789-6.1043 7.5635-3.5394 17.474-2.897 24.019 1.5567 3.4712 2.362 95.958 76.806 99.394 80.003 3.2072 2.9849 4.7238 6.2461 4.998 10.748 0.40298 6.615-3.4494 10.63-10.193 10.623-4.2453-4e-3 -7.5683-1.4964-12.73-5.7162-2.2002-1.7988-24.259-19.598-49.02-39.554-32.301-26.033-45.363-36.22-46.236-36.06-0.66921 0.1228-23.255 17.986-50.19 39.696-26.935 21.71-49.987 39.964-51.226 40.565-3.1768 1.5407-8.6664 1.4357-11.522-0.22038z"/>
 </g>
</svg>
