<svg xmlns="http://www.w3.org/2000/svg" xmlns:xlink="http://www.w3.org/1999/xlink" viewBox="0 0 595.28 595.28"><defs><style>.cls-1{isolation:isolate;}.cls-2{fill:#4e3873;}.cls-3{fill:url(#linear-gradient);}.cls-4{fill:url(#linear-gradient-2);}.cls-5{fill:url(#linear-gradient-3);}.cls-6{fill:url(#linear-gradient-4);}.cls-11,.cls-13,.cls-7,.cls-8{mix-blend-mode:overlay;}.cls-7{fill:url(#linear-gradient-5);}.cls-8{fill:url(#linear-gradient-6);}.cls-10,.cls-9{mix-blend-mode:soft-light;}.cls-9{fill:url(#linear-gradient-7);}.cls-10{fill:url(#linear-gradient-8);}.cls-11{fill:url(#linear-gradient-9);}.cls-12{fill:url(#linear-gradient-10);}.cls-13{fill:url(#linear-gradient-11);}.cls-14,.cls-15{opacity:0.89;mix-blend-mode:hard-light;}.cls-14{fill:url(#linear-gradient-12);}.cls-15{fill:url(#linear-gradient-13);}</style><linearGradient id="linear-gradient" x1="387.23" y1="398.09" x2="387.23" y2="398.47" gradientUnits="userSpaceOnUse"><stop offset="0" stop-color="#4da3db"/><stop offset="1" stop-color="#8361a9"/></linearGradient><linearGradient id="linear-gradient-2" x1="306.68" y1="398.57" x2="306.85" y2="398.16" gradientUnits="userSpaceOnUse"><stop offset="0" stop-color="#7897ce"/><stop offset="1" stop-color="#8555a2"/></linearGradient><linearGradient id="linear-gradient-3" x1="427.82" y1="297.5" x2="157.84" y2="297.5" gradientUnits="userSpaceOnUse"><stop offset="0" stop-color="#34c3ee"/><stop offset="0.53" stop-color="#6a82d7"/><stop offset="1" stop-color="#cc26b2"/></linearGradient><linearGradient id="linear-gradient-4" x1="176.92" y1="396.03" x2="246.24" y2="202.93" gradientUnits="userSpaceOnUse"><stop offset="0" stop-color="#ce25b2"/><stop offset="1" stop-color="#8e50c5"/></linearGradient><linearGradient id="linear-gradient-5" x1="429.75" y1="364.93" x2="415.15" y2="210.95" gradientUnits="userSpaceOnUse"><stop offset="0" stop-color="#3765b0"/><stop offset="1" stop-color="#4ab5e7"/></linearGradient><linearGradient id="linear-gradient-6" x1="338.67" y1="377.81" x2="387.97" y2="288.95" xlink:href="#linear-gradient-5"/><linearGradient id="linear-gradient-7" x1="261.38" y1="234.4" x2="311.82" y2="321.85" gradientUnits="userSpaceOnUse"><stop offset="0" stop-color="#5a75d5"/><stop offset="1" stop-color="#9e75b4" stop-opacity="0.9"/></linearGradient><linearGradient id="linear-gradient-8" x1="299.2" y1="261.4" x2="340.27" y2="396.98" xlink:href="#linear-gradient-7"/><linearGradient id="linear-gradient-9" x1="334.49" y1="294.11" x2="264.46" y2="218.07" xlink:href="#linear-gradient-7"/><linearGradient id="linear-gradient-10" x1="99.51" y1="365.95" x2="231.35" y2="242.66" xlink:href="#linear-gradient-4"/><linearGradient id="linear-gradient-11" x1="344.24" y1="404.57" x2="260.81" y2="260.75" xlink:href="#linear-gradient-7"/><linearGradient id="linear-gradient-12" x1="295.15" y1="345.13" x2="451.22" y2="188.54" xlink:href="#linear-gradient-5"/><linearGradient id="linear-gradient-13" x1="349.64" y1="379.17" x2="410.08" y2="258.87" xlink:href="#linear-gradient-5"/></defs><title>Icon</title><g class="cls-1"><g id="Layer_1" data-name="Layer 1"><circle class="cls-2" cx="297.64" cy="297.64" r="233.59"/><polygon class="cls-3" points="387.43 398.52 387.04 398.52 387.23 398.06 387.43 398.52"/><polygon class="cls-4" points="306.9 398.52 306.51 398.52 306.7 398.06 306.9 398.52"/><polygon class="cls-5" points="466.15 196.75 380.82 397.77 380.63 398.24 300.5 398.24 300.3 397.77 255.19 291.5 209.9 398.24 129.37 398.24 214.9 196.75 295.5 196.75 340.57 302.92 385.62 196.75 466.15 196.75"/><polygon class="cls-6" points="209.66 398.52 295.26 197.03 129.13 398.52 209.66 398.52"/><polygon class="cls-7" points="380.85 398.1 385.52 197.03 465.88 197.03 380.85 398.1"/><polygon class="cls-8" points="385.52 197.03 380.85 398.1 300.5 398.1 385.52 197.03"/><polygon class="cls-9" points="300.5 398.32 295.26 197.03 215.47 197.25 300.5 398.32"/><polygon class="cls-10" points="295.26 197.03 300.5 398.32 380.85 398.32 295.26 197.03"/><polygon class="cls-11" points="214.68 197.14 380.29 398.21 295.26 197.14 214.68 197.14"/><polygon class="cls-12" points="215.47 197.25 295.26 197.03 129.13 398.52 215.47 197.25"/><polygon class="cls-13" points="380.85 398.42 300.5 398.42 214.66 197.14 380.85 398.42"/><polygon class="cls-14" points="385.33 196.94 299.98 398.01 465.68 196.94 385.33 196.94"/><polygon class="cls-15" points="299.98 398.06 465.68 196.98 380.33 398.06 299.98 398.06"/></g></g></svg>