<svg version="1.1" viewBox="0 0 256 256" xmlns="http://www.w3.org/2000/svg">
 <title>info</title>
 <g id="_8yMWny.tif">
  <path d="M135.83,245.83H120.68a10.71,10.71,0,0,0-1.47-.32,113.09,113.09,0,0,1-50.79-16Q26,203.85,13.79,155.63a152.91,152.91,0,0,1-3.2-20.4V121.09a149.53,149.53,0,0,1,3.65-22.36C30.15,37.07,92.59-1.38,154.47,13.58,201,24.84,230.21,54.79,242.8,100.94c1.75,6.42,2.32,13.06,3.12,19.65v15.15c-.6,4.4-1.09,8.83-1.82,13.22-7.55,45-43.29,83.08-87.63,93.54A187.49,187.49,0,0,1,135.83,245.83ZM103,179.49c-.14,3.67.23,7.2,2.17,10.45,4.15,7,10.79,9.19,18.33,9.76,8.59.65,16.33-2.36,24.2-5.21,3.59-1.3,5.8-3.07,6.05-6.93.05-.71.73-1.55,0-2.09-.56-.41-1.29.13-1.92.34A23.5,23.5,0,0,1,139.15,187c-4.37-.92-6.21-3-6.45-7.45a36.88,36.88,0,0,1,1.18-10.24c2.32-10.17,5.49-20.12,8.27-30.16a67.59,67.59,0,0,0,2.17-13.92c.76-12.25-7.73-19.25-19.13-20.16-9.11-.73-17.32,2.52-25.71,5.35-3.6,1.21-5.07,3.3-5.57,6.77-.27,1.89.12,2.37,1.91,1.76a26.11,26.11,0,0,1,7.88-1.58c8-.17,11.94,1.79,10.75,12.32-.79,7-3.14,13.75-5,20.57C106.91,159.92,103.22,169.32,103,179.49Zm35.6-90.39c.58,0,1.17,0,1.76,0,12.73-.74,20.21-14.65,13.43-25-5.25-8-17.06-10.41-25-5.05s-10.17,14.86-5.16,22.22C127.12,86.48,132.25,89,138.57,89.1Z"/>
 </g>
</svg>
