<svg version="1.1" viewBox="0 0 256 256" xmlns="http://www.w3.org/2000/svg">
 <title>key</title>
 <path d="M10.44,223.44c0-5.77.15-11.54-.06-17.3a9.52,9.52,0,0,1,3.19-7.6q43.29-43.14,86.52-86.34c2.53-2.52,3.24-4.59,2.18-8.15-12.45-41.85,16.75-86.46,60-91.9,38.6-4.85,72.88,18.55,81.41,56.46,5.34,23.73-.33,45.25-16.33,63.78-14.68,17-33.6,24.83-55.77,25.07a59.11,59.11,0,0,1-20-3.2,5.47,5.47,0,0,0-6.35,1.37c-5.74,5.41-11.64,10.66-17.63,15.81a6.54,6.54,0,0,0-2.57,5.47c.08,7.9-.08,15.8.08,23.69.06,3.22-1,4.49-4.32,4.42-7.52-.16-15,0-22.56-.09-3.08-.06-4.3,1-4.17,4.13.18,4.38,0,8.78.07,13.16C94.24,225,93,226,90.34,226c-4.76-.09-9.53,0-14.29,0a6.09,6.09,0,0,0-5.19,2.37c-4.46,5.25-9.14,10.32-13.66,15.52a7.13,7.13,0,0,1-5.88,2.65c-12.16-.09-24.32-.15-36.48,0-3.54.05-4.56-1.29-4.46-4.63C10.57,235.73,10.44,229.58,10.44,223.44ZM216.62,66.35a25.82,25.82,0,1,0-51.63-.5c-.22,13.79,11.92,26,25.81,26A26.08,26.08,0,0,0,216.62,66.35ZM32.93,208.85c1-.92,1.92-1.74,2.79-2.61L102.93,139c.44-.44.86-.92,1.33-1.32,1.35-1.15,1.34-2.25,0-3.43a17.33,17.33,0,0,1-2.37-2.4c-2-2.63-3.53-2.5-5.92-.1q-33.74,34-67.66,67.82c-.88.88-2.8,1.76-1.69,3.29A21.16,21.16,0,0,0,32.93,208.85Z"/>
</svg>
