<svg version="1.1" viewBox="0 0 256 256" xmlns="http://www.w3.org/2000/svg">
 <title>lock_closed</title>
 <path d="M194,97.06h-6.43V51.19c0-22.08-19.64-40-43.88-40h-21.3c-24.24,0-43.88,17.91-43.88,40V97.06H72a23.52,23.52,0,0,0-23.45,23.45v101A23.52,23.52,0,0,0,72,245H194a23.52,23.52,0,0,0,23.45-23.46v-101A23.52,23.52,0,0,0,194,97.06ZM107.87,62c0-12.81,7.4-23.2,21.46-23.2h7.35c12.82,0,19.44,8.65,21.2,19.9a4.08,4.08,0,0,0,0,.61V97.06h-50ZM133,193.77A22.76,22.76,0,1,1,155.76,171,22.76,22.76,0,0,1,133,193.77Z"/>
</svg>
