<svg xmlns="http://www.w3.org/2000/svg" xmlns:xlink="http://www.w3.org/1999/xlink" viewBox="0 0 595.28 141.14"><defs><style>.cls-1{isolation:isolate;}.cls-2{fill:url(#linear-gradient);}.cls-3{fill:url(#linear-gradient-2);}.cls-4{fill:url(#linear-gradient-3);}.cls-5{fill:url(#linear-gradient-4);}.cls-6{fill:url(#linear-gradient-5);}.cls-7{fill:url(#linear-gradient-6);}.cls-8{fill:url(#linear-gradient-7);}.cls-9{fill:url(#linear-gradient-8);}.cls-10{fill:url(#linear-gradient-9);}.cls-11{fill:url(#linear-gradient-10);}.cls-12,.cls-13,.cls-16,.cls-18,.cls-21,.cls-22,.cls-25,.cls-26,.cls-32,.cls-34{mix-blend-mode:overlay;}.cls-12{fill:url(#linear-gradient-11);}.cls-13{fill:url(#linear-gradient-12);}.cls-14,.cls-15,.cls-23,.cls-24,.cls-30,.cls-31{mix-blend-mode:soft-light;}.cls-14{fill:url(#linear-gradient-13);}.cls-15{fill:url(#linear-gradient-14);}.cls-16{fill:url(#linear-gradient-15);}.cls-17{fill:url(#linear-gradient-16);}.cls-18{fill:url(#linear-gradient-17);}.cls-19,.cls-20,.cls-27,.cls-28{opacity:0.89;mix-blend-mode:hard-light;}.cls-19{fill:url(#linear-gradient-18);}.cls-20{fill:url(#linear-gradient-19);}.cls-21{fill:url(#linear-gradient-20);}.cls-22{fill:url(#linear-gradient-21);}.cls-23{fill:url(#linear-gradient-22);}.cls-24{fill:url(#linear-gradient-23);}.cls-25{fill:url(#linear-gradient-24);}.cls-26{fill:url(#linear-gradient-25);}.cls-27{fill:url(#linear-gradient-26);}.cls-28{fill:url(#linear-gradient-27);}.cls-29,.cls-33{mix-blend-mode:darken;}.cls-29{fill:url(#linear-gradient-28);}.cls-30{fill:url(#linear-gradient-29);}.cls-31{fill:url(#linear-gradient-30);}.cls-32{fill:url(#linear-gradient-31);}.cls-33{fill:url(#linear-gradient-32);}.cls-34{fill:url(#linear-gradient-33);}</style><linearGradient id="linear-gradient" x1="195.67" y1="126.63" x2="195.67" y2="126.85" gradientUnits="userSpaceOnUse"><stop offset="0" stop-color="#4da3db"/><stop offset="1" stop-color="#8361a9"/></linearGradient><linearGradient id="linear-gradient-2" x1="150.65" y1="126.91" x2="150.74" y2="126.68" gradientUnits="userSpaceOnUse"><stop offset="0" stop-color="#7897ce"/><stop offset="1" stop-color="#8555a2"/></linearGradient><linearGradient id="linear-gradient-3" x1="481.1" y1="126.63" x2="481.1" y2="126.85" xlink:href="#linear-gradient"/><linearGradient id="linear-gradient-4" x1="436.08" y1="126.91" x2="436.17" y2="126.68" xlink:href="#linear-gradient-2"/><linearGradient id="linear-gradient-5" x1="482.15" y1="126.63" x2="482.15" y2="126.85" xlink:href="#linear-gradient"/><linearGradient id="linear-gradient-6" x1="437.13" y1="126.91" x2="437.23" y2="126.68" xlink:href="#linear-gradient-2"/><linearGradient id="linear-gradient-7" x1="218.36" y1="70.41" x2="67.45" y2="70.41" gradientUnits="userSpaceOnUse"><stop offset="0" stop-color="#34c3ee"/><stop offset="0.53" stop-color="#6a82d7"/><stop offset="1" stop-color="#cc26b2"/></linearGradient><linearGradient id="linear-gradient-8" x1="369.38" y1="70.57" x2="268.25" y2="70.57" xlink:href="#linear-gradient-7"/><linearGradient id="linear-gradient-9" x1="521.87" y1="70.41" x2="388.46" y2="70.41" xlink:href="#linear-gradient-7"/><linearGradient id="linear-gradient-10" x1="78.12" y1="125.49" x2="116.87" y2="17.55" gradientUnits="userSpaceOnUse"><stop offset="0" stop-color="#ce25b2"/><stop offset="1" stop-color="#8e50c5"/></linearGradient><linearGradient id="linear-gradient-11" x1="219.44" y1="108.1" x2="211.27" y2="22.04" gradientUnits="userSpaceOnUse"><stop offset="0" stop-color="#3765b0"/><stop offset="1" stop-color="#4ab5e7"/></linearGradient><linearGradient id="linear-gradient-12" x1="168.53" y1="115.3" x2="196.08" y2="65.64" xlink:href="#linear-gradient-11"/><linearGradient id="linear-gradient-13" x1="125.33" y1="35.14" x2="153.52" y2="84.02" gradientUnits="userSpaceOnUse"><stop offset="0" stop-color="#5a75d5"/><stop offset="1" stop-color="#9e75b4" stop-opacity="0.9"/></linearGradient><linearGradient id="linear-gradient-14" x1="146.46" y1="50.23" x2="169.42" y2="126.01" xlink:href="#linear-gradient-13"/><linearGradient id="linear-gradient-15" x1="166.19" y1="68.52" x2="127.05" y2="26.01" xlink:href="#linear-gradient-13"/><linearGradient id="linear-gradient-16" x1="34.85" y1="108.67" x2="108.54" y2="39.76" xlink:href="#linear-gradient-10"/><linearGradient id="linear-gradient-17" x1="171.64" y1="130.26" x2="125.01" y2="49.87" xlink:href="#linear-gradient-13"/><linearGradient id="linear-gradient-18" x1="144.2" y1="97.03" x2="231.44" y2="9.51" xlink:href="#linear-gradient-11"/><linearGradient id="linear-gradient-19" x1="174.66" y1="116.06" x2="208.44" y2="48.82" xlink:href="#linear-gradient-11"/><linearGradient id="linear-gradient-20" x1="504.87" y1="108.1" x2="496.7" y2="22.04" xlink:href="#linear-gradient-11"/><linearGradient id="linear-gradient-21" x1="453.96" y1="115.3" x2="481.51" y2="65.64" xlink:href="#linear-gradient-11"/><linearGradient id="linear-gradient-22" x1="410.76" y1="35.14" x2="438.95" y2="84.02" xlink:href="#linear-gradient-13"/><linearGradient id="linear-gradient-23" x1="431.89" y1="50.23" x2="454.85" y2="126.01" xlink:href="#linear-gradient-13"/><linearGradient id="linear-gradient-24" x1="451.62" y1="68.52" x2="412.48" y2="26.01" xlink:href="#linear-gradient-13"/><linearGradient id="linear-gradient-25" x1="457.07" y1="130.26" x2="410.43" y2="49.87" xlink:href="#linear-gradient-13"/><linearGradient id="linear-gradient-26" x1="429.63" y1="97.03" x2="516.87" y2="9.51" xlink:href="#linear-gradient-11"/><linearGradient id="linear-gradient-27" x1="460.09" y1="116.06" x2="493.87" y2="48.82" xlink:href="#linear-gradient-11"/><linearGradient id="linear-gradient-28" x1="269.12" y1="125.49" x2="307.87" y2="17.55" xlink:href="#linear-gradient-10"/><linearGradient id="linear-gradient-29" x1="316.33" y1="35.14" x2="344.52" y2="84.02" xlink:href="#linear-gradient-13"/><linearGradient id="linear-gradient-30" x1="337.46" y1="50.23" x2="360.42" y2="126.01" xlink:href="#linear-gradient-13"/><linearGradient id="linear-gradient-31" x1="357.19" y1="68.52" x2="318.05" y2="26.01" xlink:href="#linear-gradient-13"/><linearGradient id="linear-gradient-32" x1="225.85" y1="108.67" x2="299.54" y2="39.76" xlink:href="#linear-gradient-10"/><linearGradient id="linear-gradient-33" x1="362.64" y1="130.26" x2="316.01" y2="49.87" xlink:href="#linear-gradient-13"/></defs><title>oldlogo copy</title><g class="cls-1"><g id="Layer_1" data-name="Layer 1"><polygon class="cls-2" points="195.78 126.88 195.56 126.88 195.67 126.62 195.78 126.88"/><polygon class="cls-3" points="150.77 126.88 150.55 126.88 150.66 126.62 150.77 126.88"/><polygon class="cls-4" points="481.21 126.88 480.99 126.88 481.1 126.62 481.21 126.88"/><polygon class="cls-5" points="436.2 126.88 435.98 126.88 436.09 126.62 436.2 126.88"/><polygon class="cls-6" points="482.26 126.88 482.04 126.88 482.15 126.62 482.26 126.88"/><polygon class="cls-7" points="437.25 126.88 437.03 126.88 437.14 126.62 437.25 126.88"/><polygon class="cls-8" points="239.78 14.1 192.09 126.46 191.98 126.72 147.19 126.72 147.08 126.46 121.87 67.06 96.55 126.72 51.54 126.72 99.35 14.1 144.4 14.1 169.59 73.44 194.77 14.1 239.78 14.1"/><polygon class="cls-9" points="383.03 126.88 338.03 126.88 312.76 67.35 287.49 126.88 242.48 126.88 290.25 14.33 290.28 14.26 335.23 14.26 335.26 14.33 383.03 126.88"/><polygon class="cls-10" points="525.06 14.1 477.26 126.72 432.08 126.72 384.28 14.1 429.28 14.1 454.67 73.9 480.05 14.1 525.06 14.1"/><polygon class="cls-11" points="96.42 126.88 144.27 14.26 51.41 126.88 96.42 126.88"/><polygon class="cls-12" points="192.1 126.64 194.72 14.26 239.63 14.26 192.1 126.64"/><polygon class="cls-13" points="194.72 14.26 192.1 126.64 147.19 126.64 194.72 14.26"/><polygon class="cls-14" points="147.19 126.76 144.27 14.26 99.67 14.38 147.19 126.76"/><polygon class="cls-15" points="144.27 14.26 147.19 126.76 192.1 126.76 144.27 14.26"/><polygon class="cls-16" points="99.22 14.32 191.79 126.7 144.27 14.32 99.22 14.32"/><polygon class="cls-17" points="99.67 14.38 144.27 14.26 51.41 126.88 99.67 14.38"/><polygon class="cls-18" points="192.1 126.82 147.19 126.82 99.22 14.32 192.1 126.82"/><polygon class="cls-19" points="194.61 14.2 146.9 126.59 239.52 14.2 194.61 14.2"/><polygon class="cls-20" points="146.9 126.62 239.52 14.23 191.81 126.62 146.9 126.62"/><polygon class="cls-21" points="477.53 126.64 480.14 14.26 525.06 14.26 477.53 126.64"/><polygon class="cls-22" points="480.14 14.26 477.53 126.64 432.62 126.64 480.14 14.26"/><polygon class="cls-23" points="432.62 126.76 429.69 14.26 385.1 14.38 432.62 126.76"/><polygon class="cls-24" points="429.69 14.26 432.62 126.76 477.53 126.76 429.69 14.26"/><polygon class="cls-25" points="384.65 14.32 477.22 126.7 429.69 14.32 384.65 14.32"/><polygon class="cls-26" points="477.53 126.82 432.62 126.82 384.64 14.32 477.53 126.82"/><polygon class="cls-27" points="480.04 14.2 432.33 126.59 524.95 14.2 480.04 14.2"/><polygon class="cls-28" points="432.33 126.62 524.95 14.23 477.24 126.62 432.33 126.62"/><polygon class="cls-29" points="287.42 126.88 335.26 14.26 242.41 126.88 287.42 126.88"/><polygon class="cls-30" points="338.19 126.76 335.26 14.26 290.67 14.38 338.19 126.76"/><polygon class="cls-31" points="335.26 14.26 338.19 126.76 383.1 126.76 335.26 14.26"/><polygon class="cls-32" points="290.22 14.32 382.79 126.7 335.26 14.32 290.22 14.32"/><polygon class="cls-33" points="290.67 14.38 335.26 14.26 242.41 126.88 290.67 14.38"/><polygon class="cls-34" points="383.1 126.82 338.19 126.82 290.21 14.32 383.1 126.82"/></g></g></svg>