<?xml version="1.0" encoding="UTF-8"?>
<svg width="1024px" height="1024px" viewBox="0 0 1024 1024" version="1.1" xmlns="http://www.w3.org/2000/svg" xmlns:xlink="http://www.w3.org/1999/xlink">
    <!-- Generator: Sketch 63.1 (92452) - https://sketch.com -->
    <title>N</title>
    <desc>Created with Sketch.</desc>
    <defs>
        <linearGradient x1="72.1705188%" y1="27.9284045%" x2="27.1411916%" y2="73.5920861%" id="linearGradient-1">
            <stop stop-color="#0050C8" offset="0%"></stop>
            <stop stop-color="#B400BE" offset="100%"></stop>
        </linearGradient>
    </defs>
    <g id="N" stroke="none" stroke-width="1" fill="none" fill-rule="evenodd">
        <rect id="Background" x="0" y="0" width="1024" height="1024"></rect>
        <path d="M673.25,259.375 C686.24375,259.375 696.78725,270.401125 696.996821,283.356822 L697,283.75 L697,470 L749.4375,470 C762.692334,470 773.4375,480.745166 773.4375,494 C773.4375,507.254834 762.692334,518 749.4375,518 L697,518 L697,678.75 C697,691.74375 687.811563,701.674688 674.892619,701.872007 L674.5,701.875 L672,701.875 C661.541016,701.875 654.110138,695.818787 646.726574,687.283311 L646.375,686.875 L514.318,518 L375.125,518 L375.125,678.75 C375.125,691.74375 364.711437,702.899813 351.161555,703.125 L350.75,703.125 C337.75625,703.125 327.21275,692.098875 327.003179,679.143178 L327,678.75 L327,518 L274,518 C260.745166,518 250,507.254834 250,494 C250,480.745166 260.745166,470 274,470 L327,470 L327,285 C327,272.00625 338.026125,260.850188 350.981822,260.628366 L351.375,260.625 L358.25,260.625 C369.153846,260.625 375.947781,265.909172 382.615257,274.201256 L383.25,275 L536.156,470 L648.875,470 L648.875,283.75 C648.875,270.75625 659.288562,259.600188 672.838445,259.375 L673.25,259.375 Z M648.375,518 L574.821455,518 C574.545313,518 574.321455,518.223858 574.321455,518.5 C574.321455,518.611865 574.358968,518.720498 574.427995,518.808527 L647.981539,612.610579 C648.151934,612.827881 648.466224,612.865908 648.683527,612.695513 C648.804399,612.600733 648.875,612.455654 648.875,612.302052 L648.875,518.5 C648.875,518.223858 648.651142,518 648.375,518 Z M375.125,341.451083 L375.125,469.5 C375.125,469.776142 375.348858,470 375.625,470 L475.757283,470 C476.033426,470 476.257283,469.776142 476.257283,469.5 C476.257283,469.388364 476.219923,469.279939 476.151155,469.191998 L376.018872,341.143081 C375.848767,340.925552 375.534528,340.887106 375.316998,341.057211 C375.195815,341.151974 375.125,341.297247 375.125,341.451083 Z" id="Shape" fill="url(#linearGradient-1)" fill-rule="nonzero"></path>
    </g>
</svg>