<?xml version="1.0" encoding="UTF-8"?>
<svg width="1024px" height="1024px" viewBox="0 0 1024 1024" version="1.1" xmlns="http://www.w3.org/2000/svg" xmlns:xlink="http://www.w3.org/1999/xlink">
    <!-- Generator: Sketch 63.1 (92452) - https://sketch.com -->
    <title>xN</title>
    <desc>Created with Sketch.</desc>
    <g id="xN" stroke="none" stroke-width="1" fill="white" fill-rule="evenodd">
        <rect id="Background" x="0" y="0" width="1024" height="1024"></rect>
        <path d="M375.125,560.6875 L375.125,709.375 L375.125,709.375 C375.125,722.5 364.5,733.75 350.75,733.75 C337.75625,733.75 327.21275,722.723875 327.003179,709.768178 L327,709.375 L327,560.6875 C327,547.398148 337.773148,536.625 351.0625,536.625 C364.351852,536.625 375.125,547.398148 375.125,560.6875 Z M358.25,291.25 C369.153846,291.25 375.947781,296.534172 382.615257,304.826256 L383.25,305.625 L647.981539,643.235574 C648.151933,643.452877 648.466223,643.490904 648.683526,643.320509 C648.804399,643.225729 648.875,643.08065 648.875,642.927048 L648.875,560.6875 C648.875,547.398148 659.648148,536.625 672.9375,536.625 C686.226852,536.625 697,547.398148 697,560.6875 L697,709.375 L697,709.375 C697,722.36875 687.811563,732.299688 674.892619,732.5 L674.5,732.5 L672,732.5 C661.541016,732.5 654.110138,726.443787 646.726574,717.908311 L646.375,717.5 L376.018872,371.768086 C375.848768,371.550556 375.534529,371.51211 375.316999,371.682214 C375.195815,371.776978 375.125,371.92225 375.125,372.076087 L375.125,464.5625 C375.125,477.851852 364.351852,488.625 351.0625,488.625 C337.773148,488.625 327,477.851852 327,464.5625 L327,315.625 L327,315.625 C327,302.63125 338.026125,291.475188 350.981822,291.25 L351.375,291.25 L358.25,291.25 Z M673.25,290 C686.24375,290 696.78725,301.026125 696.996821,313.981822 L697,314.375 L697,464.5625 C697,477.851852 686.226852,488.625 672.9375,488.625 C659.648148,488.625 648.875,477.851852 648.875,464.5625 L648.875,314.375 L648.875,314.375 C648.875,301.38125 659.288563,290.225188 672.838445,290.003366 L673.25,290 Z" id="Shape" fill="#000000" fill-rule="nonzero"></path>
    </g>
</svg>