<?xml version="1.0" encoding="UTF-8"?>
<svg width="1024px" height="1024px" viewBox="0 0 1024 1024" version="1.1" xmlns="http://www.w3.org/2000/svg" xmlns:xlink="http://www.w3.org/1999/xlink">
    <!-- Generator: Sketch 63.1 (92452) - https://sketch.com -->
    <title>xN</title>
    <desc>Created with Sketch.</desc>
    <g id="xN" stroke="none" stroke-width="1" fill="none" fill-rule="evenodd">
        <rect id="Background" x="0" y="0" width="1024" height="1024"></rect>
        <path d="M375.125,542.0625 L375.125,678.75 L375.125,678.75 C375.125,691.875 364.5,703.125 350.75,703.125 C337.75625,703.125 327.21275,692.098875 327.003179,679.143178 L327,678.75 L327,542.0625 C327,528.773148 337.773148,518 351.0625,518 C364.351852,518 375.125,528.773148 375.125,542.0625 Z M358.25,260.625 C369.153846,260.625 375.947781,265.909172 382.615257,274.201256 L383.25,275 L647.981539,612.610574 C648.151933,612.827877 648.466223,612.865904 648.683526,612.695509 C648.804399,612.600729 648.875,612.45565 648.875,612.302048 L648.875,542.0625 C648.875,528.773148 659.648148,518 672.9375,518 C686.226852,518 697,528.773148 697,542.0625 L697,678.75 L697,678.75 C697,691.74375 687.811563,701.674688 674.892619,701.875 L674.5,701.875 L672,701.875 C661.541016,701.875 654.110138,695.818787 646.726574,687.283311 L646.375,686.875 L376.018872,341.143086 C375.848768,340.925556 375.534529,340.88711 375.316999,341.057214 C375.195815,341.151978 375.125,341.29725 375.125,341.451087 L375.125,445.9375 C375.125,459.226852 364.351852,470 351.0625,470 C337.773148,470 327,459.226852 327,445.9375 L327,285 L327,285 C327,272.00625 338.026125,260.850188 350.981822,260.625 L351.375,260.625 L358.25,260.625 Z M673.25,259.375 C686.24375,259.375 696.78725,270.401125 696.996821,283.356822 L697,283.75 L697,445.9375 C697,459.226852 686.226852,470 672.9375,470 C659.648148,470 648.875,459.226852 648.875,445.9375 L648.875,283.75 L648.875,283.75 C648.875,270.75625 659.288563,259.600188 672.838445,259.378366 L673.25,259.375 Z" id="Shape" fill="#1E1E1E" fill-rule="nonzero"></path>
    </g>
</svg>