<?xml version="1.0" encoding="UTF-8"?>
<svg width="1024px" height="1024px" viewBox="0 0 1024 1024" version="1.1" xmlns="http://www.w3.org/2000/svg" xmlns:xlink="http://www.w3.org/1999/xlink">
    <!-- Generator: Sketch 63.1 (92452) - https://sketch.com -->
    <title>xN</title>
    <desc>Created with Sketch.</desc>
    <g id="xN" stroke="none" stroke-width="1" fill="none" fill-rule="evenodd">
        <rect id="Background" x="0" y="0" width="1024" height="1024"></rect>
        <path d="M375,530.0625 L375,678.75 L375,678.75 C375,691.875 364.375,703.125 350.625,703.125 C337.63125,703.125 327.08775,692.098875 326.878179,679.143178 L326.875,678.75 L326.875,530.0625 C326.875,516.773148 337.648148,506 350.9375,506 C364.226852,506 375,516.773148 375,530.0625 Z M358.125,260.625 C369.028846,260.625 375.822781,265.909172 382.490257,274.201256 L383.125,275 L647.856539,612.610574 C648.026933,612.827877 648.341223,612.865904 648.558526,612.695509 C648.679399,612.600729 648.75,612.45565 648.75,612.302048 L648.75,530.0625 C648.75,516.773148 659.523148,506 672.8125,506 C686.101852,506 696.875,516.773148 696.875,530.0625 L696.875,678.75 L696.875,678.75 C696.875,691.74375 687.686563,701.674688 674.767619,701.875 L674.375,701.875 L671.875,701.875 C661.416016,701.875 653.985138,695.818787 646.601574,687.283311 L646.25,686.875 L375.893872,341.143086 C375.723768,340.925556 375.409529,340.88711 375.191999,341.057214 C375.070815,341.151978 375,341.29725 375,341.451087 L375,433.9375 C375,447.226852 364.226852,458 350.9375,458 C337.648148,458 326.875,447.226852 326.875,433.9375 L326.875,285 L326.875,285 C326.875,272.00625 337.901125,260.850188 350.856822,260.625 L351.25,260.625 L358.125,260.625 Z M673.125,259.375 C686.11875,259.375 696.66225,270.401125 696.871821,283.356822 L696.875,283.75 L696.875,433.9375 C696.875,447.226852 686.101852,458 672.8125,458 C659.523148,458 648.75,447.226852 648.75,433.9375 L648.75,283.75 L648.75,283.75 C648.75,270.75625 659.163563,259.600188 672.713445,259.378366 L673.125,259.375 Z" id="Shape" fill="#000000" fill-rule="nonzero"></path>
    </g>
</svg>