<?xml version="1.0" encoding="UTF-8"?>
<svg width="1024px" height="1024px" viewBox="0 0 1024 1024" version="1.1" xmlns="http://www.w3.org/2000/svg" xmlns:xlink="http://www.w3.org/1999/xlink">
    <!-- Generator: Sketch 63.1 (92452) - https://sketch.com -->
    <title>N</title>
    <desc>Created with Sketch.</desc>
    <defs>
        <linearGradient x1="74.3243253%" y1="26.6660388%" x2="25.2769557%" y2="73.0792622%" id="linearGradient-1">
            <stop stop-color="#0050C8" offset="0%"></stop>
            <stop stop-color="#B400BE" offset="100%"></stop>
        </linearGradient>
    </defs>
    <g id="N" stroke="none" stroke-width="1" fill="none" fill-rule="evenodd">
        <rect id="Background" x="0" y="0" width="1024" height="1024"></rect>
        <path d="M673.125,259.375 C686.11875,259.375 696.66225,270.401125 696.871821,283.356822 L696.875,283.75 L696.875,457.5 C696.875,457.776142 697.098858,458 697.375,458 L749,458 L749,458 C762.254834,458 773,468.745166 773,482 C773,495.254834 762.254834,506 749,506 L697.375,506 C697.098858,506 696.875,506.223858 696.875,506.5 L696.875,678.75 L696.875,678.75 C696.875,691.74375 687.686563,701.674688 674.767619,701.872007 L674.375,701.875 L671.875,701.875 C661.416016,701.875 653.985138,695.818787 646.601574,687.283311 L646.25,686.875 L504.95914,506.191999 C504.864376,506.070815 504.719104,506 504.565267,506 L375.5,506 C375.223858,506 375,506.223858 375,506.5 L375,678.75 L375,678.75 C375,691.74375 364.586437,702.899813 351.036555,703.125 L350.625,703.125 C337.63125,703.125 327.08775,692.098875 326.878179,679.143178 L326.875,678.75 L326.875,506.5 C326.875,506.223858 326.651142,506 326.375,506 L275,506 L275,506 C261.745166,506 251,495.254834 251,482 C251,468.745166 261.745166,458 275,458 L326.375,458 C326.651142,458 326.875,457.776142 326.875,457.5 L326.875,285 L326.875,285 C326.875,272.00625 337.901125,260.850188 350.856822,260.628366 L351.25,260.625 L358.125,260.625 C369.028846,260.625 375.822781,265.909172 382.490257,274.201256 L383.125,275 L526.470859,457.808525 C526.565639,457.929399 526.710718,458 526.86432,458 L648.25,458 C648.526142,458 648.75,457.776142 648.75,457.5 L648.75,283.75 L648.75,283.75 C648.75,270.75625 659.163563,259.600188 672.713445,259.375 L673.125,259.375 Z M648.25,506 L565.287451,506 C565.011308,506 564.787451,506.223858 564.787451,506.5 C564.787451,506.611864 564.824963,506.720497 564.893989,506.808525 L647.856538,612.610569 C648.026932,612.827872 648.341222,612.8659 648.558525,612.695506 C648.679399,612.600725 648.75,612.455647 648.75,612.302044 L648.75,506.5 C648.75,506.223858 648.526142,506 648.25,506 Z M375,341.451085 L375,457.5 C375,457.776142 375.223858,458 375.5,458 L466.248285,458 C466.524427,458 466.748285,457.776142 466.748285,457.5 C466.748285,457.388364 466.710925,457.279939 466.642157,457.191999 L375.893872,341.143084 C375.723768,340.925554 375.409528,340.887108 375.191999,341.057213 C375.070815,341.151976 375,341.297249 375,341.451085 Z" id="Shape" fill="url(#linearGradient-1)" fill-rule="nonzero"></path>
    </g>
</svg>