<?xml version="1.0" encoding="UTF-8"?>
<svg width="3671px" height="1424px" viewBox="0 0 3671 1424" version="1.1" xmlns="http://www.w3.org/2000/svg" xmlns:xlink="http://www.w3.org/1999/xlink">
    <!-- Generator: Sketch 63.1 (92452) - https://sketch.com -->
    <title>Web | Header</title>
    <desc>Created with Sketch.</desc>
    <defs>
        <linearGradient x1="85.0995%" y1="23.7603521%" x2="15.5120713%" y2="76.010278%" id="linearGradient-1">
            <stop stop-color="#0A87F5" offset="0%"></stop>
            <stop stop-color="#DC1EB9" offset="100%"></stop>
        </linearGradient>
        <path d="M250,402.5 C260.5,402.5 269,394 269,383 L269,239.5 C269,178 232.5,136 170,136 C125.5,136 98.5,158.5 81.5,186.5 L81.5,158.5 C81.5,147.5 73,139 62,139 C51.5,139 43,148 43,158.5 L43,383 C43,394 51.5,402.5 62.5,402.5 C73.5,402.5 81.5,394 81.5,383 L81.5,252 C81.5,203.5 114.5,171 159,171 C204.5,171 230.5,201 230.5,249 L230.5,383 C230.5,394 239,402.5 250,402.5 Z M448,405.5 C493.5,405.5 523.5,384.5 541.5,361 L541.5,384.5 C541.5,394.5 549,402.5 560,402.5 C570.5,402.5 578.5,394.5 578.5,383.5 L578.5,242 C578.5,209 569.5,184 552,166.5 C533,147.5 505,138 468.5,138 C435.5,138 409.5,144.5 384,155.5 C379,157.5 373.5,163.5 373.5,171.5 C373.5,180.5 381.5,188 390.5,188 C392.5,188 395,187.5 397.5,186.5 C416.5,178 438.5,172 464.5,172 C513,172 541.5,196 541.5,242.5 L541.5,251.5 C518.5,245 495,240.5 462,240.5 C396.5,240.5 351.5,269.5 351.5,324 L351.5,325 C351.5,378 400,405.5 448,405.5 Z M455.5,375 C420.5,375 390.5,356 390.5,323.5 L390.5,322.5 C390.5,290 417.5,269 466,269 C497.5,269 523,274.5 542,280 L542,305 C542,346 503,375 455.5,375 Z M775,404 C785.5,404 792,397.5 796.5,387.5 L894,167.5 C895,165 896,161.5 896,158 C896,147.5 887.5,139 877,139 C867,139 861.5,145.5 859,153 L774,356 L690.5,154 C687.5,145.5 682,139 671,139 C660,139 651.5,148 651.5,158 C651.5,161.5 653,165 654,168.5 L751,387.5 C755.5,397.5 762.5,404 773,404 L775,404 Z M1086,406 C1129.5,406 1159,389 1183.5,364.5 C1186.5,361.5 1188.5,357 1188.5,352.5 C1188.5,343.5 1180.5,335 1171,335 C1166,335 1162.5,337.5 1160,340 C1141,358 1117.5,371.5 1088,371.5 C1034,371.5 993,327 993,271 L993,270 C993,214.5 1033,170 1085.5,170 C1116.5,170 1137.5,184 1156,201 C1159,203.5 1163.5,205.5 1168.5,205.5 C1178.5,205.5 1187,197.5 1187,187 C1187,181 1184,176 1181,173.5 C1158,152.5 1129,136 1086,136 C1010.5,136 953.5,198 953.5,271 L953.5,272 C953.5,344.5 1010.5,406 1086,406 Z M1385.5,406 C1463.5,406 1521,344 1521,271 L1521,270 C1521,197 1464,136 1386.5,136 C1308.5,136 1251.5,198 1251.5,271 L1251.5,272 C1251.5,345 1308,406 1385.5,406 Z M1386.5,371.5 C1332,371.5 1291,326.5 1291,271 L1291,270 C1291,215.5 1329.5,170 1385.5,170 C1440,170 1481.5,215.5 1481.5,271 L1481.5,272 C1481.5,326.5 1442.5,371.5 1386.5,371.5 Z M1633,87.5 C1646,87.5 1656,79 1656,67 L1656,60.5 C1656,48 1646,40 1633,40 C1620.5,40 1610.5,48 1610.5,60.5 L1610.5,67 C1610.5,79 1620.5,87.5 1633,87.5 Z M1633.5,402.5 C1644.5,402.5 1652.5,394 1652.5,383 L1652.5,158.5 C1652.5,147.5 1644,139 1633,139 C1622.5,139 1614,148 1614,158.5 L1614,383 C1614,394 1622.5,402.5 1633.5,402.5 Z M1969,402.5 C1979.5,402.5 1988,394 1988,383 L1988,239.5 C1988,178 1951.5,136 1889,136 C1844.5,136 1817.5,158.5 1800.5,186.5 L1800.5,158.5 C1800.5,147.5 1792,139 1781,139 C1770.5,139 1762,148 1762,158.5 L1762,383 C1762,394 1770.5,402.5 1781.5,402.5 C1792.5,402.5 1800.5,394 1800.5,383 L1800.5,252 C1800.5,203.5 1833.5,171 1878,171 C1923.5,171 1949.5,201 1949.5,249 L1949.5,383 C1949.5,394 1958,402.5 1969,402.5 Z" id="path-2"></path>
    </defs>
    <g id="Web-|-Header" stroke="none" stroke-width="1" fill="none" fill-rule="evenodd">
        <g id="N" transform="translate(200.000000, 200.000000)">
            <rect id="Background" stroke="#F0F0F0" stroke-width="50" fill="#FFFFFF" x="0" y="0" width="1024" height="1024" rx="512"></rect>
            <path d="M673.125,290 C686.11875,290 696.66225,301.026125 696.871821,313.981822 L696.875,314.375 L696.875,488.125 C696.875,488.401142 697.098858,488.625 697.375,488.625 L734,488.625 L734,488.625 C747.254834,488.625 758,499.370166 758,512.625 C758,525.879834 747.254834,536.625 734,536.625 L697.375,536.625 C697.098858,536.625 696.875,536.848858 696.875,537.125 L696.875,709.375 L696.875,709.375 C696.875,722.36875 687.686562,732.299688 674.767619,732.497007 L674.375,732.5 L671.875,732.5 C661.416016,732.5 653.985138,726.443787 646.601574,717.908311 L646.25,717.5 L504.95914,536.816999 C504.864376,536.695815 504.719104,536.625 504.565267,536.625 L375.5,536.625 C375.223858,536.625 375,536.848858 375,537.125 L375,709.375 L375,709.375 C375,722.36875 364.586437,733.524813 351.036555,733.75 L350.625,733.75 C337.63125,733.75 327.08775,722.723875 326.878179,709.768178 L326.875,709.375 L326.875,537.125 C326.875,536.848858 326.651142,536.625 326.375,536.625 L290,536.625 L290,536.625 C276.745166,536.625 266,525.879834 266,512.625 C266,499.370166 276.745166,488.625 290,488.625 L326.375,488.625 C326.651142,488.625 326.875,488.401142 326.875,488.125 L326.875,315.625 L326.875,315.625 C326.875,302.63125 337.901125,291.475188 350.856822,291.253366 L351.25,291.25 L358.125,291.25 C369.028846,291.25 375.822781,296.534172 382.490257,304.826256 L383.125,305.625 L526.470859,488.433525 C526.565639,488.554399 526.710718,488.625 526.86432,488.625 L648.25,488.625 C648.526142,488.625 648.75,488.401142 648.75,488.125 L648.75,314.375 L648.75,314.375 C648.75,301.38125 659.163562,290.225188 672.713445,290 L673.125,290 Z M648.25,536.625 L565.287451,536.625 C565.011308,536.625 564.787451,536.848858 564.787451,537.125 C564.787451,537.236864 564.824963,537.345497 564.893989,537.433525 L647.856538,643.235569 C648.026932,643.452872 648.341222,643.4909 648.558525,643.320506 C648.679399,643.225725 648.75,643.080647 648.75,642.927044 L648.75,537.125 C648.75,536.848858 648.526142,536.625 648.25,536.625 Z M375,372.076085 L375,488.125 C375,488.401142 375.223858,488.625 375.5,488.625 L466.248285,488.625 C466.524427,488.625 466.748285,488.401142 466.748285,488.125 C466.748285,488.013364 466.710925,487.904939 466.642157,487.816999 L375.893872,371.768084 C375.723768,371.550554 375.409528,371.512108 375.191999,371.682213 C375.070815,371.776976 375,371.922249 375,372.076085 Z" id="Shape" fill="url(#linearGradient-1)" fill-rule="nonzero"></path>
            <g id="Group" transform="translate(1224.000000, 241.000000)" fill-rule="nonzero">
                <g id="navcoin">
                    <use fill="#000000" xlink:href="#path-2"></use>
                    <use fill="#2D2D2D" xlink:href="#path-2"></use>
                </g>
            </g>
        </g>
    </g>
</svg>