<svg version="1.1" viewBox="0 0 256 256" xmlns="http://www.w3.org/2000/svg">
 <title>open</title>
 <path d="m116.3 229.71h-83.22c-6.61-0.07-9.23-3.6-7.28-9.85q4.8-15.35 9.63-30.69 13.65-43.53 27.32-87.06a31.3 31.3 0 0 1 1.63-4.33 6.21 6.21 0 0 1 5.89-3.78h166.73 2.47c4.86 0.31 7.56 3.8 6.18 8.46-3.19 10.67-6.55 21.28-9.88 31.91q-13.63 43.53-27.31 87.06c-0.28 0.89-0.54 1.78-0.86 2.65-1.58 4.3-3.45 5.62-8.11 5.62h-83.19z"/>
 <path d="M121.37,65.58q-31.25,0-62.5,0c-12,0-19.49,5.66-23,17.18Q24.44,119.88,13,157a20.56,20.56,0,0,1-.69,2.05,1.2,1.2,0,0,1-1.14.89c-.77,0-1-.61-1.1-1.25-.08-.82-.1-1.65-.1-2.47q0-59.4,0-118.81c0-6.31,2.73-9.06,9.05-9.07q23.82,0,47.65,0c6,0,8.88,2.87,9,8.9s2.67,8.53,8.83,8.53q47.49,0,95,0a30.28,30.28,0,0,1,6.16.45c3.88.79,6.18,3.3,6.38,7.23.13,2.57,0,5.16,0,7.73s-1.44,4-3.9,4.31a25.65,25.65,0,0,1-3.4.1Z"/>
</svg>
