<svg version="1.1" viewBox="0 0 256 256" xmlns="http://www.w3.org/2000/svg">
 <title>receive</title>
 <g id="QycPWY.tif">
  <path d="M167.3,10.31c7.19,4.12,8.91,10.34,8.24,18.33-1.1,13.34-1.27,26.75-1.92,40.12-.17,3.61,1.34,5.11,4.93,5a70.55,70.55,0,0,1,10.18.2c4.86.53,8.8,2.71,10.59,7.62C201,86.16,199,89.75,195.93,93c-11.32,11.86-22.58,23.79-34,35.53-6.55,6.73-14.78,6.89-21.16.29C129.34,117,118.23,104.91,106.93,93c-3.3-3.47-5-7.32-3.28-12,1.82-4.92,6.07-6.59,10.86-7.26.4,0,.8,0,1.2-.06,4.3-.54,10.19,2,12.51-1.31,2-2.94.5-8.44.36-12.81-.38-11.18-.66-22.38-1.35-33.55-.43-6.87,1.74-12.11,7.63-15.74Z"/>
  <path d="m125.52 233c-10.61 0-21.24 0.44-31.82-0.15-7-0.39-12 1.85-16.74 7-7.07 7.68-5.47 7.76-14.07 0.78-15.89-12.91-31.6-25.9-47.37-38.86-5.64-4.64-5.65-4.71-0.33-9.94 10.14-10 20.12-20.09 30.55-29.74 17.2-15.93 37.52-21.86 60.41-16.29a98.14 98.14 0 0 0 24.31 2.55c8.61-0.07 17.22-0.17 25.82 0 10.82 0.27 18.17 7.39 17.86 17s-7.56 15.9-18.06 16c-9.4 0.06-18.81 0-28.22 0.05-3.37 0-7 0.46-6.77 4.84 0.18 4 3.7 4.12 6.8 4.12h34.23c5.81 0 10.37-2.33 14.14-6.67q16.92-19.49 34-38.87c1.58-1.8 3.14-3.64 4.83-5.34 6.94-7 16.78-7.72 23.8-1.78s8 16.6 1.62 24.26c-10.88 13.07-22.13 25.84-33.23 38.73-5 5.76-10 11.5-14.88 17.29-8.73 10.23-19.75 15.25-33.24 15-11.22-0.15-22.43 0.02-33.64 0.02z"/>
 </g>
</svg>
