<svg version="1.1" viewBox="0 0 256 256" xmlns="http://www.w3.org/2000/svg">
 <title>remove</title>
 <path d="M127.72,11.3A118.23,118.23,0,1,0,246,129.47,118,118,0,0,0,127.72,11.3ZM183.54,167a13,13,0,0,1,.89,17.28c-.28.34-.57.66-.89,1a12.94,12.94,0,0,1-18.26,0L130.09,150.1,94.9,185.29a13,13,0,0,1-18.26,0,11.44,11.44,0,0,1-.88-1A13,13,0,0,1,76.64,167l35.19-35.19L76.64,96.65a13,13,0,0,1-2-15.7,12.72,12.72,0,0,1,2-2.56,13,13,0,0,1,18.26,0l35.19,35.19,35.19-35.19a13,13,0,0,1,18.26,0,11.44,11.44,0,0,1,.88,1,12.94,12.94,0,0,1-.88,17.28l-35.19,35.19Z"/>
</svg>
