<svg version="1.1" viewBox="0 0 256 256" xmlns="http://www.w3.org/2000/svg">
 <title>send</title>
 <g id="OGPfKO.tif">
  <path d="M237.81,10.5h4.13c3.9,2.11,3.67,5.67,3.14,9.24q-3.77,25.29-7.6,50.58-3.06,20.42-6.1,40.83-3.6,23.92-7.24,47.84c-2.43,16.11-4.81,32.22-7.33,48.3-1.17,7.41-7.52,10.81-14.57,8.3-20.68-7.35-41.42-14.58-62.1-21.93-1.85-.65-2.72-.18-3.68,1.41q-8.39,14-17,27.84c-4.33,7-8.61,13.93-13.3,20.65-1,1.36-1.9,2.65-3.88,2.16a5,5,0,0,1-4-3.66,13,13,0,0,1-.27-3.18c0-17.53.1-35.06-.08-52.59a18.47,18.47,0,0,1,5.18-13.47q41.54-45.1,82.93-90.32,8.82-9.63,17.68-19.21a7.32,7.32,0,0,0-2.09,1.31l-47,38.67Q115,135.88,75.42,168.51a4.49,4.49,0,0,1-5,.82Q44,160,17.57,150.83c-3.33-1.15-6-3-7.57-6.21v-4.14a14,14,0,0,1,5.88-5.6Q37.12,123,58.3,111.07,131.5,70,204.71,28.85C215.71,22.68,226.56,16.23,237.81,10.5Z"/>
 </g>
</svg>
