<svg version="1.1" viewBox="0 0 256 256" xmlns="http://www.w3.org/2000/svg">
 <title>staking_on</title>
 <path d="M127.78,10.26a118,118,0,1,0,118,118A118,118,0,0,0,127.78,10.26Zm40.48,121.19c-1.18,1.61-2.41,3.18-3.61,4.76-2.14,2.84-4.26,5.69-6.4,8.5-2.47,3.24-5,6.47-7.44,9.72-1.45,1.91-2.88,3.84-4.33,5.75-1.88,2.48-3.79,4.95-5.67,7.43-2.22,2.94-4.39,5.89-6.66,8.79s-4.43,5.8-6.64,8.71q-3.81,5-7.6,10c-.44.57-.88,1.14-1.32,1.73a3.81,3.81,0,0,1-2.82,1.54,3.87,3.87,0,0,1-3.93-5c1-3.11,2-6.19,3-9.27L120,168.32q3.73-11.41,7.46-22.78c.25-.79.24-.8-.58-.89L112,143.05c-4.6-.5-9.2-1-13.81-1.46-2.74-.28-5.49-.58-8.23-.9a3.69,3.69,0,0,1-3.17-2.35,3.9,3.9,0,0,1,.65-4q3.3-4.34,6.58-8.68c1.94-2.56,3.88-5.11,5.81-7.68,1.48-1.93,3-3.88,4.43-5.82q3.9-5.18,7.81-10.33,4.59-6.07,9.18-12.15l6.36-8.36L136.13,70c2.62-3.44,5.25-6.87,7.88-10.33a3.88,3.88,0,0,1,4.82-1.12,3.76,3.76,0,0,1,2,4.18c-.59,2.48-1.31,4.93-2,7.38q-2.18,8-4.36,15.94c-1.44,5.24-2.9,10.48-4.34,15.72-1,3.7-2,7.41-3.06,11.12-.12.45,0,.58.41.74,3.84,1.55,7.67,3.15,11.52,4.67,1.1.42,2.25.81,3.31,1.29,2.54,1.18,5.16,2.12,7.72,3.23,2.19.93,4.41,1.79,6.6,2.72A3.82,3.82,0,0,1,168.26,131.45Z"/>
</svg>
