<svg version="1.1" viewBox="0 0 256 256" xmlns="http://www.w3.org/2000/svg">
 <title>staking_off</title>
 <g id="_4TcE5b">
  <path d="M116,197.32a3.88,3.88,0,0,1-3.93-5c1-3.1,2-6.18,3-9.27l5.16-15.75q3.73-11.4,7.46-22.78c.25-.78.24-.79-.58-.88-5-.54-9.92-1.09-14.88-1.61-4.6-.5-9.2-1-13.81-1.45-2.74-.29-5.49-.58-8.23-.9A3.69,3.69,0,0,1,87,137.3a3.92,3.92,0,0,1,.65-4Q91,129,94.25,124.6q2.91-3.82,5.81-7.67l4.43-5.83q3.9-5.16,7.81-10.33l9.18-12.14,6.36-8.38c2.84-3.75,5.67-7.52,8.51-11.27,2.62-3.45,5.25-6.88,7.88-10.33a3.88,3.88,0,0,1,4.82-1.13,3.77,3.77,0,0,1,2,4.19c-.59,2.48-1.31,4.92-2,7.38q-2.18,8-4.36,15.93c-1.44,5.24-2.9,10.48-4.34,15.72-1,3.71-2,7.42-3.06,11.13-.12.44,0,.58.41.73,3.84,1.55,7.67,3.15,11.52,4.67,1.1.43,2.25.81,3.31,1.3,2.54,1.17,5.16,2.12,7.72,3.22,2.19.94,4.41,1.8,6.6,2.72a3.82,3.82,0,0,1,1.63,5.89c-1.18,1.61-2.41,3.18-3.61,4.77-2.14,2.83-4.26,5.67-6.4,8.5-2.47,3.24-5,6.47-7.44,9.71-1.45,1.91-2.88,3.84-4.33,5.75-1.88,2.49-3.79,5-5.67,7.44-2.22,2.93-4.39,5.89-6.66,8.78s-4.43,5.81-6.64,8.72q-3.81,5-7.6,10l-1.32,1.72A3.84,3.84,0,0,1,116,197.32Zm11-25.11c.16-.19.32-.38.47-.58,3-3.92,5.94-7.86,8.92-11.78q4.94-6.49,9.89-13l6.63-8.72c2-2.66,4-5.33,6-8,.27-.35.26-.5-.18-.66-1.11-.43-2.2-.9-3.3-1.35-4.15-1.7-8.29-3.41-12.44-5.1-4-1.61-7.92-3.2-11.87-4.83a3.78,3.78,0,0,1-2.32-4.61c.22-.87.48-1.73.71-2.59l8-29.2c.21-.77.41-1.54.61-2.32-.45.55-.89,1.07-1.3,1.61-2.33,3-4.64,6.12-7,9.18L124.09,98q-3.87,5.13-7.74,10.27c-2.22,2.93-4.46,5.84-6.68,8.77l-6.23,8.23-5.24,6.9c-.28.36-.35.57.22.6.36,0,.72.07,1.08.11l17.29,1.87c5.36.57,10.72,1.2,16.09,1.67a4.09,4.09,0,0,1,3.72,5.76c-1.51,4.17-2.79,8.43-4.17,12.65q-2.64,8.05-5.27,16.11A1.94,1.94,0,0,0,127,172.21Z"/>
 </g>
 <path d="m128 10.27a118 118 0 1 0 118 118 118 118 0 0 0-118-118zm0 213.66a95.66 95.66 0 1 1 95.66-95.66 95.66 95.66 0 0 1-95.66 95.66z"/>
</svg>
