<svg version="1.1" viewBox="0 0 256 256" xmlns="http://www.w3.org/2000/svg">
 <title>transaction2</title>
 <path d="M246,128.65c-.06,65-52.88,117.36-118.13,117.39-64,0-117.49-53-117.12-118.41C11.11,63.2,63.81,10.85,128.7,10.8S246.65,64.84,246,128.65ZM71.88,105.94A17.62,17.62,0,0,0,59.94,110c-7.62,6.63-7.78,17.6-.13,25.33q20.11,20.33,40.43,40.47c8.85,8.83,18.17,8.85,27,.06q22.24-22.2,44.45-44.44c9.4-9.4,18.85-18.76,28.18-28.24a16.55,16.55,0,0,0,2.55-20.74c-5.77-9.45-18.3-10.74-26.53-2.56q-29.36,29.19-58.57,58.53c-3.5,3.5-3.52,3.49-7.1-.08-9.06-9-18.14-18.06-27.13-27.16A16.42,16.42,0,0,0,71.88,105.94Z"/>
</svg>
