<svg id="SVGRoot" width="256px" height="256px" version="1.1" viewBox="0 0 256 256" xmlns="http://www.w3.org/2000/svg">
 <path d="m26.257 227.19c-6.322-1.9895-11.509-6.8059-14.638-13.593l-1.6189-3.511v-81.298c0-66.288 0.17662-81.822 0.95654-84.138 1.6289-4.8363 5.2123-9.5147 9.495-12.396 5.9983-4.0359 9.5988-4.4523 36.077-4.1716l22.387 0.23731 3.5224 1.814c3.2052 1.6506 4.4259 3.1391 13.553 16.526 11.816 17.331 11.784 17.292 15.898 19.216 3.1497 1.4732 4.054 1.4995 63.6 1.8495l60.405 0.35501 2.959 1.9586c1.6275 1.0772 3.8404 3.2904 4.9177 4.9181l1.9586 2.9594 0.18828 65.851c0.18672 65.304 0.17593 65.884-1.2966 69.82-1.8028 4.8184-6.6763 10.037-11.672 12.499l-3.5501 1.7492-100.11 0.13498c-80.124 0.10804-100.7-0.04809-103.03-0.78195zm136.88-52.774c4.4228-4.5836 10.735-11.134 14.028-14.556l5.9862-6.2216h-103.92v14.911h75.263v7.1002c0 3.9051 0.13558 7.1002 0.30128 7.1002s3.92-3.7502 8.3428-8.3339zm9.1066-38.883v-7.4553h-75.263v-7.1002c0-3.9051-0.15781-7.1002-0.3507-7.1002s-3.9466 3.7543-8.3416 8.3428c-4.395 4.5886-10.685 11.139-13.978 14.556l-5.9874 6.2127h103.92z" stroke-width=".71003"/>
</svg>
