<svg version="1.1" viewBox="0 0 256 256" xmlns="http://www.w3.org/2000/svg">
 <title>transaction0</title>
 <path d="M9.83,128.9A118.09,118.09,0,1,1,127.71,247,117.84,117.84,0,0,1,9.83,128.9Zm116.74,37.66h13.74c1.7,0,3.16-.35,3.09-2.44C143,153.35,149,146,156.66,139.58c15.44-12.76,21.72-28.94,19.8-48.93-2.79-29-31.92-50.46-60.22-43.83C93.86,52.07,78.49,70.52,76.78,94c-.21,2.89,1.19,3.15,3.36,3.15,8.14,0,16.28-.15,24.42.06,3.43.09,5.08-.69,5.94-4.42a16.57,16.57,0,0,1,19.36-12.59c6.66,1.46,11.26,5.45,13.08,12s1.11,12.9-4.15,18c-2.1,2-4.16,4.13-6.39,6-14.67,12.32-21.34,28.38-22.22,47.19-.11,2.27.74,3.28,3,3.24C117.67,166.51,122.12,166.57,126.57,166.56Zm1.32,48.11c4.58,0,9.16-.07,13.73,0,2.46.05,3.38-1,3.36-3.4q-.1-13.73,0-27.46c0-2.55-1.15-3.29-3.5-3.27-9,.06-18,.08-27.08,0-2.64,0-3.59,1-3.57,3.6q.14,13.54,0,27.08c0,2.74,1.19,3.53,3.7,3.47C119,214.59,123.44,214.67,127.89,214.67Z"/>
</svg>
