<svg version="1.1" viewBox="0 0 256 256" xmlns="http://www.w3.org/2000/svg">
 <title>tx_mined</title>
 <path d="m186.57 11.29h7.25c8.05 0.08 11.94 4.36 11.55 12.63-0.48 10.41-1 20.82-1.34 31.23-0.2 5.92-0.07 5.88 5.8 6 2.41 0 4.82 0.24 7.22 0.47a8.75 8.75 0 0 1 7.85 5.78c1.33 3.5-0.11 6.49-2.47 9.06-6.27 6.85-12.58 13.65-18.87 20.48-2.84 3.08-5.61 6.25-8.54 9.25-5.22 5.32-12.43 5.22-17.51-0.24q-13.51-14.56-26.94-29.16c-2.46-2.66-4.14-5.62-2.83-9.33s4.44-5.29 8.22-5.87a43.51 43.51 0 0 1 8.75-0.46c2.91 0.13 4.16-1 4-4-0.42-11.18-0.56-22.37-1.09-33.54-0.38-8.09 3.2-12.22 11.28-12.3 2.58-0.02 5.1 0 7.67 0z"/>
 <path d="M69.9,86.89c13.45-.13,26.66,1.24,39.35,6A26.69,26.69,0,0,1,116.54,97a8.57,8.57,0,0,1,3.51,7.26c-.09,3.43-.18,6.88,0,10.3.27,4.35-1.71,7.28-5.23,9.45-6.18,3.81-13.06,5.69-20.1,6.84-20.3,3.32-40.51,3.32-60.46-2.42a49.14,49.14,0,0,1-5-1.77c-8.54-3.48-10.26-6-10.26-15.13V108.1c0-8.9,1.92-11.75,10.43-15,12.16-4.67,24.85-6.25,37.8-6.19Z"/>
 <path d="M187.49,169.56c-14.17.18-26.9-1.08-39.17-5.45a47.35,47.35,0,0,1-5.93-2.6c-4.57-2.36-7.21-5.86-6.61-11.34a30.26,30.26,0,0,0,0-6.86c-.79-6.42,2.71-10,7.94-12.48a73.78,73.78,0,0,1,23.49-6.28,147.83,147.83,0,0,1,46.32,1.39c6.36,1.26,12.63,3,18.22,6.53,3.51,2.22,5.45,5.17,5.14,9.49a42,42,0,0,0,0,8c.73,6.09-2.51,9.56-7.44,12-7.86,3.91-16.35,5.54-24.95,6.68A99.21,99.21,0,0,1,187.49,169.56Z"/>
 <path d="m70.55 245.15c-13.08 0.17-24.93-1-36.45-4.6-1.21-0.38-2.41-0.8-3.59-1.28-10.22-4.16-11.51-6.07-11.51-16.96v-6.48s0.8-2.85 2.85-1.94c19.05 8.47 39.25 9 59.51 8 12.07-0.57 24-2.55 35.17-7.69 2.49-1.15 3.54-0.65 3.49 2.15-0.06 3.43-0.17 6.87 0 10.29 0.27 4.49-1.76 7.49-5.48 9.67-8.54 5-18 6.69-27.63 8a112.81 112.81 0 0 1-16.36 0.84z"/>
 <path d="m186.82 245.14a113.1 113.1 0 0 1-35.82-4.56c-1.09-0.33-2.18-0.71-3.24-1.13-10.57-4.16-11.95-6.17-11.95-17.43 0-9 0-9 8.44-5.89a96.23 96.23 0 0 0 29.07 5.7c20.51 1 41 0.74 60.3-7.75 2.49-1.09 3.24-0.22 3.21 2.18v12.2c0 3.77-2.38 6-5.33 7.79-8.62 5.13-18.24 6.81-28 8.1a114.5 114.5 0 0 1-16.68 0.79z"/>
 <path d="m187.58 208.5c-13.16 0.16-25-1-36.54-4.56-1.09-0.34-2.18-0.71-3.24-1.13-10.6-4.15-12-6.17-12-17.4 0-9 0-9.07 8.4-5.94a96.52 96.52 0 0 0 28.69 5.68c20.65 1.1 41.23 0.76 60.69-7.76 2.42-1.06 3.27-0.34 3.25 2.13v12.2s-2.72 6.39-5.94 8.21c-8.48 4.8-17.83 6.52-27.33 7.75a108.7 108.7 0 0 1-15.98 0.82z"/>
 <path d="M70.41,171.86c-12.87.16-24.72-1-36.24-4.58-1.33-.41-2.65-.89-3.94-1.42-10-4.2-11.23-6-11.23-16.78,0-9.34,0-9.38,8.47-6.23a95.56,95.56,0,0,0,27.94,5.63c17.42,1,34.84,1,51.79-4.18a85.42,85.42,0,0,0,9.29-3.42c2.39-1,3.6-.84,3.55,2.08-.06,4.07,0,8.14,0,12.21s-2.57,6.2-5.67,8c-8.56,4.93-18,6.66-27.67,7.92A122.61,122.61,0,0,1,70.41,171.86Z"/>
 <path d="m70.88 208.5c-13.19 0.16-25.16-1-36.81-4.61-1.21-0.38-2.41-0.81-3.59-1.29-10.23-4.17-11.48-6-11.48-17v-6.48s0.85-2.72 2.88-1.9c26.05 10.51 52.82 10.12 79.86 5.14a62.93 62.93 0 0 0 14.81-4.89c2.54-1.17 3.51-0.54 3.46 2.2-0.06 3.43-0.18 6.88 0 10.3 0.29 4.69-2 7.67-5.82 9.86-8.48 4.81-17.82 6.56-27.31 7.83a111.89 111.89 0 0 1-16 0.84z"/>
</svg>
