<svg version="1.1" viewBox="0 0 256 256" xmlns="http://www.w3.org/2000/svg">
 <title>verify</title>
 <path d="M9.8,222.7c0-5.43.22-10.87-.08-16.28-.21-3.77,1.19-6.35,3.79-8.93C42,169.17,70.3,140.71,98.8,112.42c2.89-2.87,3.5-5.37,2.47-9.3C91.1,64.56,112,26,150.09,14.5c25.5-7.72,49-2.6,69.34,15a72.14,72.14,0,0,1,13.68,93.2c-12.27,19.28-29.93,30.6-52.78,33.67a70.57,70.57,0,0,1-29.2-2.42,6.78,6.78,0,0,0-7.22,1.59c-5.58,5.12-11.25,10.14-17,15.12a7.18,7.18,0,0,0-2.58,6c.1,7.7-.07,15.41.08,23.11.07,3.27-1.08,4.49-4.39,4.42-7.32-.17-14.65.1-22-.11-3.54-.1-5.07.93-4.84,4.68.27,4.28,0,8.58.07,12.88,0,2.59-1.07,3.64-3.63,3.59-4.29-.08-8.6.19-12.87-.08A8.76,8.76,0,0,0,69,228.67c-4,4.84-8.32,9.49-12.35,14.34a7,7,0,0,1-5.87,2.73c-12.25-.08-24.5-.13-36.74,0-3.41,0-4.38-1.27-4.29-4.47C9.93,235.08,9.8,228.89,9.8,222.7Zm205.47-157A25,25,0,0,0,189.9,40.22,25.73,25.73,0,0,0,164,65.81c-.11,13.71,11.88,25.74,25.64,25.72A25.68,25.68,0,0,0,215.27,65.69ZM104.19,135.27a17.44,17.44,0,0,0-5.66-5.71c-1.67-1-2.64,1-3.63,2Q62,164.42,29.09,197.34c-4.58,4.59-4.79,3.57.17,8.6a5.39,5.39,0,0,1,.53.54c1.46,1.82,2.75,1.57,4.34,0q34.18-34.29,68.45-68.5A3.84,3.84,0,0,0,104.19,135.27Z"/>
 <path d="m245.82 198.58a20.45 20.45 0 0 1-1.53 1.87q-23.21 22.79-46.41 45.55c-1.59 1.56-2.78 1.71-4.41 0.08q-12.43-12.44-25-24.75c-1.39-1.37-1.39-2.43 0-3.78q5.44-5.25 10.75-10.64c1.53-1.56 2.74-1.24 4.13 0.18 3.09 3.15 6.39 6.11 9.36 9.36 2.1 2.3 3.53 2.3 5.78 0.06 10-10 20.23-19.69 30.21-29.68 2.43-2.43 4-2.69 6.36 0 2.83 3.2 6 6.07 9.08 9.1 0.71 0.68 1.59 1.27 1.68 2.65z"/>
</svg>
