<svg version="1.1" viewBox="0 0 256 256" xmlns="http://www.w3.org/2000/svg">
 <title>history</title>
 <g id="N07HEM">
  <path d="M10,193.58V61.43c5.07-12.94,13.78-22.08,28.23-22.19,48.07-.4,96.14-.31,144.21-.06,14.69.08,26.85,12,28.26,26.71.5,5.21.37,10.47.55,15.71.14,3.87-1.39,5.66-5.57,5.5a109.91,109.91,0,0,0-19.35.76c-21.3,3-37.26,24.43-33.75,45.6,3.71,22.35,19.92,35.42,44.14,35.56,14.83.08,14.83.08,14.56,14.84-.39,21.07-12.55,33.14-33.5,33.14q-67.12,0-134.24,0C25.41,217,16.29,210.63,10,193.58Z"/>
  <path d="M246,157.92c-18.15.05-36.3.54-54.43,0-16.37-.46-28.68-14-28.71-30.19a29.67,29.67,0,0,1,28.71-29.63c18.13-.53,36.28,0,54.43,0Zm-53.32-40.83a11,11,0,1,0,.41,21.89c6.43-.1,10.76-4.47,10.78-10.9C203.88,121.42,199.37,117,192.68,117.09Z"/>
  <path d="M246,193.58c-6.05,16-17.16,24.31-31.4,23.43-2.82-.17-4.87-.65-2.25-3.8,7.68-9.28,9.74-20.06,9.47-31.81-.33-14.58-.85-12.18,12.18-12.35,4-.05,8,.26,12,.41Z"/>
  <path d="M246,86.6c-6.6.92-13.23.2-19.84.42-3.21.1-4.33-1.63-4.36-4.51,0-4.35-.14-8.71-.08-13.07a40.6,40.6,0,0,0-8.37-25.34c-.88-1.2-2.74-2.37-1.93-4,.93-1.83,3.13-1,4.77-1,13.95,0,23.5,7.48,29.81,23.39Z"/>
 </g>
</svg>
