<svg id="Layer_1" data-name="Layer 1" xmlns="http://www.w3.org/2000/svg" viewBox="0 0 256 256"><title>warning</title><path d="M128.16,246.93A117.75,117.75,0,1,1,246,129.44,117.57,117.57,0,0,1,128.16,246.93ZM129.6,41.61c-6.53,0-13.07,0-19.6,0-1.75,0-3,.28-2.8,2.57.32,3.66.37,7.35.59,11q1.68,28.61,3.4,57.2c.69,11.6,1.44,23.21,2,34.82.13,2.47,1.13,3.29,3.5,3.26q12.46-.12,24.94,0c2.5,0,3.59-.74,3.74-3.41,1.06-18.83,2.29-37.65,3.38-56.48.89-15.28,1.62-30.57,2.58-45.84.15-2.47-.61-3.18-2.89-3.15C142.19,41.65,135.9,41.61,129.6,41.61Zm-.28,168.7c14.05,0,24.53-10.37,24.45-24.19-.08-14.17-10.53-24.73-24.45-24.73-14.1,0-24.37,10.34-24.46,24.63C104.78,199.74,115.42,210.31,129.32,210.31Z"/></svg>