<svg id="Layer_1" data-name="Layer 1" xmlns="http://www.w3.org/2000/svg" viewBox="0 0 256 256"><title>about</title><path d="M129,10.21c64.45-.42,117.74,53.33,117.66,118s-53.55,118-118.36,117.75c-64.36-.23-117.65-53.55-117.47-118.26C11,63.25,64.31,9.52,129,10.21ZM83.56,145.7c6.59.11,9.08-1.14,11.6-7,.84-1.93,1.84-3.85,2.78-5.76,3.56-7.22,7.09-14.44,10.68-21.64,1.28-2.57.7-3.53-2.3-3.58-2.27,0-4.72,0-7.16,0-2.62,0-4.15.84-5.26,3.25-2.82,6.17-5.84,12.24-8.82,18.34-.48,1-.75,2.49-2,2.57-1.47.09-1.8-1.54-2.4-2.58-2.35-4.16-4.62-8.36-7-12.52-6.3-11.17-2.8-8.63-15.42-9.08-3.1-.11-4.75.9-5.88,3.88-3.22,8.46-6.78,16.78-10.17,25.17-3.81,9.45-3.79,9.38,6.39,9.27,2.53,0,3.88-.9,4.77-3.25,2.2-5.88,4.59-11.69,6.94-17.52.37-.91.53-2.26,1.61-2.37s1.4,1.25,1.87,2.09c2.63,4.72,5.12,9.54,7.71,14.24C74.6,144.69,77.23,145.59,83.56,145.7ZM134,107.76c-1.51,0-2.89,0-4.51,0-4.27,0-6.28,1.24-7.69,5.2-2.91,8.15-6.35,16.11-9.58,24.15-3.63,9-3.63,8.94,6.24,9,2.85,0,4.28-1,5.27-3.62,2.8-7.4,5.81-14.71,8.78-22,.35-.86.41-2.23,1.7-2.18.95,0,1.21,1.16,1.63,1.91,3.22,5.82,6.36,11.72,9.49,17.53,3.9,7.21,8,8.65,15.21,8.45,3.33-.1,3.55-1.21,2.08-3.82-4.87-8.64-10.07-17.13-14.3-26.07C145.22,109.72,142.11,107.24,134,107.76ZM194.31,146c4.65,0,7-1.21,8.83-5.42,3.38-7.82,7.33-15.41,11.08-23.07,4.86-9.92,4.88-9.8-6.21-9.81-3,0-4.52,1.19-5.7,3.78-2.93,6.38-6.08,12.67-9.16,19-.36.76-.56,1.88-1.59,1.88s-1.23-1.14-1.64-1.88c-2.63-4.71-5.2-9.45-7.84-14.16-5.88-10.53-2.82-8.26-14.55-8.5-4.07-.09-4.3.37-2.34,3.95,5.19,9.46,10.68,18.77,15.52,28.4,2.22,4.43,4.77,5.85,9.84,5.85Z"/></svg>