<svg id="Layer_1" data-name="Layer 1" xmlns="http://www.w3.org/2000/svg" viewBox="0 0 256 256"><title>about</title><path d="M128.73,9.87A118.13,118.13,0,1,0,246.86,128,118.13,118.13,0,0,0,128.73,9.87ZM86.5,141.34c-1.46,3-2.94,6-4.35,9a1.76,1.76,0,0,1-1.87,1.16q-7.14-.06-14.28,0a1.78,1.78,0,0,1-1.8-1.1Q58,139.14,51.75,128c-.18-.31-.23-.88-.68-.83s-.42.61-.56,1q-4.73,11-9.4,22a1.91,1.91,0,0,1-2.06,1.39c-5.14-.06-10.29,0-15.43,0v-.23c.18-.34.38-.67.53-1q5.91-13.69,11.79-27.41c1.88-4.37,3.71-8.76,5.56-13.14h17c.15.31.28.63.44.94Q65.43,122.29,72,134c.18.32.23.87.69.83s.48-.55.64-.89q3.13-6.47,6.27-12.93c1.86-3.82,3.74-7.64,5.61-11.45h16.72Zm72.07,10.09c-4.84,0-9.68,0-14.52,0a1.8,1.8,0,0,1-1.7-1.13q-3.75-6.83-7.52-13.62-2.45-4.41-4.9-8.83c-.14-.26-.23-.65-.6-.62s-.47.47-.6.77q-4.6,10.73-9.19,21.45c-1,2.35-.65,2-2.91,2-4.42,0-8.83,0-13.24,0-1.57,0-1.6,0-1-1.43q6.18-14.4,12.38-28.8,2.51-5.81,5-11.62h17a39.73,39.73,0,0,0,2.81,5.32q7.83,14.17,15.74,28.3c1.3,2.33,2.59,4.67,3.9,7C159.76,151.28,159.71,151.43,158.57,151.43Zm43-3.61c-1.74,3.61-1.68,3.64-5.66,3.64s-7.81,0-11.72,0a1.74,1.74,0,0,1-1.76-1q-5.46-9.9-11-19.78L159.72,109.6h17a10.22,10.22,0,0,0,1.35,2.68q6,10.88,12.06,21.71c.17.32.27.85.69.84s.49-.54.65-.87q4.56-9.34,9.08-18.69c.91-1.87,1.76-3.78,2.64-5.67h17Q210.84,128.71,201.57,147.82Z"/></svg>