<svg id="Layer_1" data-name="Layer 1" xmlns="http://www.w3.org/2000/svg" viewBox="0 0 256 256"><title>clock5</title><path d="M128,11.05a117.37,117.37,0,1,0,117,117.37A117.14,117.14,0,0,0,128,11.05Zm-4.31,23c.09-2,0-3.95,0-5.93h0c0-1.36,0-2.72,0-4.07,0-4.28,1.91-5.62,6-4.49,1.59.44,1.76,1.55,1.76,2.82,0,4,0,7.91,0,11.85,0,3-1.93,2.92-4,3S123.52,36.9,123.64,34.07ZM32.33,75.54c1.13-1.49,1.3-3.83,3.59-4.39,1.06.57,2,1.07,3,1.63,2.57,1.48,5.12,3,7.68,4.49,3.78,2.22,3.86,2.77,1.46,6.5-.89,1.39-1.83,1.93-3.34,1.07-3.87-2.2-7.73-4.41-11.61-6.58C31.89,77.58,31.5,76.63,32.33,75.54ZM21.7,132.34c-2.91.08-3.08-1.71-3.06-3.88s0-4.08,3-4c2,.08,3.95,0,5.93,0v0H32c4.13.05,4.59.66,4.41,4.8-.1,2.23-1.06,3.08-3.2,3C29.35,132.28,25.52,132.24,21.7,132.34Zm26.77,46.15c-3.64,2.12-7.3,4.18-11,6.26-.43.24-.9.41-1.49.68-2.31-.64-2.7-3-3.78-4.63-.9-1.41.37-2,1.33-2.51,3.64-2.11,7.35-4.12,10.93-6.33,2.44-1.51,3.11.36,3.79,1.87S51.21,176.89,48.47,178.49ZM83.16,213c-1.76,3.13-3.71,6.16-5.36,9.35-1.17,2.26-2.53,2-4.14.74-1.45-1.13-4.53-1.29-2.61-4.48,2.18-3.6,4.24-7.28,6.35-10.93.44-.75.83-1.58,2-1.35C83.18,206.52,85,209.69,83.16,213ZM81.57,49.71C80,51,78.55,51.19,77.38,49c-1.72-3.14-3.6-6.19-5.38-9.29a4.47,4.47,0,0,1,3.65-6.89c1.23-.18,1.55.73,2,1.45,2.11,3.63,4.08,7.35,6.33,10.89C85.94,48.32,83,48.57,81.57,49.71Zm45.92,187.63c-2.2,0-4-.2-3.85-3.09.1-2,0-3.95,0-5.93h0c0-1.35,0-2.71,0-4.07,0-4.4.67-4.91,4.93-4.64,2,.13,2.92.95,2.9,2.95,0,3.95-.07,7.9,0,11.85C131.55,237.4,129.56,237.3,127.49,237.34Zm38.39-61.08c-3.74,3-7.56,4.82-10.19,4.82a3.38,3.38,0,0,1-2.42-.82l-11.66-11.19-22.24-21.35-6.45-6.19a3.15,3.15,0,0,1-.85-2.33H112V75.61c0-4.54,4.55-8.38,10.78-9.55a21.14,21.14,0,0,1,4-.38,19.11,19.11,0,0,1,10.48,2.9c2.68,1.81,4.34,4.28,4.34,7V127a4.24,4.24,0,0,0,1.3,3l31.3,30c2.19,2.1,0,7.65-4.84,12.86A8.41,8.41,0,0,1,165.88,176.26ZM180,223.85c-1.37.8-2-.44-2.52-1.41-2.11-3.65-4.12-7.36-6.34-10.94-1.32-2.13,0-3,1.53-3.63s3.22-3.27,5-.36c2.25,3.7,4.36,7.5,6.53,11.26.24.42.42.89.69,1.49C183.94,222.36,181.72,222.83,180,223.85ZM184.21,38c-2.23,3.84-4.39,7.74-6.76,11.49-1.84,2.91-3.64.33-5.36-.35-1.88-.75-2.22-2-1.09-3.81,2.22-3.57,4.28-7.23,6.42-10.84.56-.94,1.09-2.23,2.49-1.5,1.8.93,3.79,1.67,5,3.39A16.63,16.63,0,0,1,184.21,38ZM206.55,78.5c3.73-2.18,7.43-4.42,11.23-6.47,3.34-1.8,3.39,1.71,4.65,3.15s.69,2.55-1,3.45c-3.47,1.89-6.86,3.93-10.28,5.9-.64.36-1.3.69-2.12,1.12-2.07-.72-2.41-2.9-3.48-4.43C204.75,80,205.47,79.12,206.55,78.5ZM220.16,185c-1.19,1.09-2.33-.12-3.33-.68-3.24-1.79-6.34-3.82-9.63-5.52s-1.53-3.49-.57-5.47,2.15-2.72,4.32-1.32c3.42,2.21,7,4.16,10.5,6.23.72.43,1.6.73,1.76,1.83A13.22,13.22,0,0,1,220.16,185Zm13.22-52.63c-2-.1-3.95,0-5.93,0h-4.07c-4.37,0-4.89-.69-4.61-5,.13-2,1-2.89,3-2.87,3.95,0,7.9.06,11.85,0,3,0,2.85,2,2.9,4C236.55,130.75,236.24,132.49,233.38,132.34Z"/></svg>