<svg id="Layer_1" data-name="Layer 1" xmlns="http://www.w3.org/2000/svg" viewBox="0 0 256 256"><title>connect1</title><path d="M105.54,110.51c-9.58,0-18.29,0-27,0-1.72,0-2.93,1.39-4.22,2.4C52,130.49,19.05,117,15.74,89.2,14,74.62,24.44,58.38,39.63,53.33c16-5.32,32.44-.06,42.08,13.76a7.75,7.75,0,0,0,7.45,3.8c5.88-.21,11.78-.13,17.67,0,2.5.05,3.9-.83,5-3.23C119,52,131.5,44.29,148.5,43.74c6.16-.2,12.33-.13,18.49,0a7.07,7.07,0,0,0,6.3-3c9.6-12.17,24.37-17.09,39.28-12.53s23.45,15,25.51,30.54c2,14.83-9.62,31.23-25.22,35.73-13.69,4-25.73.75-36.19-8.61a9.44,9.44,0,0,0-7-2.68q-8.43.19-16.85,0c-2.88-.06-4.34.87-4.26,4,.13,4.79.11,9.58,0,14.38-.05,2.34,1.16,3.72,2.76,5.17,11.41,10.34,14.18,21.56,8.76,35.88-.87,2.32-.34,2.94,1.95,2.92q9.45-.09,18.9,0c2.14,0,3.48-1,4.8-2.57,9.37-11.4,23.38-15.53,36.88-11a33.94,33.94,0,0,1,23,31.05c.51,12.5-7.65,25.52-19.44,31a33,33,0,0,1-36.69-5.65,11.48,11.48,0,0,0-8.77-3.35c-9.72.15-19.45.12-29.17,0-3,0-4.6.85-5.6,4-5.62,17.55-20.09,28-38.66,28.09-9.58.07-19.17.08-28.76,0a10.14,10.14,0,0,0-7,2.59C57,231.74,39,232.69,25,222.07c-11.09-8.4-16.07-19.64-13.54-33.47,2.58-14.14,11.42-23.16,25-27.22,15.24-4.56,29.91.53,39.74,13.32A6.55,6.55,0,0,0,82,177.63c7.12-.12,14.24-.14,21.36,0,3.23.07,4.47-1.2,4.31-4.35-.15-2.87-.07-5.75,0-8.63.11-6.67-.33-12.63-4.61-18.81C95.16,134.48,97.21,122.46,105.54,110.51Zm-53.8,2.23c15.58,0,27.8-11.59,27.8-26.34,0-15.57-11.87-27.07-27.93-27.05C35.89,59.36,23.74,71,23.76,86.11S36,112.75,51.74,112.74Zm22.1,82.35c1.55-17.11-14.15-27.53-26.78-27.32-15.82.27-28.15,11.53-28.23,26.47-.08,15.18,12,26.61,27.62,27.1C59.93,221.77,75.53,210.32,73.84,195.09ZM237.44,164c.05-14.56-10.83-25.65-25.23-25.7-14.55,0-25.64,10.83-25.69,25.23s10.83,25.64,25.22,25.69C226.3,189.24,237.39,178.35,237.44,164ZM97,185.23v0c-4.1,0-8.21,0-12.31,0-2.1,0-3.17.71-2.56,2.94,1.53,5.64.49,11.16-.87,16.62-.79,3.17.17,4.21,3.34,4.17,8.21-.12,16.42,0,24.63-.06a29.91,29.91,0,0,0,29.37-23c1.92-7.54.69-15.26.89-22.9.06-2.13-1.32-2.27-3.09-2-5.9.77-11.77.64-17.38-1.6-2.47-1-3.19-.21-3.15,2.24.08,4.93.06,9.86,0,14.78-.07,6.42-2.32,8.71-8.61,8.8C103.83,185.27,100.41,185.23,97,185.23Zm66.7-8.38h0c4.23,0,8.46,0,12.69,0,2.08,0,3.17-.59,2.42-2.9a31,31,0,0,1-.36-17.76c.6-2.29-.44-3-2.49-3-7.24,0-14.48-.2-21.7.13-3.26.15-6.14,1.91-6.28,5.75-.19,4.77,0,9.55-.07,14.33,0,2.44,1.13,3.45,3.5,3.42C155.49,176.81,159.58,176.85,163.68,176.85ZM108.35,90.18h.19c0-2.74-.13-5.49,0-8.22.12-1.9-.44-2.87-2.42-2.87-5.34,0-10.68,0-16,0-1.72,0-3.09.57-2.7,2.65C88.6,88,87.26,94,85.15,99.85c-.68,1.86-.55,2.88,1.74,2.87,6.16,0,12.33,0,18.49,0,2.06,0,3-1.05,3-3.05Q108.35,94.91,108.35,90.18Z"/></svg>