<svg id="Layer_1" data-name="Layer 1" xmlns="http://www.w3.org/2000/svg" viewBox="0 0 256 256"><title>connect3</title><path d="M102.7,110.13c-9,0-17.55,0-26.07,0-2.15,0-3.64,1.3-5.17,2.51-22.87,18.08-56.53,4.19-59.94-24.06C9.73,73.65,20.29,57.06,35.81,51.84c16.3-5.48,33.18-.12,43,14,2,2.87,4.11,4.08,7.57,4,6.71-.22,13.44-.16,20.15,0,2.85.06,4.62-.76,5.93-3.48C119.65,51.5,131.93,44.85,148,44.52q10.06-.21,20.15,0a8.49,8.49,0,0,0,7.49-3.43c13.39-16,35.68-17.3,50-2.9,9,9.09,11.79,20,7.41,32-4.63,12.67-14.27,19.85-27.7,21.27-10.28,1.09-19.39-1.92-26.79-9.38a6.78,6.78,0,0,0-5.17-2.27c-8.12.06-16.24.09-24.36,0-3,0-4.31,1.16-4.24,4.21.11,5,.06,10.08,0,15.12a5.67,5.67,0,0,0,2.69,5.28c12.82,8.51,18.18,24.81,11.55,38.7-1.19,2.51,0,2.89,2.1,2.88q9.66-.06,19.32,0a5.62,5.62,0,0,0,4.61-2.37c9.86-11.77,23.53-16,37.17-11.71a34.18,34.18,0,0,1-3.79,66.22c-11.54,2.19-21.59-1-30.12-9a8.89,8.89,0,0,0-6.26-2.78c-12-.23-24.06.74-36.07-.57-2.11-.23-3,.94-3.5,2.79-4.26,17.08-19.85,28.59-39.45,28.09-9.79-.25-19.59.06-29.39-.1a12.3,12.3,0,0,0-9,3.37c-17.42,15.45-46.6,6.91-53.2-15.41-5.5-18.64,9.09-38.9,28.7-40.06,13-.77,23.21,4,30.79,14.45a5.08,5.08,0,0,0,4.56,2.34c9.52,0,19-.07,28.55,0,2.93,0,4-1.3,3.94-4.08-.07-6.43,0-12.87,0-19.31a5.57,5.57,0,0,0-1.8-4.51c-11.9-10.57-13.63-28.41-4-41.5A8.7,8.7,0,0,0,102.7,110.13ZM238,165c.09-14.9-11-26.32-25.61-26.41-14.9-.09-26.32,11-26.41,25.61-.1,14.9,11,26.32,25.6,26.41C226.47,190.68,237.89,179.61,238,165Zm-75.9,13V178c4.47,0,8.94-.05,13.41,0,2.48,0,3.28-.86,2.48-3.3a30.33,30.33,0,0,1-.36-17.35c.72-2.71-.26-3.57-2.84-3.54-6.28,0-12.57,0-18.86,0-8.14,0-12,3.81-12,11.76,0,2.51.11,5,0,7.54-.17,3.45,1.53,4.82,4.79,4.8C153.15,177.92,157.62,177.94,162.09,177.94Z"/></svg>