<svg id="Layer_1" data-name="Layer 1" xmlns="http://www.w3.org/2000/svg" viewBox="0 0 256 256"><title>debugwindow</title><path d="M128,17.18h97.92c12,0,19.29,7.23,19.29,19.13q0,70.43,0,140.85c0,11.67-7.35,19-19.08,19q-31.76,0-63.51,0c-4.92,0-5,.19-4.11,5.07A17.56,17.56,0,0,0,165.77,213c3.78,2.6,7.27,5.59,11.61,7.4,4.13,1.72,6.06,6.23,5.2,10.62a9.6,9.6,0,0,1-9,7.74c-.59,0-1.18,0-1.77,0q-43.82,0-87.63,0c-6.66,0-10.83-3.68-10.92-9.51-.06-4,1.6-7.32,5.32-8.86,4.24-1.76,7.63-4.68,11.33-7.19A17.92,17.92,0,0,0,97.58,201c.79-4.46.62-4.74-3.81-4.75q-30.69,0-61.37,0c-1.3,0-2.61,0-3.91,0-10.14-.28-17.66-7.81-17.67-17.93q-.06-71.49,0-143c0-10.52,7.62-18.07,18.2-18.08Q78.49,17.14,128,17.18Zm-.93,142.87H23.48c-1.07,0-2.13,0-3.2,0-1.88-.07-2.87.69-2.85,2.69.05,4.49-.15,9,.11,13.47.27,4.8,3.44,8.08,8.18,8.91a21.92,21.92,0,0,0,3.89.22H225.79c6.78-.21,10.51-3.91,10.64-10.65.07-3.19,0-6.38,0-9.57,0-5.06,0-5.07-5.09-5.07ZM70.17,53.24A3.88,3.88,0,0,0,68.08,50c-2.1-1-3.65,0-5,1.39Q45.48,69,28,86.49c-1.78,1.78-2.67,3.86-.66,5.89,2.17,2.2,4.29,1.11,6.15-.75L68.26,56.82A5.64,5.64,0,0,0,70.17,53.24ZM48.94,36.06a3.79,3.79,0,0,0-2.38-3.25c-1.83-.79-3.23.14-4.43,1.33Q35,41.22,27.86,48.38c-1.75,1.77-2.65,3.79-.53,5.86,2,1.91,3.93,1.1,5.6-.55q7.17-7.08,14.26-14.24A5.22,5.22,0,0,0,48.94,36.06Zm21.28.1A3.7,3.7,0,0,0,68,32.86c-1.65-.8-3-.14-4.18,1q-5.44,5.3-10.75,10.74c-1.57,1.61-2.09,3.51-.31,5.32s3.88,1.28,5.58-.38c3.46-3.37,6.85-6.81,10.26-10.24A5.13,5.13,0,0,0,70.22,36.16ZM40.34,63.82A3.31,3.31,0,0,0,35.12,61a33,33,0,0,0-8,7.84c-1.1,1.42-1.35,3,0,4.49s3.2,1.34,4.75.16A41.05,41.05,0,0,0,39.34,66,9.06,9.06,0,0,0,40.34,63.82Zm49-27.27c0-2.54-2.84-4.64-5.2-3.59a12.64,12.64,0,0,0-6.39,6.33,3.89,3.89,0,0,0,3.45,5.29C83.81,44.63,89.26,39.26,89.29,36.55Z"/></svg>