<svg id="Layer_1" data-name="Layer 1" xmlns="http://www.w3.org/2000/svg" viewBox="0 0 256 256"><title>export</title><g id="r7zAsL.tif"><path d="M16,245.72a29.52,29.52,0,0,1-.22-8c.71-15.22,2.07-30.38,5.11-45.34,6.17-30.39,16.64-59,35.15-84.24C66.15,94.35,78.18,82.65,93.41,74.54c9.53-5.07,19.6-8.37,30.47-9,4.18-.22,4.32-.4,4.32-4.66q0-19.38,0-38.75a21.75,21.75,0,0,1,.92-7.18c1.37-4.05,4.78-5.64,8.8-4.17a14.25,14.25,0,0,1,4,2.36Q185.15,47.9,228.46,82.6a30,30,0,0,0,3,2.35c9.13,5.59,9.72,14.24,8.48,23.54a15.38,15.38,0,0,1-6.18,10.43q-46.11,36.78-92.07,73.76a12.1,12.1,0,0,1-4.59,2.46A6.2,6.2,0,0,1,129.2,191a20.22,20.22,0,0,1-1-7.16q0-20,0-39.92c0-3.92-.34-4.13-4.14-3.79-22.86,2-41.82,12.35-58.3,27.74-19.65,18.35-33.3,40.8-43.91,65.26-1.51,3.47-2.84,7-4.32,10.51C17.22,244.35,17.29,245.41,16,245.72Z"/></g></svg>