<svg id="Layer_1" data-name="Layer 1" xmlns="http://www.w3.org/2000/svg" viewBox="0 0 256 256"><title>eye</title><path d="M244.38,124.76C228.45,101,209,80.72,183.82,66.7c-33.89-18.85-68.77-20.61-103.95-4C50.72,76.55,29,98.84,11.22,125.31c-1.47,2.2-1,3.84.3,5.84,12.64,19,27.79,35.6,46.3,49,21,15.24,44.18,24.1,71.28,24.47A112.24,112.24,0,0,0,174.67,194c29.79-14.06,52.12-36.38,70.17-63.45C246.37,128.3,245.66,126.68,244.38,124.76ZM128,179.89a50.68,50.68,0,1,1,50.68-50.68A50.68,50.68,0,0,1,128,179.89Z"/><circle cx="128" cy="128" r="22.7"/></svg>