<svg id="Layer_1" data-name="Layer 1" xmlns="http://www.w3.org/2000/svg" viewBox="0 0 256 256"><title>eye_minus</title><path d="M244.42,124.53c-14.65-20.66-32.12-38.41-53.94-51.48C157,53,121.84,48.73,85.3,63.31c-31.52,12.57-55.07,35-74.3,62.41-1.42,2-.9,3.46.31,5.22a184.81,184.81,0,0,0,42.28,44.12c22.06,16.36,46.51,26.15,74.33,26.27a111.32,111.32,0,0,0,42.84-8.3c31.05-12.72,54.52-34.59,73.78-61.52C246.42,128.88,246.19,127,244.42,124.53Zm-67.56,15c-1.58,3.06-3.76,5-6.17,5H89a5.31,5.31,0,0,1-3.29-1.24,2.27,2.27,0,0,1-1.68-1.77c-2.27-3-3.76-8.13-3.76-13.89s1.49-10.85,3.77-13.9c1.4-1.89,3.11-3,5-3h81.66c4.82,0,8.73,7.57,8.73,16.9A26.65,26.65,0,0,1,176.86,139.54Z"/></svg>