<svg id="Layer_1" data-name="Layer 1" xmlns="http://www.w3.org/2000/svg" viewBox="0 0 256 256"><title>filesave</title><g id="_7hmS4e.tif" data-name="7hmS4e.tif"><path d="M121.12,10.28h14c2.43.23,4.86.4,7.28.7a114.93,114.93,0,0,1,37.07,10.88q38.43,19,56.35,57.93a113.79,113.79,0,0,1,9.15,31.51c.47,3.29.72,6.6,1.07,9.9v14c-.28,2.74-.52,5.5-.86,8.23a115.65,115.65,0,0,1-12.64,39.89,118,118,0,0,1-98.59,62.82,117.71,117.71,0,0,1-85.82-31.2c-23.45-21.89-36-49-37.9-81a108.23,108.23,0,0,1,1.68-26.46q8.75-46.33,46.58-74.53a114.51,114.51,0,0,1,54.44-21.78C115.62,10.79,118.38,10.56,121.12,10.28Zm6.24,189.81v0c10.59,0,21.17.06,31.76,0,8,0,16.11.32,24.16-.24a20.34,20.34,0,0,0,12-4.82c4.45-3.8,6.81-9.24,4.14-15.63-3.57-8.55-7-17.13-10.5-25.72A1.7,1.7,0,0,0,187,152.5c-4.53,0-9.06,0-13.59,0-1.46,0-1.51.09-1,1.54l5.38,15.82c.7,2.07.7,2.07-1.53,2.07H123.93q-21.65,0-43.3,0c-1.77,0-1.84-.1-1.28-1.74,1.86-5.47,3.73-10.92,5.59-16.39.42-1.22.37-1.3-.92-1.3-4.89,0-9.78,0-14.68,0a1.62,1.62,0,0,0-1.73,1.13Q62.06,167,56.44,180.37a8.67,8.67,0,0,0-.72,3.14c-.12,5,2.18,8.87,6,11.9a21.81,21.81,0,0,0,14.2,4.7C93,200.06,110.2,200.09,127.36,200.09ZM142.93,81.47h-.23c0-5.06,0-10.11,0-15.16a20.42,20.42,0,0,0-.5-4.41c-.81-3.68-2.86-5.5-6.64-5.55-5.09-.07-10.19-.19-15.27.19a6.51,6.51,0,0,0-6.05,5.15,26.39,26.39,0,0,0-.46,6.34c.3,10.46.26,20.92.19,31.38,0,4.24-1.34,5.42-5.54,5.47-4.45,0-8.89.43-13.34.29a5.92,5.92,0,0,0-2.24.4,3,3,0,0,0-2.25,3.29,7.56,7.56,0,0,0,1.93,4.44c1.31,1.72,2.71,3.38,4,5.11q11.16,14.86,22.31,29.72a43,43,0,0,0,5.86,6.84c2.19,1.89,4.28,1.85,6.52,0a23.76,23.76,0,0,0,3.57-4.05c8-10.3,15.46-21,23.21-31.44,2-2.74,4.33-5.28,6.1-8.2s.68-5.36-2.73-6a6.13,6.13,0,0,0-.95-.1l-11.54-.29c-.6,0-1.2-.06-1.8-.11a3.71,3.71,0,0,1-3.41-2.93,17.45,17.45,0,0,1-.75-5Z"/></g></svg>