<svg id="Layer_1" data-name="Layer 1" xmlns="http://www.w3.org/2000/svg" viewBox="0 0 256 256"><title>ghost</title><path d="M210.41,213.51c-7-48.29-14.31-96.55-21.26-144.86-2.44-17-8.12-32.24-21.69-43.35C149,10.17,128.17,5.91,105.69,14.8,81.82,24.23,70.05,43,66.56,67.8,63.5,89.56,60.12,111.28,56.92,133c-4.49,30.5-9,61-13.3,90.66-.28,5.74.81,9,3.62,11.84C57.42,245.74,75.6,249,88.44,242.2c8.64-4.55,16.64-4.86,25.11.19,9.37,5.59,19,5.39,28.52,0,4.55-2.56,9.22-4.56,14.62-3.88,4.94.62,9.12,3.17,13.49,5.28,14.07,6.8,25.75-.33,36.73-7.4C215.67,230.78,211.57,221.47,210.41,213.51ZM124.08,84h-.19c0,3.42.46,6.91-.09,10.24-1.07,6.46-5.48,10.22-11.79,10.44-6.79.23-11.71-3.67-12.59-10.43a86.57,86.57,0,0,1-.12-19.64c.72-7.19,5.26-11.35,12.75-11.07s11.42,4.56,12,11.9C124.27,78.29,124.08,81.16,124.08,84Zm32.31,9.43c-.93,6.84-5.24,11.07-12,11.23-7.14.16-12-4-12.72-11.28a116.28,116.28,0,0,1-.17-17.11c.36-8,4.83-12.57,12-12.79,7.47-.22,12.36,4.56,13,12.84.18,2.56,0,5.14,0,7.71h-.11C156.46,87.18,156.81,90.37,156.39,93.45Z"/><path d="M177,96c.06,4.29-.13,7.35-3.76,8s-5-2-5.57-5c-1.17-6.73-2.29-13.48-3.25-20.25-1.32-9.31-2.09-18.72-7.35-27-1.63-2.57-2.26-5.57.93-7.48s5.31.48,7.06,2.82a31.39,31.39,0,0,1,6,13.12C173.25,72.48,175.15,84.87,177,96Z"/><path d="M76.82,175.49c-2.22,15-4.29,29.34-6.53,43.66-.49,3.12-1.58,6.66-5.65,6.18s-4.24-3.91-3.76-7.25c2.06-14.34,4-28.7,6.22-43,.47-3.1,1.59-6.65,5.67-6.16S77,172.81,76.82,175.49Z"/></svg>