<svg id="SVGRoot" width="256px" height="256px" version="1.1" viewBox="0 0 256 256" xmlns="http://www.w3.org/2000/svg">
 <g stroke-width=".60836762">
  <path d="m38.457117 232.88746c-.919545-1.01609-1.006841-5.41265-1.006841-50.70793 0-33.20748.212008-50.20353.641608-51.43587.490342-1.40661 10.892596-10.06956 44.122409-36.744948 36.215617-29.072245 43.833077-34.935913 45.589037-35.092917 1.98201-.177214 4.44885 1.753992 41.20115 32.255034 21.50111 17.843941 40.4107 33.512191 42.02133 34.818321 1.61061 1.30614 3.32165 3.13527 3.80229 4.06473.73889 1.42887.8739 9.44144.8739 51.86702 0 44.80438-.10236 50.27945-.95601 51.13309-.8602.86021-9.69107.95601-88.11902.95601-83.669488 0-87.203367-.0446-88.169853-1.11254zm86.598103-36.91043v-16.12175h-31.635119v13.70968c0 19.28324-.817852 18.47403 18.707299 18.50999l12.92782.0238zm34.26796 15.29219c3.86811-1.61621 4.0592-2.44962 4.0592-17.70426v-13.70968h-31.63512v32.24349h12.79526c9.42831 0 13.3177-.21829 14.78066-.82955zm-34.26796-51.49007v-15.81756h-27.498225l-4.136894 4.1369v27.49822h31.635119zm38.32716 2.06845v-13.74911l-2.06846-2.06845-2.06844-2.06845h-27.49822v31.63512h31.63512z"/>
  <path d="m14.854605 128.65658c-6.6034404-3.82911-6.4396275-14.73114.304697-20.27747 1.385467-1.13936 21.81949-17.592602 45.408943-36.562761 23.589459-18.970158 45.150265-36.384048 47.912905-38.697534 2.76264-2.313487 6.84815-5.060442 9.07893-6.104346 7.56347-3.539373 17.47419-2.897042 24.01945 1.556738 3.47122 2.362031 95.95805 76.806093 99.39365 80.003473 3.20724 2.98486 4.7238 6.24614 4.99805 10.74802.40298 6.61495-3.44939 10.62983-10.1931 10.62307-4.24533-.004-7.56827-1.49641-12.72967-5.7162-2.20025-1.79885-24.25908-19.59795-49.01965-39.553545-32.30116-26.032893-45.36294-36.219837-46.23594-36.059638-.66921.122802-23.25486 17.985924-50.190331 39.695829-26.935475 21.709894-49.98699 39.964034-51.225585 40.564744-3.176797 1.5407-8.666369 1.4357-11.522349-.22038z"/>
 </g>
</svg>
