<svg id="Layer_1" data-name="Layer 1" xmlns="http://www.w3.org/2000/svg" viewBox="0 0 256 256"><title>overview</title><g id="eCOvVT.tif"><path d="M124.15,10h7.37a26.39,26.39,0,0,1,9.83,6.62q14.13,14.16,28.33,28.27c.56.56,1,1.39,2.17,1.52,0-2.5,0-4.93,0-7.36A14.71,14.71,0,0,1,186.4,24.56c4.76,0,9.51,0,14.27,0,9.52,0,15.71,6.17,15.72,15.65q0,24.38,0,48.76a5.69,5.69,0,0,0,1.82,4.46c7.19,7.12,14.32,14.31,21.45,21.49a26.51,26.51,0,0,1,4.28,5.39,14.85,14.85,0,0,1-12.74,22.44c-3.83,0-7.66,0-11.5,0-3.27,0-3.28,0-3.28,3.38,0,27.75-.14,55.51.09,83.27.06,8.26-4.55,14.32-11.77,16.28H157.29c0-1.14-.17-2.29-.17-3.43q0-34.5,0-69c0-9.54-6.19-15.72-15.7-15.76-9,0-18.09,0-27.14,0a18.68,18.68,0,0,0-5.21.73c-6.51,1.87-10.48,7.53-10.49,15q0,34.5,0,69c0,1.14-.11,2.29-.17,3.43H51c-7-1.87-11.86-7.85-11.78-16.27.24-27,.11-54,.08-81,0-6.55.84-5.63-5.76-5.71-3.83,0-7.72.32-11.48-.22-6.33-.9-10.07-5.09-12-11v-7.37c1.38-4.21,4.17-7.44,7.23-10.5q48.63-48.6,97.26-97.2A26.07,26.07,0,0,1,124.15,10Z"/></g></svg>