<svg id="SVGRoot" width="256px" height="256px" version="1.1" viewBox="0 0 256 256" xmlns="http://www.w3.org/2000/svg">
 <path d="m26.256949 227.1872c-6.322035-1.98952-11.508894-6.80592-14.638085-13.59262l-1.618864-3.51104v-81.29788c0-66.287509.176616-81.822266.956542-84.137988 1.628865-4.836328 5.212263-9.514703 9.494956-12.396312 5.998254-4.03592 9.598772-4.452253 36.076571-4.171579l22.387216.237314 3.522428 1.813975c3.205184 1.650597 4.425851 3.139073 13.553126 16.526442 11.816031 17.331084 11.783941 17.292298 15.897771 19.216489 3.14969 1.473226 4.05398 1.499523 63.59976 1.849487l60.40465.355014 2.95902 1.958631c1.62747 1.077247 3.84043 3.290378 4.91767 4.918069l1.95864 2.959439.18828 65.851499c.18672 65.30375.17593 65.8845-1.29663 69.82027-1.8028 4.81843-6.6763 10.03698-11.67211 12.49853l-3.55012 1.74923-100.11355.13498c-80.124014.10804-100.69532-.04809-103.02727-.78195zm136.87724-52.77351c4.42283-4.58363 10.7353-11.13361 14.02772-14.55552l5.98619-6.22163h-103.92065v14.91053h75.262662v7.10025c0 3.90514.13558 7.10025.30128 7.10025s3.91996-3.75025 8.3428-8.33388zm9.10655-38.88279v-7.45526h-75.262664v-7.10025c0-3.90514-.157808-7.10025-.350701-7.10025s-3.946601 3.75426-8.341576 8.34279c-4.394964 4.58855-10.685188 11.13852-13.978273 14.55551l-5.987429 6.21273h103.92064z" stroke-width=".71002513"/>
</svg>
